G04 #@! TF.GenerationSoftware,KiCad,Pcbnew,8.0.5*
G04 #@! TF.CreationDate,2025-02-14T04:05:40-05:00*
G04 #@! TF.ProjectId,UTSM Adaptor,5554534d-2041-4646-9170-746f722e6b69,rev?*
G04 #@! TF.SameCoordinates,Original*
G04 #@! TF.FileFunction,Copper,L1,Top*
G04 #@! TF.FilePolarity,Positive*
%FSLAX46Y46*%
G04 Gerber Fmt 4.6, Leading zero omitted, Abs format (unit mm)*
G04 Created by KiCad (PCBNEW 8.0.5) date 2025-02-14 04:05:40*
%MOMM*%
%LPD*%
G01*
G04 APERTURE LIST*
G04 Aperture macros list*
%AMRoundRect*
0 Rectangle with rounded corners*
0 $1 Rounding radius*
0 $2 $3 $4 $5 $6 $7 $8 $9 X,Y pos of 4 corners*
0 Add a 4 corners polygon primitive as box body*
4,1,4,$2,$3,$4,$5,$6,$7,$8,$9,$2,$3,0*
0 Add four circle primitives for the rounded corners*
1,1,$1+$1,$2,$3*
1,1,$1+$1,$4,$5*
1,1,$1+$1,$6,$7*
1,1,$1+$1,$8,$9*
0 Add four rect primitives between the rounded corners*
20,1,$1+$1,$2,$3,$4,$5,0*
20,1,$1+$1,$4,$5,$6,$7,0*
20,1,$1+$1,$6,$7,$8,$9,0*
20,1,$1+$1,$8,$9,$2,$3,0*%
G04 Aperture macros list end*
G04 #@! TA.AperFunction,SMDPad,CuDef*
%ADD10RoundRect,0.237500X-0.237500X0.250000X-0.237500X-0.250000X0.237500X-0.250000X0.237500X0.250000X0*%
G04 #@! TD*
G04 #@! TA.AperFunction,SMDPad,CuDef*
%ADD11RoundRect,0.150000X-0.587500X-0.150000X0.587500X-0.150000X0.587500X0.150000X-0.587500X0.150000X0*%
G04 #@! TD*
G04 #@! TA.AperFunction,ComponentPad*
%ADD12RoundRect,0.250000X0.625000X-0.350000X0.625000X0.350000X-0.625000X0.350000X-0.625000X-0.350000X0*%
G04 #@! TD*
G04 #@! TA.AperFunction,ComponentPad*
%ADD13O,1.750000X1.200000*%
G04 #@! TD*
G04 #@! TA.AperFunction,SMDPad,CuDef*
%ADD14RoundRect,0.237500X0.250000X0.237500X-0.250000X0.237500X-0.250000X-0.237500X0.250000X-0.237500X0*%
G04 #@! TD*
G04 #@! TA.AperFunction,SMDPad,CuDef*
%ADD15RoundRect,0.237500X-0.250000X-0.237500X0.250000X-0.237500X0.250000X0.237500X-0.250000X0.237500X0*%
G04 #@! TD*
G04 #@! TA.AperFunction,SMDPad,CuDef*
%ADD16RoundRect,0.375000X-0.625000X-0.375000X0.625000X-0.375000X0.625000X0.375000X-0.625000X0.375000X0*%
G04 #@! TD*
G04 #@! TA.AperFunction,SMDPad,CuDef*
%ADD17RoundRect,0.500000X-0.500000X-1.400000X0.500000X-1.400000X0.500000X1.400000X-0.500000X1.400000X0*%
G04 #@! TD*
G04 #@! TA.AperFunction,SMDPad,CuDef*
%ADD18RoundRect,0.150000X-0.150000X0.587500X-0.150000X-0.587500X0.150000X-0.587500X0.150000X0.587500X0*%
G04 #@! TD*
G04 #@! TA.AperFunction,ComponentPad*
%ADD19R,1.700000X1.700000*%
G04 #@! TD*
G04 #@! TA.AperFunction,ComponentPad*
%ADD20O,1.700000X1.700000*%
G04 #@! TD*
G04 #@! TA.AperFunction,ViaPad*
%ADD21C,0.600000*%
G04 #@! TD*
G04 #@! TA.AperFunction,Conductor*
%ADD22C,0.500000*%
G04 #@! TD*
G04 #@! TA.AperFunction,Conductor*
%ADD23C,0.200000*%
G04 #@! TD*
G04 APERTURE END LIST*
D10*
X118000000Y-62287500D03*
X118000000Y-64112500D03*
X123500000Y-62287500D03*
X123500000Y-64112500D03*
X123500000Y-55287500D03*
X123500000Y-57112500D03*
X118012500Y-58787500D03*
X118012500Y-60612500D03*
D11*
X119812500Y-65750000D03*
X119812500Y-67650000D03*
X121687500Y-66700000D03*
X119812500Y-58750000D03*
X119812500Y-60650000D03*
X121687500Y-59700000D03*
D10*
X118000000Y-65787500D03*
X118000000Y-67612500D03*
X118000000Y-69287500D03*
X118000000Y-71112500D03*
X123500000Y-69287500D03*
X123500000Y-71112500D03*
X123512500Y-58787500D03*
X123512500Y-60612500D03*
X118000000Y-55287500D03*
X118000000Y-57112500D03*
D12*
X126300000Y-64962500D03*
D13*
X126300000Y-62962500D03*
X126300000Y-60962500D03*
X126300000Y-58962500D03*
X126300000Y-56962500D03*
D10*
X123500000Y-65787500D03*
X123500000Y-67612500D03*
D14*
X123162500Y-72750000D03*
X121337500Y-72750000D03*
D15*
X121337500Y-78250000D03*
X123162500Y-78250000D03*
D16*
X112800000Y-74550000D03*
X112800000Y-76850000D03*
D17*
X119100000Y-76850000D03*
D16*
X112800000Y-79150000D03*
D12*
X126300000Y-78000000D03*
D13*
X126300000Y-76000000D03*
X126300000Y-74000000D03*
X126300000Y-72000000D03*
X126300000Y-70000000D03*
D11*
X119812500Y-62250000D03*
X119812500Y-64150000D03*
X121687500Y-63200000D03*
X119825000Y-55250000D03*
X119825000Y-57150000D03*
X121700000Y-56200000D03*
X119812500Y-69250000D03*
X119812500Y-71150000D03*
X121687500Y-70200000D03*
D18*
X123200000Y-74562500D03*
X121300000Y-74562500D03*
X122250000Y-76437500D03*
D19*
X115050000Y-56350000D03*
D20*
X112510000Y-56350000D03*
X115050000Y-58890000D03*
X112510000Y-58890000D03*
X115050000Y-61430000D03*
X112510000Y-61430000D03*
X115050000Y-63970000D03*
X112510000Y-63970000D03*
X115050000Y-66510000D03*
X112510000Y-66510000D03*
D21*
X119100000Y-70300000D03*
X119500000Y-72700000D03*
X119050000Y-66750000D03*
D22*
X115050000Y-63970000D02*
X112510000Y-63970000D01*
X115050000Y-63970000D02*
X116350000Y-65270000D01*
X116350000Y-65270000D02*
X116350000Y-67048478D01*
X116350000Y-67048478D02*
X112800000Y-70598478D01*
X112800000Y-70598478D02*
X112800000Y-74550000D01*
D23*
X123162500Y-74525000D02*
X123200000Y-74562500D01*
X117750000Y-65787500D02*
X119525000Y-65787500D01*
X119525000Y-62287500D02*
X119562500Y-62250000D01*
X123162500Y-72750000D02*
X123162500Y-74525000D01*
X119537500Y-55287500D02*
X119575000Y-55250000D01*
X119100000Y-76850000D02*
X120390552Y-76850000D01*
X122678052Y-74562500D02*
X123200000Y-74562500D01*
X120390552Y-76850000D02*
X122678052Y-74562500D01*
X119525000Y-58787500D02*
X119562500Y-58750000D01*
X119525000Y-65787500D02*
X119562500Y-65750000D01*
X117762500Y-58787500D02*
X119525000Y-58787500D01*
X119525000Y-69287500D02*
X119562500Y-69250000D01*
X117750000Y-55287500D02*
X119537500Y-55287500D01*
X117750000Y-69287500D02*
X119525000Y-69287500D01*
X117750000Y-62287500D02*
X119525000Y-62287500D01*
D22*
X111350000Y-78050000D02*
X111350000Y-67670000D01*
X112510000Y-66510000D02*
X115050000Y-66510000D01*
X112450000Y-79150000D02*
X111350000Y-78050000D01*
X111350000Y-67670000D02*
X112510000Y-66510000D01*
X112800000Y-79150000D02*
X112450000Y-79150000D01*
D23*
X117750000Y-57112500D02*
X115812500Y-57112500D01*
X119537500Y-57112500D02*
X119575000Y-57150000D01*
X117750000Y-57112500D02*
X119537500Y-57112500D01*
X115812500Y-57112500D02*
X115050000Y-56350000D01*
X117732500Y-64112500D02*
X115050000Y-61430000D01*
X119525000Y-64112500D02*
X119562500Y-64150000D01*
X117750000Y-64112500D02*
X117732500Y-64112500D01*
X117750000Y-64112500D02*
X119525000Y-64112500D01*
X119525000Y-71112500D02*
X119562500Y-71150000D01*
X118562500Y-70300000D02*
X117750000Y-71112500D01*
X119100000Y-70300000D02*
X118562500Y-70300000D01*
X117750000Y-71112500D02*
X119525000Y-71112500D01*
X121337500Y-74525000D02*
X121300000Y-74562500D01*
X121287500Y-72700000D02*
X121337500Y-72750000D01*
X119500000Y-72700000D02*
X121287500Y-72700000D01*
X121337500Y-72750000D02*
X121337500Y-74525000D01*
X117762500Y-60612500D02*
X119525000Y-60612500D01*
X119525000Y-60612500D02*
X119562500Y-60650000D01*
X117762500Y-60612500D02*
X116772500Y-60612500D01*
X116772500Y-60612500D02*
X115050000Y-58890000D01*
X118612500Y-66750000D02*
X117750000Y-67612500D01*
X119525000Y-67612500D02*
X119562500Y-67650000D01*
X117750000Y-67612500D02*
X119525000Y-67612500D01*
X119050000Y-66750000D02*
X118612500Y-66750000D01*
X123250000Y-71112500D02*
X123250000Y-71250000D01*
X124000000Y-72000000D02*
X126000000Y-72000000D01*
X122337500Y-70200000D02*
X123250000Y-71112500D01*
X123250000Y-71250000D02*
X124000000Y-72000000D01*
X121437500Y-70200000D02*
X122337500Y-70200000D01*
X125850000Y-57112500D02*
X126000000Y-56962500D01*
X122337500Y-56200000D02*
X123250000Y-57112500D01*
X123250000Y-57112500D02*
X125850000Y-57112500D01*
X121450000Y-56200000D02*
X122337500Y-56200000D01*
X123250000Y-64112500D02*
X126000000Y-61362500D01*
X122337500Y-63200000D02*
X123250000Y-64112500D01*
X121437500Y-63200000D02*
X122337500Y-63200000D01*
X126000000Y-61362500D02*
X126000000Y-60962500D01*
X125437500Y-58962500D02*
X126000000Y-58962500D01*
X122350000Y-59700000D02*
X123262500Y-60612500D01*
X123787500Y-60612500D02*
X125437500Y-58962500D01*
X123262500Y-60612500D02*
X123787500Y-60612500D01*
X121437500Y-59700000D02*
X122350000Y-59700000D01*
X121437500Y-66700000D02*
X122337500Y-66700000D01*
X123612500Y-67612500D02*
X126000000Y-70000000D01*
X123250000Y-67612500D02*
X123612500Y-67612500D01*
X122337500Y-66700000D02*
X123250000Y-67612500D01*
X126000000Y-74000000D02*
X125000000Y-74000000D01*
X122250000Y-76437500D02*
X122250000Y-77337500D01*
X125000000Y-74000000D02*
X124500000Y-74500000D01*
X124500000Y-74500000D02*
X124500000Y-76912500D01*
X122250000Y-77337500D02*
X123162500Y-78250000D01*
X124500000Y-76912500D02*
X123162500Y-78250000D01*
G04 #@! TA.AperFunction,Conductor*
G36*
X120500538Y-55001435D02*
G01*
X120546293Y-55054239D01*
X120557499Y-55105750D01*
X120557499Y-55401652D01*
X120555974Y-55421042D01*
X120553708Y-55435355D01*
X120553330Y-55437740D01*
X120523406Y-55500877D01*
X120464098Y-55537814D01*
X120450252Y-55540826D01*
X120414670Y-55546461D01*
X120414619Y-55546471D01*
X120380873Y-55554191D01*
X120380847Y-55554198D01*
X120348806Y-55563856D01*
X120341799Y-55566078D01*
X120255177Y-55615404D01*
X120255173Y-55615407D01*
X120202371Y-55661159D01*
X120170743Y-55693936D01*
X120124534Y-55782273D01*
X120124533Y-55782273D01*
X120104851Y-55849305D01*
X120104848Y-55849317D01*
X120094500Y-55921294D01*
X120094500Y-56475500D01*
X120074815Y-56542539D01*
X120022011Y-56588294D01*
X119970500Y-56599500D01*
X119205982Y-56599500D01*
X119125019Y-56612323D01*
X119112196Y-56614354D01*
X118999158Y-56671950D01*
X118999157Y-56671951D01*
X118999156Y-56671951D01*
X118981597Y-56689511D01*
X118945425Y-56725682D01*
X118884105Y-56759166D01*
X118857746Y-56762000D01*
X118806949Y-56762000D01*
X118739910Y-56742315D01*
X118694155Y-56689511D01*
X118690773Y-56681349D01*
X118670212Y-56626222D01*
X118586116Y-56513884D01*
X118518612Y-56463351D01*
X118473780Y-56429789D01*
X118473778Y-56429788D01*
X118447144Y-56419854D01*
X118342299Y-56380748D01*
X118284190Y-56374500D01*
X118284174Y-56374500D01*
X117715826Y-56374500D01*
X117715809Y-56374500D01*
X117657700Y-56380748D01*
X117526219Y-56429789D01*
X117413884Y-56513884D01*
X117329789Y-56626219D01*
X117329788Y-56626222D01*
X117309231Y-56681335D01*
X117267361Y-56737267D01*
X117201897Y-56761684D01*
X117193051Y-56762000D01*
X116274500Y-56762000D01*
X116207461Y-56742315D01*
X116161706Y-56689511D01*
X116150500Y-56638000D01*
X116150500Y-55475323D01*
X116150499Y-55475321D01*
X116135967Y-55402264D01*
X116135966Y-55402260D01*
X116114459Y-55370072D01*
X116080601Y-55319399D01*
X116018166Y-55277682D01*
X115997739Y-55264033D01*
X115997735Y-55264032D01*
X115924677Y-55249500D01*
X115924674Y-55249500D01*
X114175326Y-55249500D01*
X114175323Y-55249500D01*
X114102264Y-55264032D01*
X114102260Y-55264033D01*
X114019399Y-55319399D01*
X113964033Y-55402260D01*
X113964032Y-55402264D01*
X113949500Y-55475321D01*
X113949500Y-57224678D01*
X113964032Y-57297735D01*
X113964033Y-57297739D01*
X113973129Y-57311352D01*
X114019399Y-57380601D01*
X114085347Y-57424665D01*
X114102260Y-57435966D01*
X114102264Y-57435967D01*
X114175321Y-57450499D01*
X114175324Y-57450500D01*
X114175326Y-57450500D01*
X115703380Y-57450500D01*
X115735472Y-57454725D01*
X115747044Y-57457825D01*
X115766356Y-57463000D01*
X115858644Y-57463000D01*
X117193051Y-57463000D01*
X117260090Y-57482685D01*
X117305845Y-57535489D01*
X117309226Y-57543650D01*
X117329788Y-57598778D01*
X117413884Y-57711116D01*
X117526222Y-57795212D01*
X117618594Y-57829665D01*
X117657700Y-57844251D01*
X117715809Y-57850499D01*
X117715826Y-57850500D01*
X118284174Y-57850500D01*
X118284190Y-57850499D01*
X118342299Y-57844251D01*
X118473778Y-57795212D01*
X118586116Y-57711116D01*
X118670212Y-57598778D01*
X118685749Y-57557119D01*
X118727619Y-57501188D01*
X118793083Y-57476771D01*
X118861356Y-57491622D01*
X118901671Y-57531936D01*
X118903717Y-57530450D01*
X118909454Y-57538347D01*
X118999152Y-57628045D01*
X118999154Y-57628046D01*
X118999158Y-57628050D01*
X119112196Y-57685646D01*
X119112198Y-57685647D01*
X119205975Y-57700499D01*
X119205981Y-57700500D01*
X119970500Y-57700499D01*
X120037539Y-57720183D01*
X120083294Y-57772987D01*
X120094500Y-57824499D01*
X120094500Y-58080682D01*
X120095975Y-58102400D01*
X120096846Y-58115226D01*
X120096849Y-58115255D01*
X120101382Y-58148463D01*
X120102472Y-58155680D01*
X120137643Y-58248962D01*
X120174569Y-58308267D01*
X120174573Y-58308273D01*
X120174575Y-58308275D01*
X120202002Y-58344642D01*
X120282022Y-58404099D01*
X120345157Y-58434028D01*
X120348993Y-58435214D01*
X120414621Y-58455506D01*
X120414625Y-58455507D01*
X120414635Y-58455510D01*
X120425960Y-58457303D01*
X120462860Y-58469291D01*
X120468794Y-58472314D01*
X120500179Y-58495118D01*
X120504880Y-58499819D01*
X120527684Y-58531205D01*
X120530705Y-58537134D01*
X120542691Y-58574018D01*
X120543470Y-58578933D01*
X120544999Y-58598344D01*
X120544999Y-58901652D01*
X120543473Y-58921049D01*
X120540828Y-58937750D01*
X120510899Y-59000885D01*
X120451588Y-59037817D01*
X120437752Y-59040826D01*
X120414666Y-59044482D01*
X120414620Y-59044491D01*
X120380868Y-59052212D01*
X120380846Y-59052218D01*
X120348806Y-59061876D01*
X120341799Y-59064098D01*
X120255177Y-59113424D01*
X120255173Y-59113427D01*
X120202371Y-59159179D01*
X120170743Y-59191956D01*
X120124534Y-59280293D01*
X120124533Y-59280293D01*
X120104851Y-59347325D01*
X120104848Y-59347337D01*
X120094500Y-59419314D01*
X120094500Y-59975500D01*
X120074815Y-60042539D01*
X120022011Y-60088294D01*
X119970500Y-60099500D01*
X119193482Y-60099500D01*
X119112519Y-60112323D01*
X119099696Y-60114354D01*
X118986658Y-60171950D01*
X118986657Y-60171951D01*
X118986656Y-60171951D01*
X118969097Y-60189511D01*
X118932925Y-60225682D01*
X118871605Y-60259166D01*
X118845246Y-60262000D01*
X118819449Y-60262000D01*
X118752410Y-60242315D01*
X118706655Y-60189511D01*
X118703273Y-60181349D01*
X118682712Y-60126222D01*
X118598616Y-60013884D01*
X118531112Y-59963351D01*
X118486280Y-59929789D01*
X118486278Y-59929788D01*
X118459644Y-59919854D01*
X118354799Y-59880748D01*
X118296690Y-59874500D01*
X118296674Y-59874500D01*
X117728326Y-59874500D01*
X117728309Y-59874500D01*
X117670200Y-59880748D01*
X117538719Y-59929789D01*
X117426384Y-60013884D01*
X117342289Y-60126219D01*
X117342288Y-60126222D01*
X117321731Y-60181335D01*
X117279861Y-60237267D01*
X117214397Y-60261684D01*
X117205551Y-60262000D01*
X116969044Y-60262000D01*
X116902005Y-60242315D01*
X116881363Y-60225681D01*
X116098576Y-59442894D01*
X116065091Y-59381571D01*
X116070075Y-59311879D01*
X116075251Y-59299954D01*
X116080582Y-59289250D01*
X116136397Y-59093083D01*
X116155215Y-58890000D01*
X116136397Y-58686917D01*
X116080582Y-58490750D01*
X116069897Y-58469292D01*
X116036272Y-58401764D01*
X115989673Y-58308179D01*
X115866764Y-58145421D01*
X115866762Y-58145418D01*
X115716041Y-58008019D01*
X115716039Y-58008017D01*
X115542642Y-57900655D01*
X115542635Y-57900651D01*
X115397048Y-57844251D01*
X115352456Y-57826976D01*
X115151976Y-57789500D01*
X114948024Y-57789500D01*
X114747544Y-57826976D01*
X114747541Y-57826976D01*
X114747541Y-57826977D01*
X114557364Y-57900651D01*
X114557357Y-57900655D01*
X114383960Y-58008017D01*
X114383958Y-58008019D01*
X114233237Y-58145418D01*
X114110327Y-58308178D01*
X114019422Y-58490739D01*
X114019417Y-58490752D01*
X113963602Y-58686917D01*
X113944785Y-58889999D01*
X113944785Y-58890000D01*
X113963602Y-59093082D01*
X114019417Y-59289247D01*
X114019422Y-59289260D01*
X114110327Y-59471821D01*
X114233237Y-59634581D01*
X114383958Y-59771980D01*
X114383960Y-59771982D01*
X114483141Y-59833392D01*
X114557363Y-59879348D01*
X114747544Y-59953024D01*
X114948024Y-59990500D01*
X114948026Y-59990500D01*
X115151974Y-59990500D01*
X115151976Y-59990500D01*
X115352456Y-59953024D01*
X115468037Y-59908247D01*
X115537658Y-59902385D01*
X115599399Y-59935094D01*
X115600511Y-59936193D01*
X116557288Y-60892970D01*
X116622240Y-60930470D01*
X116637212Y-60939114D01*
X116726356Y-60963000D01*
X117205551Y-60963000D01*
X117272590Y-60982685D01*
X117318345Y-61035489D01*
X117321726Y-61043650D01*
X117342288Y-61098778D01*
X117426384Y-61211116D01*
X117538722Y-61295212D01*
X117617244Y-61324499D01*
X117670200Y-61344251D01*
X117728309Y-61350499D01*
X117728326Y-61350500D01*
X118296674Y-61350500D01*
X118296690Y-61350499D01*
X118354799Y-61344251D01*
X118359837Y-61342372D01*
X118486278Y-61295212D01*
X118598616Y-61211116D01*
X118682712Y-61098778D01*
X118689900Y-61079503D01*
X118731771Y-61023571D01*
X118797235Y-60999153D01*
X118865508Y-61014004D01*
X118893763Y-61035156D01*
X118986652Y-61128045D01*
X118986654Y-61128046D01*
X118986658Y-61128050D01*
X119099696Y-61185646D01*
X119099698Y-61185647D01*
X119193475Y-61200499D01*
X119193481Y-61200500D01*
X119970500Y-61200499D01*
X120037539Y-61220183D01*
X120083294Y-61272987D01*
X120094500Y-61324499D01*
X120094500Y-61580682D01*
X120095241Y-61591587D01*
X120096846Y-61615226D01*
X120096849Y-61615255D01*
X120101382Y-61648463D01*
X120102472Y-61655680D01*
X120137643Y-61748962D01*
X120174569Y-61808267D01*
X120174573Y-61808273D01*
X120202001Y-61844641D01*
X120202002Y-61844642D01*
X120282022Y-61904099D01*
X120345157Y-61934028D01*
X120374245Y-61943021D01*
X120414621Y-61955506D01*
X120414625Y-61955507D01*
X120414635Y-61955510D01*
X120425960Y-61957303D01*
X120462860Y-61969291D01*
X120468794Y-61972314D01*
X120500179Y-61995118D01*
X120504880Y-61999819D01*
X120527684Y-62031205D01*
X120530705Y-62037134D01*
X120542691Y-62074018D01*
X120543470Y-62078933D01*
X120544999Y-62098344D01*
X120544999Y-62401651D01*
X120543472Y-62421054D01*
X120540826Y-62437756D01*
X120510894Y-62500889D01*
X120451581Y-62537818D01*
X120437752Y-62540826D01*
X120414662Y-62544483D01*
X120414620Y-62544491D01*
X120380868Y-62552212D01*
X120380846Y-62552218D01*
X120348806Y-62561876D01*
X120341799Y-62564098D01*
X120255177Y-62613424D01*
X120255173Y-62613427D01*
X120202371Y-62659179D01*
X120170743Y-62691956D01*
X120124534Y-62780293D01*
X120124533Y-62780293D01*
X120104851Y-62847325D01*
X120104848Y-62847337D01*
X120094500Y-62919314D01*
X120094500Y-63475500D01*
X120074815Y-63542539D01*
X120022011Y-63588294D01*
X119970500Y-63599500D01*
X119193482Y-63599500D01*
X119112519Y-63612323D01*
X119099696Y-63614354D01*
X118986658Y-63671950D01*
X118986657Y-63671951D01*
X118986656Y-63671951D01*
X118969097Y-63689511D01*
X118932925Y-63725682D01*
X118871605Y-63759166D01*
X118845246Y-63762000D01*
X118806949Y-63762000D01*
X118739910Y-63742315D01*
X118694155Y-63689511D01*
X118690773Y-63681349D01*
X118670212Y-63626222D01*
X118586116Y-63513884D01*
X118500531Y-63449815D01*
X118473780Y-63429789D01*
X118473778Y-63429788D01*
X118447144Y-63419854D01*
X118342299Y-63380748D01*
X118284190Y-63374500D01*
X118284174Y-63374500D01*
X117715826Y-63374500D01*
X117715809Y-63374500D01*
X117657704Y-63380748D01*
X117657693Y-63380751D01*
X117614904Y-63396710D01*
X117545212Y-63401694D01*
X117483891Y-63368209D01*
X116098576Y-61982894D01*
X116065091Y-61921571D01*
X116070075Y-61851879D01*
X116075251Y-61839954D01*
X116080582Y-61829250D01*
X116136397Y-61633083D01*
X116155215Y-61430000D01*
X116136397Y-61226917D01*
X116080582Y-61030750D01*
X116079507Y-61028592D01*
X116019499Y-60908078D01*
X115989673Y-60848179D01*
X115866764Y-60685421D01*
X115866762Y-60685418D01*
X115716041Y-60548019D01*
X115716039Y-60548017D01*
X115542642Y-60440655D01*
X115542635Y-60440651D01*
X115412830Y-60390365D01*
X115352456Y-60366976D01*
X115151976Y-60329500D01*
X114948024Y-60329500D01*
X114747544Y-60366976D01*
X114747541Y-60366976D01*
X114747541Y-60366977D01*
X114557364Y-60440651D01*
X114557357Y-60440655D01*
X114383960Y-60548017D01*
X114383958Y-60548019D01*
X114233237Y-60685418D01*
X114110327Y-60848178D01*
X114019422Y-61030739D01*
X114019417Y-61030752D01*
X113963602Y-61226917D01*
X113944785Y-61429999D01*
X113944785Y-61430000D01*
X113963602Y-61633082D01*
X114019417Y-61829247D01*
X114019422Y-61829260D01*
X114110327Y-62011821D01*
X114233237Y-62174581D01*
X114383958Y-62311980D01*
X114383960Y-62311982D01*
X114473625Y-62367500D01*
X114557363Y-62419348D01*
X114747544Y-62493024D01*
X114948024Y-62530500D01*
X114948026Y-62530500D01*
X115151974Y-62530500D01*
X115151976Y-62530500D01*
X115352456Y-62493024D01*
X115468037Y-62448247D01*
X115537658Y-62442385D01*
X115599399Y-62475094D01*
X115600511Y-62476193D01*
X117238181Y-64113863D01*
X117271666Y-64175186D01*
X117274500Y-64201544D01*
X117274500Y-64409190D01*
X117280748Y-64467299D01*
X117307576Y-64539226D01*
X117329788Y-64598778D01*
X117413884Y-64711116D01*
X117526222Y-64795212D01*
X117604744Y-64824499D01*
X117657700Y-64844251D01*
X117715809Y-64850499D01*
X117715826Y-64850500D01*
X118284174Y-64850500D01*
X118284190Y-64850499D01*
X118342299Y-64844251D01*
X118473778Y-64795212D01*
X118586116Y-64711116D01*
X118670212Y-64598778D01*
X118681297Y-64569057D01*
X118723167Y-64513125D01*
X118788632Y-64488708D01*
X118856905Y-64503560D01*
X118889381Y-64532109D01*
X118890049Y-64531442D01*
X118986652Y-64628045D01*
X118986654Y-64628046D01*
X118986658Y-64628050D01*
X119099696Y-64685646D01*
X119099698Y-64685647D01*
X119193475Y-64700499D01*
X119193481Y-64700500D01*
X119970500Y-64700499D01*
X120037539Y-64720183D01*
X120083294Y-64772987D01*
X120094500Y-64824499D01*
X120094500Y-65080682D01*
X120095975Y-65102400D01*
X120096846Y-65115226D01*
X120096849Y-65115255D01*
X120101382Y-65148463D01*
X120102472Y-65155680D01*
X120137643Y-65248962D01*
X120174569Y-65308267D01*
X120174573Y-65308273D01*
X120202001Y-65344641D01*
X120202002Y-65344642D01*
X120282022Y-65404099D01*
X120345157Y-65434028D01*
X120374245Y-65443021D01*
X120414621Y-65455506D01*
X120414625Y-65455507D01*
X120414635Y-65455510D01*
X120425960Y-65457303D01*
X120462860Y-65469291D01*
X120468794Y-65472314D01*
X120500179Y-65495118D01*
X120504880Y-65499819D01*
X120527684Y-65531205D01*
X120530705Y-65537134D01*
X120542691Y-65574018D01*
X120543470Y-65578933D01*
X120544999Y-65598344D01*
X120544999Y-65901652D01*
X120543473Y-65921049D01*
X120540828Y-65937750D01*
X120510899Y-66000885D01*
X120451588Y-66037817D01*
X120437752Y-66040826D01*
X120414666Y-66044482D01*
X120414620Y-66044491D01*
X120380868Y-66052212D01*
X120380846Y-66052218D01*
X120348806Y-66061876D01*
X120341799Y-66064098D01*
X120255177Y-66113424D01*
X120255173Y-66113427D01*
X120202371Y-66159179D01*
X120170743Y-66191956D01*
X120124534Y-66280293D01*
X120124533Y-66280293D01*
X120104851Y-66347325D01*
X120104848Y-66347337D01*
X120094500Y-66419314D01*
X120094500Y-66975500D01*
X120074815Y-67042539D01*
X120022011Y-67088294D01*
X119970500Y-67099500D01*
X119686668Y-67099500D01*
X119619629Y-67079815D01*
X119573874Y-67027011D01*
X119563930Y-66957853D01*
X119572106Y-66928049D01*
X119574955Y-66921170D01*
X119586330Y-66893709D01*
X119605250Y-66750000D01*
X119586330Y-66606291D01*
X119530861Y-66472375D01*
X119442621Y-66357379D01*
X119327625Y-66269139D01*
X119327624Y-66269138D01*
X119327622Y-66269137D01*
X119193712Y-66213671D01*
X119193710Y-66213670D01*
X119193709Y-66213670D01*
X119121854Y-66204210D01*
X119050001Y-66194750D01*
X119049999Y-66194750D01*
X118906291Y-66213670D01*
X118906287Y-66213671D01*
X118772377Y-66269137D01*
X118657372Y-66357384D01*
X118651628Y-66363129D01*
X118649111Y-66360612D01*
X118605817Y-66392203D01*
X118574317Y-66397687D01*
X118574416Y-66398439D01*
X118566356Y-66399500D01*
X118477212Y-66423386D01*
X118477209Y-66423387D01*
X118397291Y-66469527D01*
X118397286Y-66469531D01*
X118028637Y-66838181D01*
X117967314Y-66871666D01*
X117940956Y-66874500D01*
X117715809Y-66874500D01*
X117657700Y-66880748D01*
X117526219Y-66929789D01*
X117413884Y-67013884D01*
X117329789Y-67126219D01*
X117280748Y-67257700D01*
X117274500Y-67315809D01*
X117274500Y-67909190D01*
X117280748Y-67967299D01*
X117318554Y-68068658D01*
X117329788Y-68098778D01*
X117413884Y-68211116D01*
X117526222Y-68295212D01*
X117604744Y-68324499D01*
X117657700Y-68344251D01*
X117715809Y-68350499D01*
X117715826Y-68350500D01*
X118284174Y-68350500D01*
X118284190Y-68350499D01*
X118342299Y-68344251D01*
X118473778Y-68295212D01*
X118586116Y-68211116D01*
X118670212Y-68098778D01*
X118681297Y-68069057D01*
X118723167Y-68013125D01*
X118788632Y-67988708D01*
X118856905Y-68003560D01*
X118889381Y-68032109D01*
X118890049Y-68031442D01*
X118986652Y-68128045D01*
X118986654Y-68128046D01*
X118986658Y-68128050D01*
X119085369Y-68178346D01*
X119099698Y-68185647D01*
X119193475Y-68200499D01*
X119193481Y-68200500D01*
X119970500Y-68200499D01*
X120037539Y-68220183D01*
X120083294Y-68272987D01*
X120094500Y-68324499D01*
X120094500Y-68580682D01*
X120095975Y-68602400D01*
X120096846Y-68615226D01*
X120096849Y-68615255D01*
X120101382Y-68648463D01*
X120102472Y-68655680D01*
X120137643Y-68748962D01*
X120174569Y-68808267D01*
X120174573Y-68808273D01*
X120174575Y-68808275D01*
X120202002Y-68844642D01*
X120282022Y-68904099D01*
X120345157Y-68934028D01*
X120374245Y-68943021D01*
X120414621Y-68955506D01*
X120414625Y-68955507D01*
X120414635Y-68955510D01*
X120425960Y-68957303D01*
X120462860Y-68969291D01*
X120468794Y-68972314D01*
X120500179Y-68995118D01*
X120504880Y-68999819D01*
X120527684Y-69031205D01*
X120530705Y-69037134D01*
X120542691Y-69074018D01*
X120543470Y-69078933D01*
X120544999Y-69098344D01*
X120544999Y-69401651D01*
X120543472Y-69421054D01*
X120540826Y-69437756D01*
X120510894Y-69500889D01*
X120451581Y-69537818D01*
X120437752Y-69540826D01*
X120414662Y-69544483D01*
X120414620Y-69544491D01*
X120380868Y-69552212D01*
X120380846Y-69552218D01*
X120348806Y-69561876D01*
X120341799Y-69564098D01*
X120255177Y-69613424D01*
X120255173Y-69613427D01*
X120202371Y-69659179D01*
X120170743Y-69691956D01*
X120124534Y-69780293D01*
X120124533Y-69780293D01*
X120104851Y-69847325D01*
X120104848Y-69847337D01*
X120094500Y-69919314D01*
X120094500Y-70475500D01*
X120074815Y-70542539D01*
X120022011Y-70588294D01*
X119970500Y-70599500D01*
X119756186Y-70599500D01*
X119689147Y-70579815D01*
X119643392Y-70527011D01*
X119633448Y-70457853D01*
X119636296Y-70443964D01*
X119638163Y-70429789D01*
X119655250Y-70300000D01*
X119636330Y-70156291D01*
X119580861Y-70022375D01*
X119492621Y-69907379D01*
X119377625Y-69819139D01*
X119377624Y-69819138D01*
X119377622Y-69819137D01*
X119243712Y-69763671D01*
X119243710Y-69763670D01*
X119243709Y-69763670D01*
X119171854Y-69754210D01*
X119100001Y-69744750D01*
X119099999Y-69744750D01*
X118956291Y-69763670D01*
X118956287Y-69763671D01*
X118822377Y-69819137D01*
X118707372Y-69907384D01*
X118701628Y-69913129D01*
X118699111Y-69910612D01*
X118655817Y-69942203D01*
X118613908Y-69949500D01*
X118516354Y-69949500D01*
X118463329Y-69963708D01*
X118463328Y-69963707D01*
X118427216Y-69973384D01*
X118427209Y-69973387D01*
X118347291Y-70019527D01*
X118347286Y-70019531D01*
X118028637Y-70338181D01*
X117967314Y-70371666D01*
X117940956Y-70374500D01*
X117715809Y-70374500D01*
X117657700Y-70380748D01*
X117526219Y-70429789D01*
X117413884Y-70513884D01*
X117329789Y-70626219D01*
X117280748Y-70757700D01*
X117274500Y-70815809D01*
X117274500Y-71409190D01*
X117280748Y-71467299D01*
X117309438Y-71544217D01*
X117326765Y-71590674D01*
X117329789Y-71598780D01*
X117348242Y-71623430D01*
X117413884Y-71711116D01*
X117496533Y-71772987D01*
X117514927Y-71786757D01*
X117526222Y-71795212D01*
X117604744Y-71824499D01*
X117657700Y-71844251D01*
X117715809Y-71850499D01*
X117715826Y-71850500D01*
X118284174Y-71850500D01*
X118284190Y-71850499D01*
X118342299Y-71844251D01*
X118366442Y-71835246D01*
X118473778Y-71795212D01*
X118586116Y-71711116D01*
X118670212Y-71598778D01*
X118681297Y-71569057D01*
X118723167Y-71513125D01*
X118788632Y-71488708D01*
X118856905Y-71503560D01*
X118889381Y-71532109D01*
X118890049Y-71531442D01*
X118986652Y-71628045D01*
X118986654Y-71628046D01*
X118986658Y-71628050D01*
X119099696Y-71685646D01*
X119099698Y-71685647D01*
X119193475Y-71700499D01*
X119193481Y-71700500D01*
X119970500Y-71700499D01*
X120037539Y-71720183D01*
X120083294Y-71772987D01*
X120094500Y-71824499D01*
X120094500Y-72210839D01*
X120074815Y-72277878D01*
X120022011Y-72323633D01*
X119952853Y-72333577D01*
X119895013Y-72309215D01*
X119892622Y-72307380D01*
X119892621Y-72307379D01*
X119777625Y-72219139D01*
X119777624Y-72219138D01*
X119777622Y-72219137D01*
X119643712Y-72163671D01*
X119643710Y-72163670D01*
X119643709Y-72163670D01*
X119571854Y-72154210D01*
X119500001Y-72144750D01*
X119499999Y-72144750D01*
X119356291Y-72163670D01*
X119356287Y-72163671D01*
X119222377Y-72219137D01*
X119107379Y-72307379D01*
X119019137Y-72422377D01*
X118963671Y-72556287D01*
X118963670Y-72556291D01*
X118944750Y-72699999D01*
X118944750Y-72700000D01*
X118963670Y-72843708D01*
X118963671Y-72843712D01*
X119019137Y-72977622D01*
X119019138Y-72977624D01*
X119019139Y-72977625D01*
X119107379Y-73092621D01*
X119222375Y-73180861D01*
X119356291Y-73236330D01*
X119483280Y-73253048D01*
X119499999Y-73255250D01*
X119500000Y-73255250D01*
X119500001Y-73255250D01*
X119514977Y-73253278D01*
X119643709Y-73236330D01*
X119777625Y-73180861D01*
X119892621Y-73092621D01*
X119892622Y-73092619D01*
X119895013Y-73090785D01*
X119960182Y-73065590D01*
X120028627Y-73079628D01*
X120078617Y-73128442D01*
X120094500Y-73189160D01*
X120094500Y-75388785D01*
X120094829Y-75401753D01*
X120094839Y-75401935D01*
X120094999Y-75408237D01*
X120094999Y-76095011D01*
X120095162Y-76104124D01*
X120095477Y-76112969D01*
X120095479Y-76112981D01*
X120111423Y-76193141D01*
X120135838Y-76258599D01*
X120135841Y-76258608D01*
X120155498Y-76299694D01*
X120155499Y-76299695D01*
X120222118Y-76373858D01*
X120278052Y-76415729D01*
X120316801Y-76439665D01*
X120316803Y-76439665D01*
X120316804Y-76439666D01*
X120335655Y-76444837D01*
X120412940Y-76466039D01*
X120412946Y-76466039D01*
X120412949Y-76466040D01*
X120437784Y-76467815D01*
X120482631Y-76471023D01*
X120482638Y-76471022D01*
X120482640Y-76471023D01*
X120514157Y-76470460D01*
X120528169Y-76470210D01*
X120588947Y-76451178D01*
X120658804Y-76449931D01*
X120718247Y-76486649D01*
X120748403Y-76549676D01*
X120750000Y-76569513D01*
X120750000Y-76573538D01*
X120730315Y-76640577D01*
X120713681Y-76661219D01*
X120463222Y-76911678D01*
X120407636Y-76943771D01*
X120376282Y-76952172D01*
X120355949Y-76958540D01*
X120336536Y-76965521D01*
X120255671Y-77012856D01*
X120202879Y-77058600D01*
X120202874Y-77058604D01*
X120171243Y-77091384D01*
X120125034Y-77179721D01*
X120125033Y-77179721D01*
X120105351Y-77246753D01*
X120105348Y-77246765D01*
X120095000Y-77318742D01*
X120095000Y-77926000D01*
X120075315Y-77993039D01*
X120022511Y-78038794D01*
X119971000Y-78050000D01*
X118134530Y-78050000D01*
X118067491Y-78030315D01*
X118032517Y-77993964D01*
X118031698Y-77994563D01*
X118028105Y-77989642D01*
X117981572Y-77937524D01*
X117981564Y-77937516D01*
X117948336Y-77906392D01*
X117948330Y-77906388D01*
X117889672Y-77876805D01*
X117859320Y-77861498D01*
X117859317Y-77861497D01*
X117792000Y-77842811D01*
X117792003Y-77842811D01*
X117719867Y-77833531D01*
X111979810Y-77918779D01*
X111912486Y-77900092D01*
X111890288Y-77882474D01*
X111886819Y-77879005D01*
X111853334Y-77817682D01*
X111850500Y-77791324D01*
X111850500Y-75647239D01*
X111870185Y-75580200D01*
X111922989Y-75534445D01*
X111992147Y-75524501D01*
X112009094Y-75528162D01*
X112076373Y-75547709D01*
X112111837Y-75550500D01*
X113488162Y-75550499D01*
X113523627Y-75547709D01*
X113675390Y-75503618D01*
X113811420Y-75423170D01*
X113923170Y-75311420D01*
X114003618Y-75175390D01*
X114047709Y-75023627D01*
X114050500Y-74988163D01*
X114050499Y-74111838D01*
X114047709Y-74076373D01*
X114003618Y-73924610D01*
X113923170Y-73788580D01*
X113923168Y-73788578D01*
X113923165Y-73788574D01*
X113811425Y-73676834D01*
X113811416Y-73676827D01*
X113675390Y-73596382D01*
X113675385Y-73596380D01*
X113523633Y-73552292D01*
X113523620Y-73552290D01*
X113488170Y-73549500D01*
X113488163Y-73549500D01*
X113424500Y-73549500D01*
X113357461Y-73529815D01*
X113311706Y-73477011D01*
X113300500Y-73425500D01*
X113300500Y-70857154D01*
X113320185Y-70790115D01*
X113336819Y-70769473D01*
X115032274Y-69074018D01*
X116750500Y-67355792D01*
X116816392Y-67241664D01*
X116850500Y-67114371D01*
X116850500Y-66982586D01*
X116850500Y-65204108D01*
X116816392Y-65076814D01*
X116750500Y-64962686D01*
X116657314Y-64869500D01*
X116149050Y-64361236D01*
X116115565Y-64299913D01*
X116117465Y-64239620D01*
X116133278Y-64184044D01*
X116136397Y-64173083D01*
X116155215Y-63970000D01*
X116136397Y-63766917D01*
X116080582Y-63570750D01*
X116076438Y-63562428D01*
X116020364Y-63449815D01*
X115989673Y-63388179D01*
X115866764Y-63225421D01*
X115866762Y-63225418D01*
X115716041Y-63088019D01*
X115716039Y-63088017D01*
X115542642Y-62980655D01*
X115542635Y-62980651D01*
X115384304Y-62919314D01*
X115352456Y-62906976D01*
X115151976Y-62869500D01*
X114948024Y-62869500D01*
X114747544Y-62906976D01*
X114747541Y-62906976D01*
X114747541Y-62906977D01*
X114557364Y-62980651D01*
X114557357Y-62980655D01*
X114383960Y-63088017D01*
X114383958Y-63088019D01*
X114233237Y-63225418D01*
X114110326Y-63388178D01*
X114104055Y-63400774D01*
X114056551Y-63452010D01*
X113993056Y-63469500D01*
X113566944Y-63469500D01*
X113499905Y-63449815D01*
X113455945Y-63400774D01*
X113449673Y-63388178D01*
X113326762Y-63225418D01*
X113176041Y-63088019D01*
X113176039Y-63088017D01*
X113002642Y-62980655D01*
X113002635Y-62980651D01*
X112844304Y-62919314D01*
X112812456Y-62906976D01*
X112611976Y-62869500D01*
X112408024Y-62869500D01*
X112207544Y-62906976D01*
X112207541Y-62906976D01*
X112207541Y-62906977D01*
X112017364Y-62980651D01*
X112017357Y-62980655D01*
X111843960Y-63088017D01*
X111843958Y-63088019D01*
X111693237Y-63225418D01*
X111570327Y-63388178D01*
X111479422Y-63570739D01*
X111479417Y-63570752D01*
X111423602Y-63766917D01*
X111404785Y-63969999D01*
X111404785Y-63970000D01*
X111423602Y-64173082D01*
X111479417Y-64369247D01*
X111479422Y-64369260D01*
X111570327Y-64551821D01*
X111693237Y-64714581D01*
X111832638Y-64841660D01*
X111842334Y-64850500D01*
X111843958Y-64851980D01*
X111843960Y-64851982D01*
X111872253Y-64869500D01*
X112017363Y-64959348D01*
X112207544Y-65033024D01*
X112408024Y-65070500D01*
X112408026Y-65070500D01*
X112611974Y-65070500D01*
X112611976Y-65070500D01*
X112812456Y-65033024D01*
X113002637Y-64959348D01*
X113176041Y-64851981D01*
X113326764Y-64714579D01*
X113449673Y-64551821D01*
X113455945Y-64539226D01*
X113503449Y-64487990D01*
X113566944Y-64470500D01*
X113993056Y-64470500D01*
X114060095Y-64490185D01*
X114104055Y-64539226D01*
X114110326Y-64551821D01*
X114233237Y-64714581D01*
X114372638Y-64841660D01*
X114382334Y-64850500D01*
X114383958Y-64851980D01*
X114383960Y-64851982D01*
X114412253Y-64869500D01*
X114557363Y-64959348D01*
X114747544Y-65033024D01*
X114948024Y-65070500D01*
X114948026Y-65070500D01*
X115151974Y-65070500D01*
X115151976Y-65070500D01*
X115332655Y-65036725D01*
X115402168Y-65043756D01*
X115443119Y-65070933D01*
X115706452Y-65334266D01*
X115739937Y-65395589D01*
X115734953Y-65465281D01*
X115693081Y-65521214D01*
X115627617Y-65545631D01*
X115559344Y-65530779D01*
X115553511Y-65527385D01*
X115542637Y-65520652D01*
X115542634Y-65520651D01*
X115542635Y-65520651D01*
X115417861Y-65472314D01*
X115352456Y-65446976D01*
X115151976Y-65409500D01*
X114948024Y-65409500D01*
X114747544Y-65446976D01*
X114747541Y-65446976D01*
X114747541Y-65446977D01*
X114557364Y-65520651D01*
X114557357Y-65520655D01*
X114383960Y-65628017D01*
X114383958Y-65628019D01*
X114233237Y-65765418D01*
X114110326Y-65928178D01*
X114104055Y-65940774D01*
X114056551Y-65992010D01*
X113993056Y-66009500D01*
X113566944Y-66009500D01*
X113499905Y-65989815D01*
X113455945Y-65940774D01*
X113449673Y-65928178D01*
X113326762Y-65765418D01*
X113176041Y-65628019D01*
X113176039Y-65628017D01*
X113002642Y-65520655D01*
X113002635Y-65520651D01*
X112877861Y-65472314D01*
X112812456Y-65446976D01*
X112611976Y-65409500D01*
X112408024Y-65409500D01*
X112207544Y-65446976D01*
X112207541Y-65446976D01*
X112207541Y-65446977D01*
X112017364Y-65520651D01*
X112017357Y-65520655D01*
X111843960Y-65628017D01*
X111843958Y-65628019D01*
X111693237Y-65765418D01*
X111570327Y-65928178D01*
X111479422Y-66110739D01*
X111479417Y-66110752D01*
X111423602Y-66306917D01*
X111404785Y-66509999D01*
X111404785Y-66510000D01*
X111423602Y-66713079D01*
X111423602Y-66713082D01*
X111423603Y-66713083D01*
X111442534Y-66779622D01*
X111441947Y-66849487D01*
X111410949Y-66901235D01*
X111312180Y-67000004D01*
X111250859Y-67033489D01*
X111181167Y-67028505D01*
X111125233Y-66986634D01*
X111100816Y-66921170D01*
X111100500Y-66912323D01*
X111100500Y-61429999D01*
X111404785Y-61429999D01*
X111404785Y-61430000D01*
X111423602Y-61633082D01*
X111479417Y-61829247D01*
X111479422Y-61829260D01*
X111570327Y-62011821D01*
X111693237Y-62174581D01*
X111843958Y-62311980D01*
X111843960Y-62311982D01*
X111933625Y-62367500D01*
X112017363Y-62419348D01*
X112207544Y-62493024D01*
X112408024Y-62530500D01*
X112408026Y-62530500D01*
X112611974Y-62530500D01*
X112611976Y-62530500D01*
X112812456Y-62493024D01*
X113002637Y-62419348D01*
X113176041Y-62311981D01*
X113326764Y-62174579D01*
X113449673Y-62011821D01*
X113540582Y-61829250D01*
X113596397Y-61633083D01*
X113615215Y-61430000D01*
X113596397Y-61226917D01*
X113540582Y-61030750D01*
X113539507Y-61028592D01*
X113479499Y-60908078D01*
X113449673Y-60848179D01*
X113326764Y-60685421D01*
X113326762Y-60685418D01*
X113176041Y-60548019D01*
X113176039Y-60548017D01*
X113002642Y-60440655D01*
X113002635Y-60440651D01*
X112872830Y-60390365D01*
X112812456Y-60366976D01*
X112611976Y-60329500D01*
X112408024Y-60329500D01*
X112207544Y-60366976D01*
X112207541Y-60366976D01*
X112207541Y-60366977D01*
X112017364Y-60440651D01*
X112017357Y-60440655D01*
X111843960Y-60548017D01*
X111843958Y-60548019D01*
X111693237Y-60685418D01*
X111570327Y-60848178D01*
X111479422Y-61030739D01*
X111479417Y-61030752D01*
X111423602Y-61226917D01*
X111404785Y-61429999D01*
X111100500Y-61429999D01*
X111100500Y-58889999D01*
X111404785Y-58889999D01*
X111404785Y-58890000D01*
X111423602Y-59093082D01*
X111479417Y-59289247D01*
X111479422Y-59289260D01*
X111570327Y-59471821D01*
X111693237Y-59634581D01*
X111843958Y-59771980D01*
X111843960Y-59771982D01*
X111943141Y-59833392D01*
X112017363Y-59879348D01*
X112207544Y-59953024D01*
X112408024Y-59990500D01*
X112408026Y-59990500D01*
X112611974Y-59990500D01*
X112611976Y-59990500D01*
X112812456Y-59953024D01*
X113002637Y-59879348D01*
X113176041Y-59771981D01*
X113326764Y-59634579D01*
X113449673Y-59471821D01*
X113540582Y-59289250D01*
X113596397Y-59093083D01*
X113615215Y-58890000D01*
X113596397Y-58686917D01*
X113540582Y-58490750D01*
X113529897Y-58469292D01*
X113496272Y-58401764D01*
X113449673Y-58308179D01*
X113326764Y-58145421D01*
X113326762Y-58145418D01*
X113176041Y-58008019D01*
X113176039Y-58008017D01*
X113002642Y-57900655D01*
X113002635Y-57900651D01*
X112857048Y-57844251D01*
X112812456Y-57826976D01*
X112611976Y-57789500D01*
X112408024Y-57789500D01*
X112207544Y-57826976D01*
X112207541Y-57826976D01*
X112207541Y-57826977D01*
X112017364Y-57900651D01*
X112017357Y-57900655D01*
X111843960Y-58008017D01*
X111843958Y-58008019D01*
X111693237Y-58145418D01*
X111570327Y-58308178D01*
X111479422Y-58490739D01*
X111479417Y-58490752D01*
X111423602Y-58686917D01*
X111404785Y-58889999D01*
X111100500Y-58889999D01*
X111100500Y-56349999D01*
X111404785Y-56349999D01*
X111404785Y-56350000D01*
X111423602Y-56553082D01*
X111479417Y-56749247D01*
X111479422Y-56749260D01*
X111570327Y-56931821D01*
X111693237Y-57094581D01*
X111843958Y-57231980D01*
X111843960Y-57231982D01*
X111902127Y-57267997D01*
X112017363Y-57339348D01*
X112207544Y-57413024D01*
X112408024Y-57450500D01*
X112408026Y-57450500D01*
X112611974Y-57450500D01*
X112611976Y-57450500D01*
X112812456Y-57413024D01*
X113002637Y-57339348D01*
X113176041Y-57231981D01*
X113326764Y-57094579D01*
X113449673Y-56931821D01*
X113540582Y-56749250D01*
X113596397Y-56553083D01*
X113615215Y-56350000D01*
X113596397Y-56146917D01*
X113540582Y-55950750D01*
X113449673Y-55768179D01*
X113326764Y-55605421D01*
X113326762Y-55605418D01*
X113176041Y-55468019D01*
X113176039Y-55468017D01*
X113002642Y-55360655D01*
X113002635Y-55360651D01*
X112896150Y-55319399D01*
X112812456Y-55286976D01*
X112611976Y-55249500D01*
X112408024Y-55249500D01*
X112207544Y-55286976D01*
X112207541Y-55286976D01*
X112207541Y-55286977D01*
X112017364Y-55360651D01*
X112017357Y-55360655D01*
X111843960Y-55468017D01*
X111843958Y-55468019D01*
X111693237Y-55605418D01*
X111570327Y-55768178D01*
X111479422Y-55950739D01*
X111479417Y-55950752D01*
X111423602Y-56146917D01*
X111404785Y-56349999D01*
X111100500Y-56349999D01*
X111100500Y-55555401D01*
X111100502Y-55555356D01*
X111100501Y-55547121D01*
X111100503Y-55547117D01*
X111100500Y-55488183D01*
X111101279Y-55474305D01*
X111101987Y-55468019D01*
X111111456Y-55383947D01*
X111117628Y-55356896D01*
X111145348Y-55277667D01*
X111157390Y-55252662D01*
X111202035Y-55181606D01*
X111219345Y-55159898D01*
X111278678Y-55100562D01*
X111300385Y-55083251D01*
X111371440Y-55038602D01*
X111396452Y-55026555D01*
X111475664Y-54998836D01*
X111502729Y-54992659D01*
X111579232Y-54984039D01*
X111592634Y-54982530D01*
X111606517Y-54981750D01*
X111665892Y-54981750D01*
X120433499Y-54981750D01*
X120500538Y-55001435D01*
G37*
G04 #@! TD.AperFunction*
G04 #@! TA.AperFunction,Conductor*
G36*
X129606922Y-54982530D02*
G01*
X129618905Y-54983880D01*
X129697259Y-54992708D01*
X129724325Y-54998886D01*
X129803526Y-55026600D01*
X129828539Y-55038647D01*
X129899579Y-55083287D01*
X129921284Y-55100595D01*
X129980619Y-55159933D01*
X129997927Y-55181638D01*
X130030698Y-55233797D01*
X130042564Y-55252683D01*
X130054610Y-55277700D01*
X130082318Y-55356894D01*
X130088496Y-55383967D01*
X130098720Y-55474752D01*
X130099499Y-55488633D01*
X130099497Y-55555356D01*
X130099500Y-55555401D01*
X130099500Y-79407758D01*
X130099497Y-79407808D01*
X130099499Y-79474312D01*
X130098720Y-79488194D01*
X130088544Y-79578546D01*
X130082367Y-79605614D01*
X130054655Y-79684821D01*
X130042609Y-79709837D01*
X129997964Y-79780893D01*
X129980652Y-79802603D01*
X129921323Y-79861935D01*
X129899614Y-79879248D01*
X129828559Y-79923897D01*
X129803541Y-79935946D01*
X129724339Y-79963661D01*
X129697268Y-79969840D01*
X129629278Y-79977501D01*
X129607365Y-79979970D01*
X129593483Y-79980750D01*
X111606961Y-79980750D01*
X111593078Y-79979970D01*
X111559132Y-79976145D01*
X111502741Y-79969791D01*
X111475670Y-79963612D01*
X111396476Y-79935900D01*
X111371458Y-79923851D01*
X111300422Y-79879214D01*
X111278713Y-79861902D01*
X111219379Y-79802565D01*
X111202073Y-79780862D01*
X111157434Y-79709815D01*
X111145389Y-79684799D01*
X111117681Y-79605605D01*
X111111503Y-79578532D01*
X111101279Y-79487747D01*
X111100500Y-79473864D01*
X111100503Y-79415383D01*
X111100501Y-79415378D01*
X111100502Y-79407808D01*
X111100500Y-79407758D01*
X111100500Y-78309538D01*
X111120185Y-78242499D01*
X111172989Y-78196744D01*
X111222651Y-78185553D01*
X117723665Y-78089004D01*
X117790983Y-78107690D01*
X117837517Y-78159808D01*
X117849500Y-78212988D01*
X117849500Y-78300000D01*
X117849501Y-78300019D01*
X117860000Y-78402796D01*
X117860001Y-78402799D01*
X117903535Y-78534173D01*
X117915186Y-78569334D01*
X118007288Y-78718656D01*
X118131344Y-78842712D01*
X118280666Y-78934814D01*
X118447203Y-78989999D01*
X118549991Y-79000500D01*
X119650008Y-79000499D01*
X119650016Y-79000498D01*
X119650019Y-79000498D01*
X119706302Y-78994748D01*
X119752797Y-78989999D01*
X119919334Y-78934814D01*
X120068656Y-78842712D01*
X120192712Y-78718656D01*
X120284814Y-78569334D01*
X120339999Y-78402797D01*
X120350500Y-78300009D01*
X120350500Y-77318744D01*
X120370185Y-77251705D01*
X120422989Y-77205950D01*
X120442398Y-77198971D01*
X120525840Y-77176614D01*
X120605764Y-77130470D01*
X121487821Y-76248411D01*
X121549142Y-76214928D01*
X121618833Y-76219912D01*
X121674767Y-76261783D01*
X121699184Y-76327248D01*
X121699500Y-76336094D01*
X121699500Y-77056517D01*
X121710292Y-77124657D01*
X121714354Y-77150304D01*
X121771950Y-77263342D01*
X121861658Y-77353050D01*
X121861660Y-77353051D01*
X121861662Y-77353053D01*
X121862946Y-77353986D01*
X121864128Y-77355519D01*
X121868559Y-77359950D01*
X121867986Y-77360522D01*
X121905610Y-77409317D01*
X121909832Y-77422207D01*
X121923384Y-77472783D01*
X121923387Y-77472790D01*
X121969527Y-77552708D01*
X121969531Y-77552713D01*
X122388181Y-77971363D01*
X122421666Y-78032686D01*
X122424500Y-78059044D01*
X122424500Y-78534190D01*
X122430748Y-78592299D01*
X122469854Y-78697144D01*
X122479788Y-78723778D01*
X122563884Y-78836116D01*
X122676222Y-78920212D01*
X122768594Y-78954665D01*
X122807700Y-78969251D01*
X122865809Y-78975499D01*
X122865826Y-78975500D01*
X123459174Y-78975500D01*
X123459190Y-78975499D01*
X123517299Y-78969251D01*
X123648778Y-78920212D01*
X123761116Y-78836116D01*
X123845212Y-78723778D01*
X123894251Y-78592299D01*
X123896720Y-78569334D01*
X123900499Y-78534190D01*
X123900500Y-78534173D01*
X123900500Y-78059044D01*
X123920185Y-77992005D01*
X123936819Y-77971363D01*
X124355474Y-77552708D01*
X124780470Y-77127712D01*
X124826614Y-77047788D01*
X124850500Y-76958643D01*
X124850500Y-76866356D01*
X124850500Y-75916228D01*
X125174500Y-75916228D01*
X125174500Y-76083771D01*
X125207182Y-76248074D01*
X125207184Y-76248082D01*
X125271295Y-76402860D01*
X125364373Y-76542162D01*
X125482837Y-76660626D01*
X125565645Y-76715956D01*
X125622137Y-76753703D01*
X125776918Y-76817816D01*
X125941228Y-76850499D01*
X125941232Y-76850500D01*
X125941233Y-76850500D01*
X126658768Y-76850500D01*
X126658769Y-76850499D01*
X126823082Y-76817816D01*
X126977863Y-76753703D01*
X127117162Y-76660626D01*
X127235626Y-76542162D01*
X127328703Y-76402863D01*
X127392816Y-76248082D01*
X127425500Y-76083767D01*
X127425500Y-75916233D01*
X127392816Y-75751918D01*
X127328703Y-75597137D01*
X127286562Y-75534069D01*
X127235626Y-75457837D01*
X127117162Y-75339373D01*
X126977860Y-75246295D01*
X126823082Y-75182184D01*
X126823074Y-75182182D01*
X126658771Y-75149500D01*
X126658767Y-75149500D01*
X125941233Y-75149500D01*
X125941228Y-75149500D01*
X125776925Y-75182182D01*
X125776917Y-75182184D01*
X125622139Y-75246295D01*
X125482837Y-75339373D01*
X125364373Y-75457837D01*
X125271295Y-75597139D01*
X125207184Y-75751917D01*
X125207182Y-75751925D01*
X125174500Y-75916228D01*
X124850500Y-75916228D01*
X124850500Y-74696544D01*
X124870185Y-74629505D01*
X124886819Y-74608863D01*
X124953520Y-74542162D01*
X125092971Y-74402710D01*
X125154292Y-74369227D01*
X125223983Y-74374211D01*
X125279917Y-74416082D01*
X125283733Y-74421475D01*
X125305370Y-74453856D01*
X125364375Y-74542164D01*
X125482837Y-74660626D01*
X125558512Y-74711190D01*
X125622137Y-74753703D01*
X125776918Y-74817816D01*
X125941228Y-74850499D01*
X125941232Y-74850500D01*
X125941233Y-74850500D01*
X126658768Y-74850500D01*
X126658769Y-74850499D01*
X126823082Y-74817816D01*
X126977863Y-74753703D01*
X127117162Y-74660626D01*
X127235626Y-74542162D01*
X127328703Y-74402863D01*
X127392816Y-74248082D01*
X127425500Y-74083767D01*
X127425500Y-73916233D01*
X127392816Y-73751918D01*
X127333435Y-73608561D01*
X127328704Y-73597139D01*
X127328198Y-73596382D01*
X127289612Y-73538633D01*
X127235626Y-73457837D01*
X127117162Y-73339373D01*
X126977860Y-73246295D01*
X126823082Y-73182184D01*
X126823074Y-73182182D01*
X126658771Y-73149500D01*
X126658767Y-73149500D01*
X125941233Y-73149500D01*
X125941228Y-73149500D01*
X125776925Y-73182182D01*
X125776917Y-73182184D01*
X125622139Y-73246295D01*
X125482837Y-73339373D01*
X125364373Y-73457837D01*
X125281745Y-73581500D01*
X125274416Y-73592470D01*
X125273132Y-73594391D01*
X125219520Y-73639196D01*
X125170030Y-73649500D01*
X124953856Y-73649500D01*
X124864712Y-73673386D01*
X124864709Y-73673387D01*
X124784791Y-73719527D01*
X124784786Y-73719531D01*
X124219529Y-74284788D01*
X124199976Y-74318656D01*
X124183446Y-74347288D01*
X124181592Y-74350500D01*
X124173385Y-74364714D01*
X124149500Y-74453856D01*
X124149500Y-76715956D01*
X124129815Y-76782995D01*
X124113181Y-76803637D01*
X123428637Y-77488181D01*
X123367314Y-77521666D01*
X123340956Y-77524500D01*
X122984044Y-77524500D01*
X122917005Y-77504815D01*
X122896363Y-77488181D01*
X122772674Y-77364492D01*
X122739189Y-77303169D01*
X122744173Y-77233477D01*
X122749867Y-77220522D01*
X122785646Y-77150304D01*
X122785646Y-77150302D01*
X122785647Y-77150301D01*
X122800499Y-77056524D01*
X122800500Y-77056519D01*
X122800499Y-75818482D01*
X122785646Y-75724696D01*
X122778527Y-75710725D01*
X122765632Y-75642059D01*
X122791908Y-75577319D01*
X122849014Y-75537061D01*
X122915039Y-75534231D01*
X122915057Y-75534120D01*
X122915605Y-75534206D01*
X122918820Y-75534069D01*
X122923893Y-75535519D01*
X123018475Y-75550499D01*
X123018481Y-75550500D01*
X123381518Y-75550499D01*
X123475304Y-75535646D01*
X123588342Y-75478050D01*
X123678050Y-75388342D01*
X123735646Y-75275304D01*
X123735646Y-75275302D01*
X123735647Y-75275301D01*
X123746282Y-75208147D01*
X123750500Y-75181519D01*
X123750499Y-73943482D01*
X123735646Y-73849696D01*
X123678050Y-73736658D01*
X123678046Y-73736654D01*
X123678045Y-73736652D01*
X123581442Y-73640049D01*
X123582622Y-73638868D01*
X123546842Y-73592470D01*
X123540861Y-73522857D01*
X123573465Y-73461061D01*
X123619056Y-73431297D01*
X123648778Y-73420212D01*
X123761116Y-73336116D01*
X123845212Y-73223778D01*
X123894251Y-73092299D01*
X123900499Y-73034190D01*
X123900500Y-73034173D01*
X123900500Y-72474500D01*
X123920185Y-72407461D01*
X123972989Y-72361706D01*
X124024500Y-72350500D01*
X125170030Y-72350500D01*
X125237069Y-72370185D01*
X125273132Y-72405609D01*
X125364373Y-72542162D01*
X125482837Y-72660626D01*
X125541765Y-72700000D01*
X125622137Y-72753703D01*
X125776918Y-72817816D01*
X125907092Y-72843709D01*
X125941228Y-72850499D01*
X125941232Y-72850500D01*
X125941233Y-72850500D01*
X126658768Y-72850500D01*
X126658769Y-72850499D01*
X126823082Y-72817816D01*
X126977863Y-72753703D01*
X127117162Y-72660626D01*
X127235626Y-72542162D01*
X127328703Y-72402863D01*
X127392816Y-72248082D01*
X127425500Y-72083767D01*
X127425500Y-71916233D01*
X127392816Y-71751918D01*
X127328703Y-71597137D01*
X127241948Y-71467299D01*
X127235626Y-71457837D01*
X127117162Y-71339373D01*
X126977860Y-71246295D01*
X126823082Y-71182184D01*
X126823074Y-71182182D01*
X126658771Y-71149500D01*
X126658767Y-71149500D01*
X125941233Y-71149500D01*
X125941228Y-71149500D01*
X125776925Y-71182182D01*
X125776917Y-71182184D01*
X125622139Y-71246295D01*
X125482837Y-71339373D01*
X125364373Y-71457837D01*
X125273132Y-71594391D01*
X125219520Y-71639196D01*
X125170030Y-71649500D01*
X124329888Y-71649500D01*
X124262849Y-71629815D01*
X124217094Y-71577011D01*
X124207150Y-71507853D01*
X124213706Y-71482166D01*
X124219251Y-71467299D01*
X124225499Y-71409190D01*
X124225500Y-71409173D01*
X124225500Y-70815826D01*
X124225499Y-70815809D01*
X124219251Y-70757700D01*
X124194977Y-70692621D01*
X124170212Y-70626222D01*
X124166655Y-70621471D01*
X124130539Y-70573226D01*
X124086116Y-70513884D01*
X123992374Y-70443709D01*
X123973780Y-70429789D01*
X123973778Y-70429788D01*
X123947012Y-70419805D01*
X123842299Y-70380748D01*
X123784190Y-70374500D01*
X123784174Y-70374500D01*
X123215826Y-70374500D01*
X123215809Y-70374500D01*
X123157704Y-70380748D01*
X123157697Y-70380750D01*
X123127649Y-70391957D01*
X123057957Y-70396940D01*
X122996637Y-70363455D01*
X122708474Y-70075292D01*
X122674989Y-70013969D01*
X122673685Y-70007030D01*
X122660646Y-69924696D01*
X122603050Y-69811658D01*
X122603046Y-69811654D01*
X122603045Y-69811652D01*
X122513347Y-69721954D01*
X122513344Y-69721952D01*
X122513342Y-69721950D01*
X122414276Y-69671473D01*
X122400301Y-69664352D01*
X122306524Y-69649500D01*
X121068482Y-69649500D01*
X120974696Y-69664354D01*
X120960724Y-69671473D01*
X120892055Y-69684367D01*
X120827315Y-69658088D01*
X120787060Y-69600981D01*
X120784232Y-69534960D01*
X120784120Y-69534943D01*
X120784207Y-69534389D01*
X120784070Y-69531175D01*
X120785519Y-69526105D01*
X120785646Y-69525304D01*
X120800500Y-69431519D01*
X120800499Y-69068482D01*
X120785646Y-68974696D01*
X120728050Y-68861658D01*
X120728046Y-68861654D01*
X120728045Y-68861652D01*
X120638347Y-68771954D01*
X120638344Y-68771952D01*
X120638342Y-68771950D01*
X120525304Y-68714354D01*
X120525303Y-68714353D01*
X120525300Y-68714352D01*
X120454602Y-68703155D01*
X120391467Y-68673226D01*
X120354536Y-68613914D01*
X120350000Y-68580682D01*
X120350000Y-68319316D01*
X120369685Y-68252277D01*
X120422489Y-68206522D01*
X120454600Y-68196843D01*
X120525304Y-68185646D01*
X120638342Y-68128050D01*
X120728050Y-68038342D01*
X120785646Y-67925304D01*
X120785646Y-67925302D01*
X120785647Y-67925301D01*
X120800499Y-67831524D01*
X120800500Y-67831519D01*
X120800499Y-67468482D01*
X120785646Y-67374696D01*
X120785645Y-67374694D01*
X120784119Y-67365057D01*
X120786142Y-67364736D01*
X120784506Y-67307494D01*
X120820584Y-67247660D01*
X120883284Y-67216830D01*
X120952698Y-67224792D01*
X120960708Y-67228519D01*
X120974696Y-67235646D01*
X120974698Y-67235646D01*
X120974700Y-67235647D01*
X120974698Y-67235647D01*
X121068475Y-67250499D01*
X121068481Y-67250500D01*
X122306518Y-67250499D01*
X122306520Y-67250499D01*
X122318181Y-67248652D01*
X122387475Y-67257606D01*
X122425262Y-67283444D01*
X122738181Y-67596363D01*
X122771666Y-67657686D01*
X122774500Y-67684044D01*
X122774500Y-67909190D01*
X122780748Y-67967299D01*
X122807248Y-68038347D01*
X122829788Y-68098778D01*
X122913884Y-68211116D01*
X123026222Y-68295212D01*
X123118594Y-68329665D01*
X123157700Y-68344251D01*
X123215809Y-68350499D01*
X123215826Y-68350500D01*
X123784174Y-68350500D01*
X123788961Y-68349985D01*
X123857721Y-68362383D01*
X123889910Y-68385592D01*
X125168455Y-69664137D01*
X125201940Y-69725460D01*
X125202392Y-69776009D01*
X125174501Y-69916232D01*
X125174500Y-69916235D01*
X125174500Y-70083771D01*
X125207182Y-70248074D01*
X125207184Y-70248082D01*
X125271295Y-70402860D01*
X125364373Y-70542162D01*
X125482837Y-70660626D01*
X125566953Y-70716830D01*
X125622137Y-70753703D01*
X125622138Y-70753703D01*
X125622139Y-70753704D01*
X125657201Y-70768227D01*
X125776918Y-70817816D01*
X125941228Y-70850499D01*
X125941232Y-70850500D01*
X125941233Y-70850500D01*
X126658768Y-70850500D01*
X126658769Y-70850499D01*
X126823082Y-70817816D01*
X126977863Y-70753703D01*
X127117162Y-70660626D01*
X127235626Y-70542162D01*
X127328703Y-70402863D01*
X127392816Y-70248082D01*
X127425500Y-70083767D01*
X127425500Y-69916233D01*
X127392816Y-69751918D01*
X127328703Y-69597137D01*
X127297537Y-69550494D01*
X127235626Y-69457837D01*
X127117162Y-69339373D01*
X126977860Y-69246295D01*
X126823082Y-69182184D01*
X126823074Y-69182182D01*
X126658771Y-69149500D01*
X126658767Y-69149500D01*
X125941233Y-69149500D01*
X125941228Y-69149500D01*
X125776913Y-69182184D01*
X125772032Y-69183665D01*
X125702165Y-69184283D01*
X125648365Y-69152683D01*
X124261819Y-67766137D01*
X124228334Y-67704814D01*
X124225500Y-67678456D01*
X124225500Y-67315826D01*
X124225499Y-67315809D01*
X124219251Y-67257700D01*
X124204007Y-67216830D01*
X124170212Y-67126222D01*
X124166655Y-67121471D01*
X124130539Y-67073226D01*
X124086116Y-67013884D01*
X124018612Y-66963351D01*
X123973780Y-66929789D01*
X123973778Y-66929788D01*
X123947012Y-66919805D01*
X123842299Y-66880748D01*
X123784190Y-66874500D01*
X123784174Y-66874500D01*
X123215826Y-66874500D01*
X123215809Y-66874500D01*
X123157704Y-66880748D01*
X123157697Y-66880750D01*
X123127649Y-66891957D01*
X123057957Y-66896940D01*
X122996637Y-66863455D01*
X122708474Y-66575292D01*
X122674989Y-66513969D01*
X122673685Y-66507030D01*
X122660646Y-66424696D01*
X122603050Y-66311658D01*
X122603046Y-66311654D01*
X122603045Y-66311652D01*
X122513347Y-66221954D01*
X122513344Y-66221952D01*
X122513342Y-66221950D01*
X122414276Y-66171473D01*
X122400301Y-66164352D01*
X122306524Y-66149500D01*
X121068482Y-66149500D01*
X120974696Y-66164354D01*
X120960724Y-66171473D01*
X120892055Y-66184367D01*
X120827315Y-66158088D01*
X120787060Y-66100981D01*
X120784232Y-66034960D01*
X120784120Y-66034943D01*
X120784207Y-66034389D01*
X120784070Y-66031175D01*
X120785519Y-66026105D01*
X120800499Y-65931524D01*
X120800500Y-65931519D01*
X120800499Y-65568482D01*
X120785646Y-65474696D01*
X120728050Y-65361658D01*
X120728046Y-65361654D01*
X120728045Y-65361652D01*
X120638347Y-65271954D01*
X120638344Y-65271952D01*
X120638342Y-65271950D01*
X120525304Y-65214354D01*
X120525303Y-65214353D01*
X120525300Y-65214352D01*
X120454602Y-65203155D01*
X120391467Y-65173226D01*
X120354536Y-65113914D01*
X120350000Y-65080682D01*
X120350000Y-64819316D01*
X120369685Y-64752277D01*
X120422489Y-64706522D01*
X120454600Y-64696843D01*
X120525304Y-64685646D01*
X120638342Y-64628050D01*
X120728050Y-64538342D01*
X120785646Y-64425304D01*
X120785646Y-64425302D01*
X120785647Y-64425301D01*
X120800499Y-64331524D01*
X120800500Y-64331519D01*
X120800499Y-63968482D01*
X120785646Y-63874696D01*
X120785645Y-63874694D01*
X120784119Y-63865057D01*
X120786142Y-63864736D01*
X120784506Y-63807494D01*
X120820584Y-63747660D01*
X120883284Y-63716830D01*
X120952698Y-63724792D01*
X120960708Y-63728519D01*
X120974696Y-63735646D01*
X120974698Y-63735646D01*
X120974700Y-63735647D01*
X120974698Y-63735647D01*
X121068475Y-63750499D01*
X121068481Y-63750500D01*
X122306518Y-63750499D01*
X122306520Y-63750499D01*
X122318181Y-63748652D01*
X122387475Y-63757606D01*
X122425262Y-63783444D01*
X122738181Y-64096363D01*
X122771666Y-64157686D01*
X122774500Y-64184044D01*
X122774500Y-64409190D01*
X122780748Y-64467299D01*
X122807248Y-64538347D01*
X122829788Y-64598778D01*
X122913884Y-64711116D01*
X123026222Y-64795212D01*
X123118594Y-64829665D01*
X123157700Y-64844251D01*
X123215809Y-64850499D01*
X123215826Y-64850500D01*
X123784174Y-64850500D01*
X123784190Y-64850499D01*
X123842299Y-64844251D01*
X123973778Y-64795212D01*
X124086116Y-64711116D01*
X124170212Y-64598778D01*
X124219251Y-64467299D01*
X124223766Y-64425304D01*
X124225499Y-64409190D01*
X124225500Y-64409173D01*
X124225500Y-63815826D01*
X124225499Y-63815809D01*
X124221682Y-63780315D01*
X124219251Y-63757701D01*
X124216565Y-63750500D01*
X124214836Y-63745863D01*
X124209849Y-63676172D01*
X124243330Y-63614850D01*
X124962819Y-62895360D01*
X125024142Y-62861876D01*
X125093834Y-62866860D01*
X125149767Y-62908732D01*
X125174184Y-62974196D01*
X125174500Y-62983042D01*
X125174500Y-63046271D01*
X125207182Y-63210574D01*
X125207184Y-63210582D01*
X125271295Y-63365360D01*
X125364373Y-63504662D01*
X125482837Y-63623126D01*
X125565037Y-63678050D01*
X125622137Y-63716203D01*
X125622138Y-63716203D01*
X125622139Y-63716204D01*
X125642872Y-63724792D01*
X125776918Y-63780316D01*
X125941228Y-63812999D01*
X125941232Y-63813000D01*
X125941233Y-63813000D01*
X126658768Y-63813000D01*
X126658769Y-63812999D01*
X126823082Y-63780316D01*
X126977863Y-63716203D01*
X127117162Y-63623126D01*
X127235626Y-63504662D01*
X127328703Y-63365363D01*
X127392816Y-63210582D01*
X127425500Y-63046267D01*
X127425500Y-62878733D01*
X127392816Y-62714418D01*
X127328703Y-62559637D01*
X127297537Y-62512994D01*
X127235626Y-62420337D01*
X127117162Y-62301873D01*
X126977860Y-62208795D01*
X126823082Y-62144684D01*
X126823074Y-62144682D01*
X126658771Y-62112000D01*
X126658767Y-62112000D01*
X126045543Y-62112000D01*
X125978504Y-62092315D01*
X125932749Y-62039511D01*
X125922805Y-61970353D01*
X125951830Y-61906797D01*
X125957862Y-61900319D01*
X126008862Y-61849319D01*
X126070185Y-61815834D01*
X126096543Y-61813000D01*
X126658768Y-61813000D01*
X126658769Y-61812999D01*
X126823082Y-61780316D01*
X126977863Y-61716203D01*
X127117162Y-61623126D01*
X127235626Y-61504662D01*
X127328703Y-61365363D01*
X127392816Y-61210582D01*
X127425500Y-61046267D01*
X127425500Y-60878733D01*
X127392816Y-60714418D01*
X127328703Y-60559637D01*
X127267795Y-60468482D01*
X127235626Y-60420337D01*
X127117162Y-60301873D01*
X126977860Y-60208795D01*
X126823082Y-60144684D01*
X126823074Y-60144682D01*
X126658771Y-60112000D01*
X126658767Y-60112000D01*
X125941233Y-60112000D01*
X125941228Y-60112000D01*
X125776925Y-60144682D01*
X125776917Y-60144684D01*
X125622139Y-60208795D01*
X125482837Y-60301873D01*
X125364373Y-60420337D01*
X125271295Y-60559639D01*
X125207184Y-60714417D01*
X125207182Y-60714425D01*
X125174500Y-60878728D01*
X125174500Y-61046271D01*
X125207182Y-61210574D01*
X125207184Y-61210582D01*
X125271295Y-61365359D01*
X125271300Y-61365369D01*
X125306947Y-61418718D01*
X125327825Y-61485396D01*
X125309340Y-61552776D01*
X125291526Y-61575290D01*
X123528637Y-63338181D01*
X123467314Y-63371666D01*
X123440956Y-63374500D01*
X123215809Y-63374500D01*
X123157704Y-63380748D01*
X123157697Y-63380750D01*
X123127649Y-63391957D01*
X123057957Y-63396940D01*
X122996637Y-63363455D01*
X122708474Y-63075292D01*
X122674989Y-63013969D01*
X122673685Y-63007030D01*
X122660646Y-62924696D01*
X122603050Y-62811658D01*
X122603046Y-62811654D01*
X122603045Y-62811652D01*
X122513347Y-62721954D01*
X122513344Y-62721952D01*
X122513342Y-62721950D01*
X122414276Y-62671473D01*
X122400301Y-62664352D01*
X122306524Y-62649500D01*
X121068482Y-62649500D01*
X120974696Y-62664354D01*
X120960724Y-62671473D01*
X120892055Y-62684367D01*
X120827315Y-62658088D01*
X120787060Y-62600981D01*
X120784232Y-62534960D01*
X120784120Y-62534943D01*
X120784207Y-62534389D01*
X120784070Y-62531175D01*
X120785519Y-62526105D01*
X120785646Y-62525304D01*
X120800500Y-62431519D01*
X120800499Y-62068482D01*
X120785646Y-61974696D01*
X120728050Y-61861658D01*
X120728046Y-61861654D01*
X120728045Y-61861652D01*
X120638347Y-61771954D01*
X120638344Y-61771952D01*
X120638342Y-61771950D01*
X120525304Y-61714354D01*
X120525303Y-61714353D01*
X120525300Y-61714352D01*
X120454602Y-61703155D01*
X120391467Y-61673226D01*
X120354536Y-61613914D01*
X120350000Y-61580682D01*
X120350000Y-61319316D01*
X120369685Y-61252277D01*
X120422489Y-61206522D01*
X120454600Y-61196843D01*
X120525304Y-61185646D01*
X120638342Y-61128050D01*
X120728050Y-61038342D01*
X120785646Y-60925304D01*
X120785646Y-60925302D01*
X120785647Y-60925301D01*
X120800499Y-60831524D01*
X120800500Y-60831519D01*
X120800499Y-60468482D01*
X120785646Y-60374696D01*
X120785645Y-60374694D01*
X120784119Y-60365057D01*
X120786142Y-60364736D01*
X120784506Y-60307494D01*
X120820584Y-60247660D01*
X120883284Y-60216830D01*
X120952698Y-60224792D01*
X120960708Y-60228519D01*
X120974696Y-60235646D01*
X120974698Y-60235646D01*
X120974700Y-60235647D01*
X120974698Y-60235647D01*
X121068475Y-60250499D01*
X121068481Y-60250500D01*
X122306518Y-60250499D01*
X122306522Y-60250499D01*
X122318859Y-60248544D01*
X122328968Y-60246943D01*
X122398261Y-60255894D01*
X122436052Y-60281734D01*
X122750681Y-60596363D01*
X122784166Y-60657686D01*
X122787000Y-60684044D01*
X122787000Y-60909190D01*
X122793248Y-60967299D01*
X122819748Y-61038347D01*
X122842288Y-61098778D01*
X122926384Y-61211116D01*
X123038722Y-61295212D01*
X123131094Y-61329665D01*
X123170200Y-61344251D01*
X123228309Y-61350499D01*
X123228326Y-61350500D01*
X123796674Y-61350500D01*
X123796690Y-61350499D01*
X123854799Y-61344251D01*
X123986278Y-61295212D01*
X124098616Y-61211116D01*
X124182712Y-61098778D01*
X124231751Y-60967299D01*
X124232213Y-60963000D01*
X124237999Y-60909190D01*
X124238000Y-60909173D01*
X124238000Y-60709042D01*
X124257685Y-60642003D01*
X124274314Y-60621365D01*
X125290016Y-59605663D01*
X125351337Y-59572180D01*
X125421029Y-59577164D01*
X125465376Y-59605665D01*
X125482837Y-59623126D01*
X125575494Y-59685037D01*
X125622137Y-59716203D01*
X125776918Y-59780316D01*
X125941228Y-59812999D01*
X125941232Y-59813000D01*
X125941233Y-59813000D01*
X126658768Y-59813000D01*
X126658769Y-59812999D01*
X126823082Y-59780316D01*
X126977863Y-59716203D01*
X127117162Y-59623126D01*
X127235626Y-59504662D01*
X127328703Y-59365363D01*
X127392816Y-59210582D01*
X127425500Y-59046267D01*
X127425500Y-58878733D01*
X127392816Y-58714418D01*
X127328703Y-58559637D01*
X127271947Y-58474696D01*
X127235626Y-58420337D01*
X127117162Y-58301873D01*
X126977860Y-58208795D01*
X126823082Y-58144684D01*
X126823074Y-58144682D01*
X126658771Y-58112000D01*
X126658767Y-58112000D01*
X125941233Y-58112000D01*
X125941228Y-58112000D01*
X125776925Y-58144682D01*
X125776917Y-58144684D01*
X125622139Y-58208795D01*
X125482837Y-58301873D01*
X125364373Y-58420337D01*
X125271296Y-58559637D01*
X125228843Y-58662127D01*
X125201963Y-58702354D01*
X124034070Y-59870246D01*
X123972747Y-59903731D01*
X123903057Y-59898747D01*
X123854806Y-59880750D01*
X123854795Y-59880748D01*
X123796690Y-59874500D01*
X123796674Y-59874500D01*
X123228326Y-59874500D01*
X123228309Y-59874500D01*
X123170204Y-59880748D01*
X123170197Y-59880750D01*
X123140149Y-59891957D01*
X123070457Y-59896940D01*
X123009137Y-59863455D01*
X122706122Y-59560440D01*
X122672637Y-59499117D01*
X122671332Y-59492174D01*
X122660646Y-59424696D01*
X122603050Y-59311658D01*
X122603046Y-59311654D01*
X122603045Y-59311652D01*
X122513347Y-59221954D01*
X122513344Y-59221952D01*
X122513342Y-59221950D01*
X122414276Y-59171473D01*
X122400301Y-59164352D01*
X122306524Y-59149500D01*
X121068482Y-59149500D01*
X120974696Y-59164354D01*
X120960724Y-59171473D01*
X120892055Y-59184367D01*
X120827315Y-59158088D01*
X120787060Y-59100981D01*
X120784232Y-59034960D01*
X120784120Y-59034943D01*
X120784207Y-59034389D01*
X120784070Y-59031175D01*
X120785519Y-59026105D01*
X120800499Y-58931524D01*
X120800500Y-58931519D01*
X120800499Y-58568482D01*
X120785646Y-58474696D01*
X120728050Y-58361658D01*
X120728046Y-58361654D01*
X120728045Y-58361652D01*
X120638347Y-58271954D01*
X120638344Y-58271952D01*
X120638342Y-58271950D01*
X120525304Y-58214354D01*
X120525303Y-58214353D01*
X120525300Y-58214352D01*
X120454602Y-58203155D01*
X120391467Y-58173226D01*
X120354536Y-58113914D01*
X120350000Y-58080682D01*
X120350000Y-57821296D01*
X120369685Y-57754257D01*
X120422489Y-57708502D01*
X120454600Y-57698823D01*
X120537804Y-57685646D01*
X120650842Y-57628050D01*
X120740550Y-57538342D01*
X120798146Y-57425304D01*
X120798146Y-57425302D01*
X120798147Y-57425301D01*
X120812999Y-57331524D01*
X120813000Y-57331519D01*
X120812999Y-56968482D01*
X120798146Y-56874696D01*
X120798145Y-56874694D01*
X120796619Y-56865057D01*
X120798642Y-56864736D01*
X120797006Y-56807494D01*
X120833084Y-56747660D01*
X120895784Y-56716830D01*
X120965198Y-56724792D01*
X120973208Y-56728519D01*
X120987196Y-56735646D01*
X120987198Y-56735646D01*
X120987200Y-56735647D01*
X120987198Y-56735647D01*
X121080975Y-56750499D01*
X121080981Y-56750500D01*
X122319018Y-56750499D01*
X122319883Y-56750362D01*
X122320217Y-56750405D01*
X122323882Y-56750117D01*
X122323942Y-56750886D01*
X122389177Y-56759312D01*
X122426971Y-56785153D01*
X122738181Y-57096363D01*
X122771666Y-57157686D01*
X122774500Y-57184044D01*
X122774500Y-57409190D01*
X122780748Y-57467299D01*
X122807248Y-57538347D01*
X122829788Y-57598778D01*
X122913884Y-57711116D01*
X123026222Y-57795212D01*
X123111385Y-57826976D01*
X123157700Y-57844251D01*
X123215809Y-57850499D01*
X123215826Y-57850500D01*
X123784174Y-57850500D01*
X123784190Y-57850499D01*
X123842299Y-57844251D01*
X123973778Y-57795212D01*
X124086116Y-57711116D01*
X124170212Y-57598778D01*
X124190768Y-57543664D01*
X124232639Y-57487733D01*
X124298103Y-57463316D01*
X124306949Y-57463000D01*
X125271535Y-57463000D01*
X125338574Y-57482685D01*
X125359290Y-57501130D01*
X125360066Y-57500355D01*
X125482837Y-57623126D01*
X125575494Y-57685037D01*
X125622137Y-57716203D01*
X125776918Y-57780316D01*
X125941228Y-57812999D01*
X125941232Y-57813000D01*
X125941233Y-57813000D01*
X126658768Y-57813000D01*
X126658769Y-57812999D01*
X126823082Y-57780316D01*
X126977863Y-57716203D01*
X127117162Y-57623126D01*
X127235626Y-57504662D01*
X127328703Y-57365363D01*
X127392816Y-57210582D01*
X127425500Y-57046267D01*
X127425500Y-56878733D01*
X127392816Y-56714418D01*
X127328703Y-56559637D01*
X127274624Y-56478702D01*
X127235626Y-56420337D01*
X127117162Y-56301873D01*
X126977860Y-56208795D01*
X126823082Y-56144684D01*
X126823074Y-56144682D01*
X126658771Y-56112000D01*
X126658767Y-56112000D01*
X125941233Y-56112000D01*
X125941228Y-56112000D01*
X125776925Y-56144682D01*
X125776917Y-56144684D01*
X125622139Y-56208795D01*
X125482837Y-56301873D01*
X125364373Y-56420337D01*
X125271295Y-56559639D01*
X125219182Y-56685453D01*
X125175341Y-56739856D01*
X125109047Y-56761921D01*
X125104621Y-56762000D01*
X124306949Y-56762000D01*
X124239910Y-56742315D01*
X124194155Y-56689511D01*
X124190773Y-56681349D01*
X124170212Y-56626222D01*
X124166655Y-56621471D01*
X124120368Y-56559639D01*
X124086116Y-56513884D01*
X124018612Y-56463351D01*
X123973780Y-56429789D01*
X123973778Y-56429788D01*
X123947012Y-56419805D01*
X123842299Y-56380748D01*
X123784190Y-56374500D01*
X123784174Y-56374500D01*
X123215826Y-56374500D01*
X123215809Y-56374500D01*
X123157704Y-56380748D01*
X123157697Y-56380750D01*
X123127649Y-56391957D01*
X123057957Y-56396940D01*
X122996637Y-56363455D01*
X122723327Y-56090145D01*
X122689842Y-56028822D01*
X122688534Y-56021861D01*
X122680354Y-55970212D01*
X122673146Y-55924696D01*
X122615550Y-55811658D01*
X122615546Y-55811654D01*
X122615545Y-55811652D01*
X122525847Y-55721954D01*
X122525844Y-55721952D01*
X122525842Y-55721950D01*
X122426776Y-55671473D01*
X122412801Y-55664352D01*
X122319024Y-55649500D01*
X121080982Y-55649500D01*
X120987196Y-55664354D01*
X120973224Y-55671473D01*
X120904555Y-55684367D01*
X120839815Y-55658088D01*
X120799560Y-55600981D01*
X120796732Y-55534960D01*
X120796620Y-55534943D01*
X120796707Y-55534389D01*
X120796570Y-55531175D01*
X120798019Y-55526105D01*
X120806062Y-55475326D01*
X120813000Y-55431519D01*
X120812999Y-55105749D01*
X120832683Y-55038711D01*
X120885487Y-54992956D01*
X120936999Y-54981750D01*
X129534108Y-54981750D01*
X129593039Y-54981750D01*
X129606922Y-54982530D01*
G37*
G04 #@! TD.AperFunction*
M02*
