G04 #@! TF.GenerationSoftware,KiCad,Pcbnew,8.0.5*
G04 #@! TF.CreationDate,2025-02-14T04:05:40-05:00*
G04 #@! TF.ProjectId,UTSM Adaptor,5554534d-2041-4646-9170-746f722e6b69,rev?*
G04 #@! TF.SameCoordinates,Original*
G04 #@! TF.FileFunction,Copper,L2,Bot*
G04 #@! TF.FilePolarity,Positive*
%FSLAX46Y46*%
G04 Gerber Fmt 4.6, Leading zero omitted, Abs format (unit mm)*
G04 Created by KiCad (PCBNEW 8.0.5) date 2025-02-14 04:05:40*
%MOMM*%
%LPD*%
G01*
G04 APERTURE LIST*
G04 Aperture macros list*
%AMRoundRect*
0 Rectangle with rounded corners*
0 $1 Rounding radius*
0 $2 $3 $4 $5 $6 $7 $8 $9 X,Y pos of 4 corners*
0 Add a 4 corners polygon primitive as box body*
4,1,4,$2,$3,$4,$5,$6,$7,$8,$9,$2,$3,0*
0 Add four circle primitives for the rounded corners*
1,1,$1+$1,$2,$3*
1,1,$1+$1,$4,$5*
1,1,$1+$1,$6,$7*
1,1,$1+$1,$8,$9*
0 Add four rect primitives between the rounded corners*
20,1,$1+$1,$2,$3,$4,$5,0*
20,1,$1+$1,$4,$5,$6,$7,0*
20,1,$1+$1,$6,$7,$8,$9,0*
20,1,$1+$1,$8,$9,$2,$3,0*%
G04 Aperture macros list end*
G04 #@! TA.AperFunction,ComponentPad*
%ADD10RoundRect,0.250000X0.625000X-0.350000X0.625000X0.350000X-0.625000X0.350000X-0.625000X-0.350000X0*%
G04 #@! TD*
G04 #@! TA.AperFunction,ComponentPad*
%ADD11O,1.750000X1.200000*%
G04 #@! TD*
G04 #@! TA.AperFunction,ComponentPad*
%ADD12R,1.700000X1.700000*%
G04 #@! TD*
G04 #@! TA.AperFunction,ComponentPad*
%ADD13O,1.700000X1.700000*%
G04 #@! TD*
G04 #@! TA.AperFunction,ViaPad*
%ADD14C,0.600000*%
G04 #@! TD*
G04 #@! TA.AperFunction,Conductor*
%ADD15C,0.200000*%
G04 #@! TD*
G04 APERTURE END LIST*
D10*
X126300000Y-64962500D03*
D11*
X126300000Y-62962500D03*
X126300000Y-60962500D03*
X126300000Y-58962500D03*
X126300000Y-56962500D03*
D10*
X126300000Y-78000000D03*
D11*
X126300000Y-76000000D03*
X126300000Y-74000000D03*
X126300000Y-72000000D03*
X126300000Y-70000000D03*
D12*
X115050000Y-56350000D03*
D13*
X112510000Y-56350000D03*
X115050000Y-58890000D03*
X112510000Y-58890000D03*
X115050000Y-61430000D03*
X112510000Y-61430000D03*
X115050000Y-63970000D03*
X112510000Y-63970000D03*
X115050000Y-66510000D03*
X112510000Y-66510000D03*
D14*
X119100000Y-70300000D03*
X119500000Y-72700000D03*
X119050000Y-66750000D03*
D15*
X119100000Y-70300000D02*
X118450000Y-69650000D01*
X118500000Y-66451471D02*
X118500000Y-62500000D01*
X118450000Y-69650000D02*
X118450000Y-66501471D01*
X118450000Y-66501471D02*
X118500000Y-66451471D01*
X118500000Y-62500000D02*
X116040000Y-60040000D01*
X113660000Y-60040000D02*
X112510000Y-58890000D01*
X116040000Y-60040000D02*
X113660000Y-60040000D01*
X119500000Y-72700000D02*
X119500000Y-71800000D01*
X113900000Y-62820000D02*
X112510000Y-61430000D01*
X116570000Y-62820000D02*
X113900000Y-62820000D01*
X118000000Y-70300000D02*
X118000000Y-64250000D01*
X118000000Y-64250000D02*
X116570000Y-62820000D01*
X119500000Y-71800000D02*
X118000000Y-70300000D01*
X119050000Y-66750000D02*
X119050000Y-61263654D01*
X113660000Y-57500000D02*
X112510000Y-56350000D01*
X115286346Y-57500000D02*
X113660000Y-57500000D01*
X119050000Y-61263654D02*
X115286346Y-57500000D01*
G04 #@! TA.AperFunction,Conductor*
G36*
X129606922Y-54982530D02*
G01*
X129618905Y-54983880D01*
X129697259Y-54992708D01*
X129724325Y-54998886D01*
X129803526Y-55026600D01*
X129828539Y-55038647D01*
X129899579Y-55083287D01*
X129921284Y-55100595D01*
X129980619Y-55159933D01*
X129997927Y-55181638D01*
X130030698Y-55233797D01*
X130042564Y-55252683D01*
X130054610Y-55277700D01*
X130082318Y-55356894D01*
X130088496Y-55383967D01*
X130098720Y-55474752D01*
X130099499Y-55488633D01*
X130099497Y-55555356D01*
X130099500Y-55555401D01*
X130099500Y-79407758D01*
X130099497Y-79407808D01*
X130099499Y-79474312D01*
X130098720Y-79488194D01*
X130088544Y-79578546D01*
X130082367Y-79605614D01*
X130054655Y-79684821D01*
X130042609Y-79709837D01*
X129997964Y-79780893D01*
X129980652Y-79802603D01*
X129921323Y-79861935D01*
X129899614Y-79879248D01*
X129828559Y-79923897D01*
X129803541Y-79935946D01*
X129724339Y-79963661D01*
X129697268Y-79969840D01*
X129629278Y-79977501D01*
X129607365Y-79979970D01*
X129593483Y-79980750D01*
X111606961Y-79980750D01*
X111593078Y-79979970D01*
X111559132Y-79976145D01*
X111502741Y-79969791D01*
X111475670Y-79963612D01*
X111396476Y-79935900D01*
X111371458Y-79923851D01*
X111300422Y-79879214D01*
X111278713Y-79861902D01*
X111219379Y-79802565D01*
X111202073Y-79780862D01*
X111157434Y-79709815D01*
X111145389Y-79684799D01*
X111117681Y-79605605D01*
X111111503Y-79578532D01*
X111101279Y-79487747D01*
X111100500Y-79473864D01*
X111100503Y-79415383D01*
X111100501Y-79415378D01*
X111100502Y-79407808D01*
X111100500Y-79407758D01*
X111100500Y-77602135D01*
X125174500Y-77602135D01*
X125174500Y-78397870D01*
X125174501Y-78397876D01*
X125180908Y-78457483D01*
X125231202Y-78592328D01*
X125231206Y-78592335D01*
X125317452Y-78707544D01*
X125317455Y-78707547D01*
X125432664Y-78793793D01*
X125432671Y-78793797D01*
X125567517Y-78844091D01*
X125567516Y-78844091D01*
X125574444Y-78844835D01*
X125627127Y-78850500D01*
X126972872Y-78850499D01*
X127032483Y-78844091D01*
X127167331Y-78793796D01*
X127282546Y-78707546D01*
X127368796Y-78592331D01*
X127419091Y-78457483D01*
X127425500Y-78397873D01*
X127425499Y-77602128D01*
X127419091Y-77542517D01*
X127368796Y-77407669D01*
X127368795Y-77407668D01*
X127368793Y-77407664D01*
X127282547Y-77292455D01*
X127282544Y-77292452D01*
X127167335Y-77206206D01*
X127167328Y-77206202D01*
X127032482Y-77155908D01*
X127032483Y-77155908D01*
X126972883Y-77149501D01*
X126972881Y-77149500D01*
X126972873Y-77149500D01*
X126972864Y-77149500D01*
X125627129Y-77149500D01*
X125627123Y-77149501D01*
X125567516Y-77155908D01*
X125432671Y-77206202D01*
X125432664Y-77206206D01*
X125317455Y-77292452D01*
X125317452Y-77292455D01*
X125231206Y-77407664D01*
X125231202Y-77407671D01*
X125180908Y-77542517D01*
X125174501Y-77602116D01*
X125174501Y-77602123D01*
X125174500Y-77602135D01*
X111100500Y-77602135D01*
X111100500Y-73916228D01*
X125174500Y-73916228D01*
X125174500Y-74083771D01*
X125207182Y-74248074D01*
X125207184Y-74248082D01*
X125271295Y-74402860D01*
X125364373Y-74542162D01*
X125482837Y-74660626D01*
X125575494Y-74722537D01*
X125622137Y-74753703D01*
X125776918Y-74817816D01*
X125941228Y-74850499D01*
X125941232Y-74850500D01*
X125941233Y-74850500D01*
X126658768Y-74850500D01*
X126658769Y-74850499D01*
X126823082Y-74817816D01*
X126977863Y-74753703D01*
X127117162Y-74660626D01*
X127235626Y-74542162D01*
X127328703Y-74402863D01*
X127392816Y-74248082D01*
X127425500Y-74083767D01*
X127425500Y-73916233D01*
X127392816Y-73751918D01*
X127328703Y-73597137D01*
X127297537Y-73550494D01*
X127235626Y-73457837D01*
X127117162Y-73339373D01*
X126977860Y-73246295D01*
X126823082Y-73182184D01*
X126823074Y-73182182D01*
X126658771Y-73149500D01*
X126658767Y-73149500D01*
X125941233Y-73149500D01*
X125941228Y-73149500D01*
X125776925Y-73182182D01*
X125776917Y-73182184D01*
X125622139Y-73246295D01*
X125482837Y-73339373D01*
X125364373Y-73457837D01*
X125271295Y-73597139D01*
X125207184Y-73751917D01*
X125207182Y-73751925D01*
X125174500Y-73916228D01*
X111100500Y-73916228D01*
X111100500Y-66509999D01*
X111404785Y-66509999D01*
X111404785Y-66510000D01*
X111423602Y-66713082D01*
X111479417Y-66909247D01*
X111479422Y-66909260D01*
X111570327Y-67091821D01*
X111693237Y-67254581D01*
X111843958Y-67391980D01*
X111843960Y-67391982D01*
X111879193Y-67413797D01*
X112017363Y-67499348D01*
X112207544Y-67573024D01*
X112408024Y-67610500D01*
X112408026Y-67610500D01*
X112611974Y-67610500D01*
X112611976Y-67610500D01*
X112812456Y-67573024D01*
X113002637Y-67499348D01*
X113176041Y-67391981D01*
X113326764Y-67254579D01*
X113449673Y-67091821D01*
X113540582Y-66909250D01*
X113596397Y-66713083D01*
X113615215Y-66510000D01*
X113615215Y-66509999D01*
X113944785Y-66509999D01*
X113944785Y-66510000D01*
X113963602Y-66713082D01*
X114019417Y-66909247D01*
X114019422Y-66909260D01*
X114110327Y-67091821D01*
X114233237Y-67254581D01*
X114383958Y-67391980D01*
X114383960Y-67391982D01*
X114419193Y-67413797D01*
X114557363Y-67499348D01*
X114747544Y-67573024D01*
X114948024Y-67610500D01*
X114948026Y-67610500D01*
X115151974Y-67610500D01*
X115151976Y-67610500D01*
X115352456Y-67573024D01*
X115542637Y-67499348D01*
X115716041Y-67391981D01*
X115866764Y-67254579D01*
X115989673Y-67091821D01*
X116080582Y-66909250D01*
X116136397Y-66713083D01*
X116155215Y-66510000D01*
X116136397Y-66306917D01*
X116080582Y-66110750D01*
X115989673Y-65928179D01*
X115902693Y-65812999D01*
X115866762Y-65765418D01*
X115716041Y-65628019D01*
X115716039Y-65628017D01*
X115542642Y-65520655D01*
X115542635Y-65520651D01*
X115447546Y-65483814D01*
X115352456Y-65446976D01*
X115151976Y-65409500D01*
X114948024Y-65409500D01*
X114747544Y-65446976D01*
X114747541Y-65446976D01*
X114747541Y-65446977D01*
X114557364Y-65520651D01*
X114557357Y-65520655D01*
X114383960Y-65628017D01*
X114383958Y-65628019D01*
X114233237Y-65765418D01*
X114110327Y-65928178D01*
X114019422Y-66110739D01*
X114019417Y-66110752D01*
X113963602Y-66306917D01*
X113944785Y-66509999D01*
X113615215Y-66509999D01*
X113596397Y-66306917D01*
X113540582Y-66110750D01*
X113449673Y-65928179D01*
X113362693Y-65812999D01*
X113326762Y-65765418D01*
X113176041Y-65628019D01*
X113176039Y-65628017D01*
X113002642Y-65520655D01*
X113002635Y-65520651D01*
X112907546Y-65483814D01*
X112812456Y-65446976D01*
X112611976Y-65409500D01*
X112408024Y-65409500D01*
X112207544Y-65446976D01*
X112207541Y-65446976D01*
X112207541Y-65446977D01*
X112017364Y-65520651D01*
X112017357Y-65520655D01*
X111843960Y-65628017D01*
X111843958Y-65628019D01*
X111693237Y-65765418D01*
X111570327Y-65928178D01*
X111479422Y-66110739D01*
X111479417Y-66110752D01*
X111423602Y-66306917D01*
X111404785Y-66509999D01*
X111100500Y-66509999D01*
X111100500Y-56349999D01*
X111404785Y-56349999D01*
X111404785Y-56350000D01*
X111423602Y-56553082D01*
X111479417Y-56749247D01*
X111479422Y-56749260D01*
X111570327Y-56931821D01*
X111693237Y-57094581D01*
X111843958Y-57231980D01*
X111843960Y-57231982D01*
X111943141Y-57293392D01*
X112017363Y-57339348D01*
X112207544Y-57413024D01*
X112408024Y-57450500D01*
X112408026Y-57450500D01*
X112611974Y-57450500D01*
X112611976Y-57450500D01*
X112812456Y-57413024D01*
X112928037Y-57368247D01*
X112997658Y-57362385D01*
X113059399Y-57395094D01*
X113060511Y-57396193D01*
X113444788Y-57780470D01*
X113501132Y-57813000D01*
X113501134Y-57813001D01*
X113524709Y-57826613D01*
X113524711Y-57826613D01*
X113524712Y-57826614D01*
X113613856Y-57850500D01*
X113613857Y-57850500D01*
X113706144Y-57850500D01*
X114236668Y-57850500D01*
X114303707Y-57870185D01*
X114349462Y-57922989D01*
X114359406Y-57992147D01*
X114330381Y-58055703D01*
X114320206Y-58066137D01*
X114233237Y-58145418D01*
X114110327Y-58308178D01*
X114019422Y-58490739D01*
X114019417Y-58490752D01*
X113963602Y-58686917D01*
X113944785Y-58889999D01*
X113944785Y-58890000D01*
X113963602Y-59093082D01*
X114019417Y-59289247D01*
X114019422Y-59289260D01*
X114110327Y-59471821D01*
X114124639Y-59490773D01*
X114149331Y-59556134D01*
X114134766Y-59624469D01*
X114085569Y-59674081D01*
X114025685Y-59689500D01*
X113856544Y-59689500D01*
X113789505Y-59669815D01*
X113768863Y-59653181D01*
X113558576Y-59442894D01*
X113525091Y-59381571D01*
X113530075Y-59311879D01*
X113535251Y-59299954D01*
X113540582Y-59289250D01*
X113596397Y-59093083D01*
X113615215Y-58890000D01*
X113596397Y-58686917D01*
X113540582Y-58490750D01*
X113449673Y-58308179D01*
X113326764Y-58145421D01*
X113326762Y-58145418D01*
X113176041Y-58008019D01*
X113176039Y-58008017D01*
X113002642Y-57900655D01*
X113002635Y-57900651D01*
X112873176Y-57850499D01*
X112812456Y-57826976D01*
X112611976Y-57789500D01*
X112408024Y-57789500D01*
X112207544Y-57826976D01*
X112207541Y-57826976D01*
X112207541Y-57826977D01*
X112017364Y-57900651D01*
X112017357Y-57900655D01*
X111843960Y-58008017D01*
X111843958Y-58008019D01*
X111693237Y-58145418D01*
X111570327Y-58308178D01*
X111479422Y-58490739D01*
X111479417Y-58490752D01*
X111423602Y-58686917D01*
X111404785Y-58889999D01*
X111404785Y-58890000D01*
X111423602Y-59093082D01*
X111479417Y-59289247D01*
X111479422Y-59289260D01*
X111570327Y-59471821D01*
X111693237Y-59634581D01*
X111843958Y-59771980D01*
X111843960Y-59771982D01*
X111857422Y-59780317D01*
X112017363Y-59879348D01*
X112207544Y-59953024D01*
X112408024Y-59990500D01*
X112408026Y-59990500D01*
X112611974Y-59990500D01*
X112611976Y-59990500D01*
X112812456Y-59953024D01*
X112928037Y-59908247D01*
X112997658Y-59902385D01*
X113059399Y-59935094D01*
X113060511Y-59936193D01*
X113444788Y-60320470D01*
X113524712Y-60366614D01*
X113613856Y-60390500D01*
X113613857Y-60390500D01*
X113706144Y-60390500D01*
X114236668Y-60390500D01*
X114303707Y-60410185D01*
X114349462Y-60462989D01*
X114359406Y-60532147D01*
X114330381Y-60595703D01*
X114320206Y-60606137D01*
X114233237Y-60685418D01*
X114110327Y-60848178D01*
X114019422Y-61030739D01*
X114019417Y-61030752D01*
X113963602Y-61226917D01*
X113944785Y-61429999D01*
X113944785Y-61430000D01*
X113963602Y-61633082D01*
X114019417Y-61829247D01*
X114019422Y-61829260D01*
X114110327Y-62011821D01*
X114233237Y-62174581D01*
X114320206Y-62253863D01*
X114356488Y-62313574D01*
X114354727Y-62383422D01*
X114315484Y-62441229D01*
X114251217Y-62468644D01*
X114236668Y-62469500D01*
X114096544Y-62469500D01*
X114029505Y-62449815D01*
X114008863Y-62433181D01*
X113558576Y-61982894D01*
X113525091Y-61921571D01*
X113530075Y-61851879D01*
X113535251Y-61839954D01*
X113540582Y-61829250D01*
X113596397Y-61633083D01*
X113615215Y-61430000D01*
X113596397Y-61226917D01*
X113540582Y-61030750D01*
X113449673Y-60848179D01*
X113348667Y-60714425D01*
X113326762Y-60685418D01*
X113176041Y-60548019D01*
X113176039Y-60548017D01*
X113002642Y-60440655D01*
X113002635Y-60440651D01*
X112873176Y-60390499D01*
X112812456Y-60366976D01*
X112611976Y-60329500D01*
X112408024Y-60329500D01*
X112207544Y-60366976D01*
X112207541Y-60366976D01*
X112207541Y-60366977D01*
X112017364Y-60440651D01*
X112017357Y-60440655D01*
X111843960Y-60548017D01*
X111843958Y-60548019D01*
X111693237Y-60685418D01*
X111570327Y-60848178D01*
X111479422Y-61030739D01*
X111479417Y-61030752D01*
X111423602Y-61226917D01*
X111404785Y-61429999D01*
X111404785Y-61430000D01*
X111423602Y-61633082D01*
X111479417Y-61829247D01*
X111479422Y-61829260D01*
X111570327Y-62011821D01*
X111693237Y-62174581D01*
X111843958Y-62311980D01*
X111843960Y-62311982D01*
X111869593Y-62327853D01*
X112017363Y-62419348D01*
X112207544Y-62493024D01*
X112408024Y-62530500D01*
X112408026Y-62530500D01*
X112611974Y-62530500D01*
X112611976Y-62530500D01*
X112812456Y-62493024D01*
X112928037Y-62448247D01*
X112997658Y-62442385D01*
X113059399Y-62475094D01*
X113060511Y-62476193D01*
X113684788Y-63100470D01*
X113764712Y-63146614D01*
X113853856Y-63170500D01*
X116373456Y-63170500D01*
X116440495Y-63190185D01*
X116461137Y-63206819D01*
X117613181Y-64358862D01*
X117646666Y-64420185D01*
X117649500Y-64446543D01*
X117649500Y-70346143D01*
X117664698Y-70402864D01*
X117664698Y-70402865D01*
X117673384Y-70435285D01*
X117673385Y-70435286D01*
X117719527Y-70515208D01*
X117719531Y-70515213D01*
X119113181Y-71908862D01*
X119146666Y-71970185D01*
X119149500Y-71996543D01*
X119149500Y-72213908D01*
X119129815Y-72280947D01*
X119111913Y-72300412D01*
X119113129Y-72301628D01*
X119107384Y-72307372D01*
X119019137Y-72422377D01*
X118963671Y-72556287D01*
X118963670Y-72556291D01*
X118944750Y-72699999D01*
X118944750Y-72700000D01*
X118963670Y-72843708D01*
X118963671Y-72843712D01*
X119019137Y-72977622D01*
X119019138Y-72977624D01*
X119019139Y-72977625D01*
X119107379Y-73092621D01*
X119222375Y-73180861D01*
X119356291Y-73236330D01*
X119483280Y-73253048D01*
X119499999Y-73255250D01*
X119500000Y-73255250D01*
X119500001Y-73255250D01*
X119514977Y-73253278D01*
X119643709Y-73236330D01*
X119777625Y-73180861D01*
X119892621Y-73092621D01*
X119980861Y-72977625D01*
X120036330Y-72843709D01*
X120055250Y-72700000D01*
X120036330Y-72556291D01*
X119980861Y-72422375D01*
X119892621Y-72307379D01*
X119892619Y-72307377D01*
X119892615Y-72307372D01*
X119886871Y-72301628D01*
X119889387Y-72299111D01*
X119857797Y-72255817D01*
X119850500Y-72213908D01*
X119850500Y-71916228D01*
X125174500Y-71916228D01*
X125174500Y-72083771D01*
X125207182Y-72248074D01*
X125207184Y-72248082D01*
X125271295Y-72402860D01*
X125364373Y-72542162D01*
X125482837Y-72660626D01*
X125541765Y-72700000D01*
X125622137Y-72753703D01*
X125776918Y-72817816D01*
X125941228Y-72850499D01*
X125941232Y-72850500D01*
X125941233Y-72850500D01*
X126658768Y-72850500D01*
X126658769Y-72850499D01*
X126823082Y-72817816D01*
X126977863Y-72753703D01*
X127117162Y-72660626D01*
X127235626Y-72542162D01*
X127328703Y-72402863D01*
X127392816Y-72248082D01*
X127425500Y-72083767D01*
X127425500Y-71916233D01*
X127392816Y-71751918D01*
X127328703Y-71597137D01*
X127276848Y-71519531D01*
X127235626Y-71457837D01*
X127117162Y-71339373D01*
X126977860Y-71246295D01*
X126823082Y-71182184D01*
X126823074Y-71182182D01*
X126658771Y-71149500D01*
X126658767Y-71149500D01*
X125941233Y-71149500D01*
X125941228Y-71149500D01*
X125776925Y-71182182D01*
X125776917Y-71182184D01*
X125622139Y-71246295D01*
X125482837Y-71339373D01*
X125364373Y-71457837D01*
X125271295Y-71597139D01*
X125207184Y-71751917D01*
X125207182Y-71751925D01*
X125174500Y-71916228D01*
X119850500Y-71916228D01*
X119850500Y-71753858D01*
X119850500Y-71753856D01*
X119826614Y-71664712D01*
X119826611Y-71664706D01*
X119780473Y-71584794D01*
X119780470Y-71584791D01*
X119780469Y-71584788D01*
X119715212Y-71519531D01*
X119225240Y-71029559D01*
X119191755Y-70968236D01*
X119196739Y-70898544D01*
X119238611Y-70842611D01*
X119265469Y-70827317D01*
X119308897Y-70809328D01*
X119377625Y-70780861D01*
X119492621Y-70692621D01*
X119580861Y-70577625D01*
X119636330Y-70443709D01*
X119655250Y-70300000D01*
X119636330Y-70156291D01*
X119580861Y-70022375D01*
X119499411Y-69916228D01*
X125174500Y-69916228D01*
X125174500Y-70083771D01*
X125207182Y-70248074D01*
X125207184Y-70248082D01*
X125271295Y-70402860D01*
X125364373Y-70542162D01*
X125482837Y-70660626D01*
X125575494Y-70722537D01*
X125622137Y-70753703D01*
X125776918Y-70817816D01*
X125941228Y-70850499D01*
X125941232Y-70850500D01*
X125941233Y-70850500D01*
X126658768Y-70850500D01*
X126658769Y-70850499D01*
X126823082Y-70817816D01*
X126977863Y-70753703D01*
X127117162Y-70660626D01*
X127235626Y-70542162D01*
X127328703Y-70402863D01*
X127392816Y-70248082D01*
X127425500Y-70083767D01*
X127425500Y-69916233D01*
X127392816Y-69751918D01*
X127328703Y-69597137D01*
X127250310Y-69479814D01*
X127235626Y-69457837D01*
X127117162Y-69339373D01*
X126977860Y-69246295D01*
X126823082Y-69182184D01*
X126823074Y-69182182D01*
X126658771Y-69149500D01*
X126658767Y-69149500D01*
X125941233Y-69149500D01*
X125941228Y-69149500D01*
X125776925Y-69182182D01*
X125776917Y-69182184D01*
X125622139Y-69246295D01*
X125482837Y-69339373D01*
X125364373Y-69457837D01*
X125271295Y-69597139D01*
X125207184Y-69751917D01*
X125207182Y-69751925D01*
X125174500Y-69916228D01*
X119499411Y-69916228D01*
X119492621Y-69907379D01*
X119377625Y-69819139D01*
X119377624Y-69819138D01*
X119377622Y-69819137D01*
X119243712Y-69763671D01*
X119243710Y-69763670D01*
X119243709Y-69763670D01*
X119154499Y-69751925D01*
X119100001Y-69744750D01*
X119091873Y-69744750D01*
X119091873Y-69741243D01*
X119038613Y-69732772D01*
X119004122Y-69708440D01*
X118836819Y-69541137D01*
X118803334Y-69479814D01*
X118800500Y-69453456D01*
X118800500Y-67413797D01*
X118820185Y-67346758D01*
X118872989Y-67301003D01*
X118940685Y-67290858D01*
X119014320Y-67300552D01*
X119049999Y-67305250D01*
X119050000Y-67305250D01*
X119050001Y-67305250D01*
X119064977Y-67303278D01*
X119193709Y-67286330D01*
X119327625Y-67230861D01*
X119442621Y-67142621D01*
X119530861Y-67027625D01*
X119586330Y-66893709D01*
X119605250Y-66750000D01*
X119586330Y-66606291D01*
X119530861Y-66472375D01*
X119442621Y-66357379D01*
X119442619Y-66357377D01*
X119442615Y-66357372D01*
X119436871Y-66351628D01*
X119439387Y-66349111D01*
X119407797Y-66305817D01*
X119400500Y-66263908D01*
X119400500Y-64564635D01*
X125174500Y-64564635D01*
X125174500Y-65360370D01*
X125174501Y-65360376D01*
X125180908Y-65419983D01*
X125231202Y-65554828D01*
X125231206Y-65554835D01*
X125317452Y-65670044D01*
X125317455Y-65670047D01*
X125432664Y-65756293D01*
X125432671Y-65756297D01*
X125567517Y-65806591D01*
X125567516Y-65806591D01*
X125574444Y-65807335D01*
X125627127Y-65813000D01*
X126972872Y-65812999D01*
X127032483Y-65806591D01*
X127167331Y-65756296D01*
X127282546Y-65670046D01*
X127368796Y-65554831D01*
X127419091Y-65419983D01*
X127425500Y-65360373D01*
X127425499Y-64564628D01*
X127419091Y-64505017D01*
X127368796Y-64370169D01*
X127368795Y-64370168D01*
X127368793Y-64370164D01*
X127282547Y-64254955D01*
X127282544Y-64254952D01*
X127167335Y-64168706D01*
X127167328Y-64168702D01*
X127032482Y-64118408D01*
X127032483Y-64118408D01*
X126972883Y-64112001D01*
X126972881Y-64112000D01*
X126972873Y-64112000D01*
X126972864Y-64112000D01*
X125627129Y-64112000D01*
X125627123Y-64112001D01*
X125567516Y-64118408D01*
X125432671Y-64168702D01*
X125432664Y-64168706D01*
X125317455Y-64254952D01*
X125317452Y-64254955D01*
X125231206Y-64370164D01*
X125231202Y-64370171D01*
X125180908Y-64505017D01*
X125174501Y-64564616D01*
X125174501Y-64564623D01*
X125174500Y-64564635D01*
X119400500Y-64564635D01*
X119400500Y-61217512D01*
X119400500Y-61217510D01*
X119376614Y-61128366D01*
X119362192Y-61103386D01*
X119330470Y-61048442D01*
X119160756Y-60878728D01*
X125174500Y-60878728D01*
X125174500Y-61046271D01*
X125207182Y-61210574D01*
X125207184Y-61210582D01*
X125271295Y-61365360D01*
X125364373Y-61504662D01*
X125482837Y-61623126D01*
X125575494Y-61685037D01*
X125622137Y-61716203D01*
X125776918Y-61780316D01*
X125941228Y-61812999D01*
X125941232Y-61813000D01*
X125941233Y-61813000D01*
X126658768Y-61813000D01*
X126658769Y-61812999D01*
X126823082Y-61780316D01*
X126977863Y-61716203D01*
X127117162Y-61623126D01*
X127235626Y-61504662D01*
X127328703Y-61365363D01*
X127392816Y-61210582D01*
X127425500Y-61046267D01*
X127425500Y-60878733D01*
X127392816Y-60714418D01*
X127328703Y-60559637D01*
X127264125Y-60462989D01*
X127235626Y-60420337D01*
X127117162Y-60301873D01*
X126977860Y-60208795D01*
X126823082Y-60144684D01*
X126823074Y-60144682D01*
X126658771Y-60112000D01*
X126658767Y-60112000D01*
X125941233Y-60112000D01*
X125941228Y-60112000D01*
X125776925Y-60144682D01*
X125776917Y-60144684D01*
X125622139Y-60208795D01*
X125482837Y-60301873D01*
X125364373Y-60420337D01*
X125271295Y-60559639D01*
X125207184Y-60714417D01*
X125207182Y-60714425D01*
X125174500Y-60878728D01*
X119160756Y-60878728D01*
X117160756Y-58878728D01*
X125174500Y-58878728D01*
X125174500Y-59046271D01*
X125207182Y-59210574D01*
X125207184Y-59210582D01*
X125271295Y-59365360D01*
X125364373Y-59504662D01*
X125482837Y-59623126D01*
X125559097Y-59674081D01*
X125622137Y-59716203D01*
X125776918Y-59780316D01*
X125941228Y-59812999D01*
X125941232Y-59813000D01*
X125941233Y-59813000D01*
X126658768Y-59813000D01*
X126658769Y-59812999D01*
X126823082Y-59780316D01*
X126977863Y-59716203D01*
X127117162Y-59623126D01*
X127235626Y-59504662D01*
X127328703Y-59365363D01*
X127392816Y-59210582D01*
X127425500Y-59046267D01*
X127425500Y-58878733D01*
X127392816Y-58714418D01*
X127328703Y-58559637D01*
X127282667Y-58490739D01*
X127235626Y-58420337D01*
X127117162Y-58301873D01*
X126977860Y-58208795D01*
X126823082Y-58144684D01*
X126823074Y-58144682D01*
X126658771Y-58112000D01*
X126658767Y-58112000D01*
X125941233Y-58112000D01*
X125941228Y-58112000D01*
X125776925Y-58144682D01*
X125776917Y-58144684D01*
X125622139Y-58208795D01*
X125482837Y-58301873D01*
X125364373Y-58420337D01*
X125271295Y-58559639D01*
X125207184Y-58714417D01*
X125207182Y-58714425D01*
X125174500Y-58878728D01*
X117160756Y-58878728D01*
X115928447Y-57646419D01*
X115894962Y-57585096D01*
X115899946Y-57515404D01*
X115941818Y-57459471D01*
X115991937Y-57437121D01*
X115997736Y-57435967D01*
X115997737Y-57435966D01*
X115997740Y-57435966D01*
X116080601Y-57380601D01*
X116135966Y-57297740D01*
X116150500Y-57224674D01*
X116150500Y-56878728D01*
X125174500Y-56878728D01*
X125174500Y-57046271D01*
X125207182Y-57210574D01*
X125207184Y-57210582D01*
X125271295Y-57365360D01*
X125364373Y-57504662D01*
X125482837Y-57623126D01*
X125517698Y-57646419D01*
X125622137Y-57716203D01*
X125776918Y-57780316D01*
X125941228Y-57812999D01*
X125941232Y-57813000D01*
X125941233Y-57813000D01*
X126658768Y-57813000D01*
X126658769Y-57812999D01*
X126823082Y-57780316D01*
X126977863Y-57716203D01*
X127117162Y-57623126D01*
X127235626Y-57504662D01*
X127328703Y-57365363D01*
X127392816Y-57210582D01*
X127425500Y-57046267D01*
X127425500Y-56878733D01*
X127392816Y-56714418D01*
X127328703Y-56559637D01*
X127297537Y-56512994D01*
X127235626Y-56420337D01*
X127117162Y-56301873D01*
X126977860Y-56208795D01*
X126823082Y-56144684D01*
X126823074Y-56144682D01*
X126658771Y-56112000D01*
X126658767Y-56112000D01*
X125941233Y-56112000D01*
X125941228Y-56112000D01*
X125776925Y-56144682D01*
X125776917Y-56144684D01*
X125622139Y-56208795D01*
X125482837Y-56301873D01*
X125364373Y-56420337D01*
X125271295Y-56559639D01*
X125207184Y-56714417D01*
X125207182Y-56714425D01*
X125174500Y-56878728D01*
X116150500Y-56878728D01*
X116150500Y-55475326D01*
X116150500Y-55475323D01*
X116150499Y-55475321D01*
X116135967Y-55402264D01*
X116135966Y-55402260D01*
X116114459Y-55370072D01*
X116080601Y-55319399D01*
X115997740Y-55264034D01*
X115997739Y-55264033D01*
X115997735Y-55264032D01*
X115924677Y-55249500D01*
X115924674Y-55249500D01*
X114175326Y-55249500D01*
X114175323Y-55249500D01*
X114102264Y-55264032D01*
X114102260Y-55264033D01*
X114019399Y-55319399D01*
X113964033Y-55402260D01*
X113964032Y-55402264D01*
X113949500Y-55475321D01*
X113949500Y-56994456D01*
X113929815Y-57061495D01*
X113877011Y-57107250D01*
X113807853Y-57117194D01*
X113744297Y-57088169D01*
X113737819Y-57082137D01*
X113558576Y-56902894D01*
X113525091Y-56841571D01*
X113530075Y-56771879D01*
X113535251Y-56759954D01*
X113540582Y-56749250D01*
X113596397Y-56553083D01*
X113615215Y-56350000D01*
X113610755Y-56301873D01*
X113596397Y-56146917D01*
X113586462Y-56112000D01*
X113540582Y-55950750D01*
X113449673Y-55768179D01*
X113326764Y-55605421D01*
X113326762Y-55605418D01*
X113176041Y-55468019D01*
X113176039Y-55468017D01*
X113002642Y-55360655D01*
X113002635Y-55360651D01*
X112896150Y-55319399D01*
X112812456Y-55286976D01*
X112611976Y-55249500D01*
X112408024Y-55249500D01*
X112207544Y-55286976D01*
X112207541Y-55286976D01*
X112207541Y-55286977D01*
X112017364Y-55360651D01*
X112017357Y-55360655D01*
X111843960Y-55468017D01*
X111843958Y-55468019D01*
X111693237Y-55605418D01*
X111570327Y-55768178D01*
X111479422Y-55950739D01*
X111479417Y-55950752D01*
X111423602Y-56146917D01*
X111404785Y-56349999D01*
X111100500Y-56349999D01*
X111100500Y-55555401D01*
X111100502Y-55555356D01*
X111100501Y-55547121D01*
X111100503Y-55547117D01*
X111100500Y-55488183D01*
X111101279Y-55474305D01*
X111101987Y-55468019D01*
X111111456Y-55383947D01*
X111117628Y-55356896D01*
X111145348Y-55277667D01*
X111157390Y-55252662D01*
X111202035Y-55181606D01*
X111219345Y-55159898D01*
X111278678Y-55100562D01*
X111300385Y-55083251D01*
X111371440Y-55038602D01*
X111396452Y-55026555D01*
X111475664Y-54998836D01*
X111502729Y-54992659D01*
X111579232Y-54984039D01*
X111592634Y-54982530D01*
X111606517Y-54981750D01*
X111665892Y-54981750D01*
X129534108Y-54981750D01*
X129593039Y-54981750D01*
X129606922Y-54982530D01*
G37*
G04 #@! TD.AperFunction*
M02*
