G04 #@! TF.GenerationSoftware,KiCad,Pcbnew,8.0.5*
G04 #@! TF.CreationDate,2025-02-14T04:05:41-05:00*
G04 #@! TF.ProjectId,UTSM Adaptor,5554534d-2041-4646-9170-746f722e6b69,rev?*
G04 #@! TF.SameCoordinates,Original*
G04 #@! TF.FileFunction,Soldermask,Top*
G04 #@! TF.FilePolarity,Negative*
%FSLAX46Y46*%
G04 Gerber Fmt 4.6, Leading zero omitted, Abs format (unit mm)*
G04 Created by KiCad (PCBNEW 8.0.5) date 2025-02-14 04:05:41*
%MOMM*%
%LPD*%
G01*
G04 APERTURE LIST*
G04 Aperture macros list*
%AMRoundRect*
0 Rectangle with rounded corners*
0 $1 Rounding radius*
0 $2 $3 $4 $5 $6 $7 $8 $9 X,Y pos of 4 corners*
0 Add a 4 corners polygon primitive as box body*
4,1,4,$2,$3,$4,$5,$6,$7,$8,$9,$2,$3,0*
0 Add four circle primitives for the rounded corners*
1,1,$1+$1,$2,$3*
1,1,$1+$1,$4,$5*
1,1,$1+$1,$6,$7*
1,1,$1+$1,$8,$9*
0 Add four rect primitives between the rounded corners*
20,1,$1+$1,$2,$3,$4,$5,0*
20,1,$1+$1,$4,$5,$6,$7,0*
20,1,$1+$1,$6,$7,$8,$9,0*
20,1,$1+$1,$8,$9,$2,$3,0*%
G04 Aperture macros list end*
%ADD10RoundRect,0.237500X-0.237500X0.250000X-0.237500X-0.250000X0.237500X-0.250000X0.237500X0.250000X0*%
%ADD11RoundRect,0.150000X-0.587500X-0.150000X0.587500X-0.150000X0.587500X0.150000X-0.587500X0.150000X0*%
%ADD12RoundRect,0.250000X0.625000X-0.350000X0.625000X0.350000X-0.625000X0.350000X-0.625000X-0.350000X0*%
%ADD13O,1.750000X1.200000*%
%ADD14RoundRect,0.237500X0.250000X0.237500X-0.250000X0.237500X-0.250000X-0.237500X0.250000X-0.237500X0*%
%ADD15RoundRect,0.237500X-0.250000X-0.237500X0.250000X-0.237500X0.250000X0.237500X-0.250000X0.237500X0*%
%ADD16RoundRect,0.375000X-0.625000X-0.375000X0.625000X-0.375000X0.625000X0.375000X-0.625000X0.375000X0*%
%ADD17RoundRect,0.500000X-0.500000X-1.400000X0.500000X-1.400000X0.500000X1.400000X-0.500000X1.400000X0*%
%ADD18RoundRect,0.150000X-0.150000X0.587500X-0.150000X-0.587500X0.150000X-0.587500X0.150000X0.587500X0*%
%ADD19R,1.700000X1.700000*%
%ADD20O,1.700000X1.700000*%
G04 APERTURE END LIST*
D10*
X118000000Y-62287500D03*
X118000000Y-64112500D03*
X123500000Y-62287500D03*
X123500000Y-64112500D03*
X123500000Y-55287500D03*
X123500000Y-57112500D03*
X118012500Y-58787500D03*
X118012500Y-60612500D03*
D11*
X119812500Y-65750000D03*
X119812500Y-67650000D03*
X121687500Y-66700000D03*
X119812500Y-58750000D03*
X119812500Y-60650000D03*
X121687500Y-59700000D03*
D10*
X118000000Y-65787500D03*
X118000000Y-67612500D03*
X118000000Y-69287500D03*
X118000000Y-71112500D03*
X123500000Y-69287500D03*
X123500000Y-71112500D03*
X123512500Y-58787500D03*
X123512500Y-60612500D03*
X118000000Y-55287500D03*
X118000000Y-57112500D03*
D12*
X126300000Y-64962500D03*
D13*
X126300000Y-62962500D03*
X126300000Y-60962500D03*
X126300000Y-58962500D03*
X126300000Y-56962500D03*
D10*
X123500000Y-65787500D03*
X123500000Y-67612500D03*
D14*
X123162500Y-72750000D03*
X121337500Y-72750000D03*
D15*
X121337500Y-78250000D03*
X123162500Y-78250000D03*
D16*
X112800000Y-74550000D03*
X112800000Y-76850000D03*
D17*
X119100000Y-76850000D03*
D16*
X112800000Y-79150000D03*
D12*
X126300000Y-78000000D03*
D13*
X126300000Y-76000000D03*
X126300000Y-74000000D03*
X126300000Y-72000000D03*
X126300000Y-70000000D03*
D11*
X119812500Y-62250000D03*
X119812500Y-64150000D03*
X121687500Y-63200000D03*
X119825000Y-55250000D03*
X119825000Y-57150000D03*
X121700000Y-56200000D03*
X119812500Y-69250000D03*
X119812500Y-71150000D03*
X121687500Y-70200000D03*
D18*
X123200000Y-74562500D03*
X121300000Y-74562500D03*
X122250000Y-76437500D03*
D19*
X115050000Y-56350000D03*
D20*
X112510000Y-56350000D03*
X115050000Y-58890000D03*
X112510000Y-58890000D03*
X115050000Y-61430000D03*
X112510000Y-61430000D03*
X115050000Y-63970000D03*
X112510000Y-63970000D03*
X115050000Y-66510000D03*
X112510000Y-66510000D03*
M02*
