G04 #@! TF.GenerationSoftware,KiCad,Pcbnew,8.0.5*
G04 #@! TF.CreationDate,2025-02-14T04:05:40-05:00*
G04 #@! TF.ProjectId,UTSM Adaptor,5554534d-2041-4646-9170-746f722e6b69,rev?*
G04 #@! TF.SameCoordinates,Original*
G04 #@! TF.FileFunction,Legend,Top*
G04 #@! TF.FilePolarity,Positive*
%FSLAX46Y46*%
G04 Gerber Fmt 4.6, Leading zero omitted, Abs format (unit mm)*
G04 Created by KiCad (PCBNEW 8.0.5) date 2025-02-14 04:05:40*
%MOMM*%
%LPD*%
G01*
G04 APERTURE LIST*
G04 Aperture macros list*
%AMRoundRect*
0 Rectangle with rounded corners*
0 $1 Rounding radius*
0 $2 $3 $4 $5 $6 $7 $8 $9 X,Y pos of 4 corners*
0 Add a 4 corners polygon primitive as box body*
4,1,4,$2,$3,$4,$5,$6,$7,$8,$9,$2,$3,0*
0 Add four circle primitives for the rounded corners*
1,1,$1+$1,$2,$3*
1,1,$1+$1,$4,$5*
1,1,$1+$1,$6,$7*
1,1,$1+$1,$8,$9*
0 Add four rect primitives between the rounded corners*
20,1,$1+$1,$2,$3,$4,$5,0*
20,1,$1+$1,$4,$5,$6,$7,0*
20,1,$1+$1,$6,$7,$8,$9,0*
20,1,$1+$1,$8,$9,$2,$3,0*%
G04 Aperture macros list end*
%ADD10C,0.100000*%
%ADD11C,0.125000*%
%ADD12C,0.200000*%
%ADD13C,0.120000*%
%ADD14C,0.000000*%
%ADD15RoundRect,0.237500X-0.237500X0.250000X-0.237500X-0.250000X0.237500X-0.250000X0.237500X0.250000X0*%
%ADD16RoundRect,0.150000X-0.587500X-0.150000X0.587500X-0.150000X0.587500X0.150000X-0.587500X0.150000X0*%
%ADD17RoundRect,0.250000X0.625000X-0.350000X0.625000X0.350000X-0.625000X0.350000X-0.625000X-0.350000X0*%
%ADD18O,1.750000X1.200000*%
%ADD19RoundRect,0.237500X0.250000X0.237500X-0.250000X0.237500X-0.250000X-0.237500X0.250000X-0.237500X0*%
%ADD20RoundRect,0.237500X-0.250000X-0.237500X0.250000X-0.237500X0.250000X0.237500X-0.250000X0.237500X0*%
%ADD21RoundRect,0.375000X-0.625000X-0.375000X0.625000X-0.375000X0.625000X0.375000X-0.625000X0.375000X0*%
%ADD22RoundRect,0.500000X-0.500000X-1.400000X0.500000X-1.400000X0.500000X1.400000X-0.500000X1.400000X0*%
%ADD23RoundRect,0.150000X-0.150000X0.587500X-0.150000X-0.587500X0.150000X-0.587500X0.150000X0.587500X0*%
%ADD24R,1.700000X1.700000*%
%ADD25O,1.700000X1.700000*%
G04 APERTURE END LIST*
D10*
X124707419Y-63303258D02*
X124683609Y-63350877D01*
X124683609Y-63350877D02*
X124683609Y-63422306D01*
X124683609Y-63422306D02*
X124707419Y-63493734D01*
X124707419Y-63493734D02*
X124755038Y-63541353D01*
X124755038Y-63541353D02*
X124802657Y-63565163D01*
X124802657Y-63565163D02*
X124897895Y-63588972D01*
X124897895Y-63588972D02*
X124969323Y-63588972D01*
X124969323Y-63588972D02*
X125064561Y-63565163D01*
X125064561Y-63565163D02*
X125112180Y-63541353D01*
X125112180Y-63541353D02*
X125159800Y-63493734D01*
X125159800Y-63493734D02*
X125183609Y-63422306D01*
X125183609Y-63422306D02*
X125183609Y-63374687D01*
X125183609Y-63374687D02*
X125159800Y-63303258D01*
X125159800Y-63303258D02*
X125135990Y-63279449D01*
X125135990Y-63279449D02*
X124969323Y-63279449D01*
X124969323Y-63279449D02*
X124969323Y-63374687D01*
X125183609Y-63065163D02*
X124683609Y-63065163D01*
X124683609Y-63065163D02*
X125183609Y-62779449D01*
X125183609Y-62779449D02*
X124683609Y-62779449D01*
X125183609Y-62541353D02*
X124683609Y-62541353D01*
X124683609Y-62541353D02*
X124683609Y-62422305D01*
X124683609Y-62422305D02*
X124707419Y-62350877D01*
X124707419Y-62350877D02*
X124755038Y-62303258D01*
X124755038Y-62303258D02*
X124802657Y-62279448D01*
X124802657Y-62279448D02*
X124897895Y-62255639D01*
X124897895Y-62255639D02*
X124969323Y-62255639D01*
X124969323Y-62255639D02*
X125064561Y-62279448D01*
X125064561Y-62279448D02*
X125112180Y-62303258D01*
X125112180Y-62303258D02*
X125159800Y-62350877D01*
X125159800Y-62350877D02*
X125183609Y-62422305D01*
X125183609Y-62422305D02*
X125183609Y-62541353D01*
X111433609Y-56377068D02*
X111433609Y-56615163D01*
X111433609Y-56615163D02*
X110933609Y-56615163D01*
X110933609Y-56258020D02*
X110933609Y-55948496D01*
X110933609Y-55948496D02*
X111124085Y-56115163D01*
X111124085Y-56115163D02*
X111124085Y-56043734D01*
X111124085Y-56043734D02*
X111147895Y-55996115D01*
X111147895Y-55996115D02*
X111171704Y-55972306D01*
X111171704Y-55972306D02*
X111219323Y-55948496D01*
X111219323Y-55948496D02*
X111338371Y-55948496D01*
X111338371Y-55948496D02*
X111385990Y-55972306D01*
X111385990Y-55972306D02*
X111409800Y-55996115D01*
X111409800Y-55996115D02*
X111433609Y-56043734D01*
X111433609Y-56043734D02*
X111433609Y-56186591D01*
X111433609Y-56186591D02*
X111409800Y-56234210D01*
X111409800Y-56234210D02*
X111385990Y-56258020D01*
X110957419Y-64303258D02*
X110933609Y-64350877D01*
X110933609Y-64350877D02*
X110933609Y-64422306D01*
X110933609Y-64422306D02*
X110957419Y-64493734D01*
X110957419Y-64493734D02*
X111005038Y-64541353D01*
X111005038Y-64541353D02*
X111052657Y-64565163D01*
X111052657Y-64565163D02*
X111147895Y-64588972D01*
X111147895Y-64588972D02*
X111219323Y-64588972D01*
X111219323Y-64588972D02*
X111314561Y-64565163D01*
X111314561Y-64565163D02*
X111362180Y-64541353D01*
X111362180Y-64541353D02*
X111409800Y-64493734D01*
X111409800Y-64493734D02*
X111433609Y-64422306D01*
X111433609Y-64422306D02*
X111433609Y-64374687D01*
X111433609Y-64374687D02*
X111409800Y-64303258D01*
X111409800Y-64303258D02*
X111385990Y-64279449D01*
X111385990Y-64279449D02*
X111219323Y-64279449D01*
X111219323Y-64279449D02*
X111219323Y-64374687D01*
X111433609Y-64065163D02*
X110933609Y-64065163D01*
X110933609Y-64065163D02*
X111433609Y-63779449D01*
X111433609Y-63779449D02*
X110933609Y-63779449D01*
X111433609Y-63541353D02*
X110933609Y-63541353D01*
X110933609Y-63541353D02*
X110933609Y-63422305D01*
X110933609Y-63422305D02*
X110957419Y-63350877D01*
X110957419Y-63350877D02*
X111005038Y-63303258D01*
X111005038Y-63303258D02*
X111052657Y-63279448D01*
X111052657Y-63279448D02*
X111147895Y-63255639D01*
X111147895Y-63255639D02*
X111219323Y-63255639D01*
X111219323Y-63255639D02*
X111314561Y-63279448D01*
X111314561Y-63279448D02*
X111362180Y-63303258D01*
X111362180Y-63303258D02*
X111409800Y-63350877D01*
X111409800Y-63350877D02*
X111433609Y-63422305D01*
X111433609Y-63422305D02*
X111433609Y-63541353D01*
X125183609Y-59315163D02*
X124683609Y-59315163D01*
X124921704Y-59315163D02*
X124921704Y-59029449D01*
X125183609Y-59029449D02*
X124683609Y-59029449D01*
X124683609Y-58553258D02*
X124683609Y-58791353D01*
X124683609Y-58791353D02*
X124921704Y-58815162D01*
X124921704Y-58815162D02*
X124897895Y-58791353D01*
X124897895Y-58791353D02*
X124874085Y-58743734D01*
X124874085Y-58743734D02*
X124874085Y-58624686D01*
X124874085Y-58624686D02*
X124897895Y-58577067D01*
X124897895Y-58577067D02*
X124921704Y-58553258D01*
X124921704Y-58553258D02*
X124969323Y-58529448D01*
X124969323Y-58529448D02*
X125088371Y-58529448D01*
X125088371Y-58529448D02*
X125135990Y-58553258D01*
X125135990Y-58553258D02*
X125159800Y-58577067D01*
X125159800Y-58577067D02*
X125183609Y-58624686D01*
X125183609Y-58624686D02*
X125183609Y-58743734D01*
X125183609Y-58743734D02*
X125159800Y-58791353D01*
X125159800Y-58791353D02*
X125135990Y-58815162D01*
X124683609Y-65077068D02*
X124683609Y-65315163D01*
X124683609Y-65315163D02*
X124921704Y-65338972D01*
X124921704Y-65338972D02*
X124897895Y-65315163D01*
X124897895Y-65315163D02*
X124874085Y-65267544D01*
X124874085Y-65267544D02*
X124874085Y-65148496D01*
X124874085Y-65148496D02*
X124897895Y-65100877D01*
X124897895Y-65100877D02*
X124921704Y-65077068D01*
X124921704Y-65077068D02*
X124969323Y-65053258D01*
X124969323Y-65053258D02*
X125088371Y-65053258D01*
X125088371Y-65053258D02*
X125135990Y-65077068D01*
X125135990Y-65077068D02*
X125159800Y-65100877D01*
X125159800Y-65100877D02*
X125183609Y-65148496D01*
X125183609Y-65148496D02*
X125183609Y-65267544D01*
X125183609Y-65267544D02*
X125159800Y-65315163D01*
X125159800Y-65315163D02*
X125135990Y-65338972D01*
X124683609Y-64910401D02*
X125183609Y-64743735D01*
X125183609Y-64743735D02*
X124683609Y-64577068D01*
X110933609Y-66627068D02*
X110933609Y-66865163D01*
X110933609Y-66865163D02*
X111171704Y-66888972D01*
X111171704Y-66888972D02*
X111147895Y-66865163D01*
X111147895Y-66865163D02*
X111124085Y-66817544D01*
X111124085Y-66817544D02*
X111124085Y-66698496D01*
X111124085Y-66698496D02*
X111147895Y-66650877D01*
X111147895Y-66650877D02*
X111171704Y-66627068D01*
X111171704Y-66627068D02*
X111219323Y-66603258D01*
X111219323Y-66603258D02*
X111338371Y-66603258D01*
X111338371Y-66603258D02*
X111385990Y-66627068D01*
X111385990Y-66627068D02*
X111409800Y-66650877D01*
X111409800Y-66650877D02*
X111433609Y-66698496D01*
X111433609Y-66698496D02*
X111433609Y-66817544D01*
X111433609Y-66817544D02*
X111409800Y-66865163D01*
X111409800Y-66865163D02*
X111385990Y-66888972D01*
X110933609Y-66460401D02*
X111433609Y-66293735D01*
X111433609Y-66293735D02*
X110933609Y-66127068D01*
X125183609Y-61315163D02*
X124683609Y-61315163D01*
X124921704Y-61315163D02*
X124921704Y-61029449D01*
X125183609Y-61029449D02*
X124683609Y-61029449D01*
X124850276Y-60577067D02*
X125183609Y-60577067D01*
X124659800Y-60696115D02*
X125016942Y-60815162D01*
X125016942Y-60815162D02*
X125016942Y-60505639D01*
X116133609Y-66627068D02*
X116133609Y-66865163D01*
X116133609Y-66865163D02*
X116371704Y-66888972D01*
X116371704Y-66888972D02*
X116347895Y-66865163D01*
X116347895Y-66865163D02*
X116324085Y-66817544D01*
X116324085Y-66817544D02*
X116324085Y-66698496D01*
X116324085Y-66698496D02*
X116347895Y-66650877D01*
X116347895Y-66650877D02*
X116371704Y-66627068D01*
X116371704Y-66627068D02*
X116419323Y-66603258D01*
X116419323Y-66603258D02*
X116538371Y-66603258D01*
X116538371Y-66603258D02*
X116585990Y-66627068D01*
X116585990Y-66627068D02*
X116609800Y-66650877D01*
X116609800Y-66650877D02*
X116633609Y-66698496D01*
X116633609Y-66698496D02*
X116633609Y-66817544D01*
X116633609Y-66817544D02*
X116609800Y-66865163D01*
X116609800Y-66865163D02*
X116585990Y-66888972D01*
X116133609Y-66460401D02*
X116633609Y-66293735D01*
X116633609Y-66293735D02*
X116133609Y-66127068D01*
X125183609Y-72315163D02*
X124683609Y-72315163D01*
X124921704Y-72315163D02*
X124921704Y-72029449D01*
X125183609Y-72029449D02*
X124683609Y-72029449D01*
X124731228Y-71815162D02*
X124707419Y-71791353D01*
X124707419Y-71791353D02*
X124683609Y-71743734D01*
X124683609Y-71743734D02*
X124683609Y-71624686D01*
X124683609Y-71624686D02*
X124707419Y-71577067D01*
X124707419Y-71577067D02*
X124731228Y-71553258D01*
X124731228Y-71553258D02*
X124778847Y-71529448D01*
X124778847Y-71529448D02*
X124826466Y-71529448D01*
X124826466Y-71529448D02*
X124897895Y-71553258D01*
X124897895Y-71553258D02*
X125183609Y-71838972D01*
X125183609Y-71838972D02*
X125183609Y-71529448D01*
X124683609Y-78077068D02*
X124683609Y-78315163D01*
X124683609Y-78315163D02*
X124921704Y-78338972D01*
X124921704Y-78338972D02*
X124897895Y-78315163D01*
X124897895Y-78315163D02*
X124874085Y-78267544D01*
X124874085Y-78267544D02*
X124874085Y-78148496D01*
X124874085Y-78148496D02*
X124897895Y-78100877D01*
X124897895Y-78100877D02*
X124921704Y-78077068D01*
X124921704Y-78077068D02*
X124969323Y-78053258D01*
X124969323Y-78053258D02*
X125088371Y-78053258D01*
X125088371Y-78053258D02*
X125135990Y-78077068D01*
X125135990Y-78077068D02*
X125159800Y-78100877D01*
X125159800Y-78100877D02*
X125183609Y-78148496D01*
X125183609Y-78148496D02*
X125183609Y-78267544D01*
X125183609Y-78267544D02*
X125159800Y-78315163D01*
X125159800Y-78315163D02*
X125135990Y-78338972D01*
X124683609Y-77910401D02*
X125183609Y-77743735D01*
X125183609Y-77743735D02*
X124683609Y-77577068D01*
X125183609Y-74315163D02*
X124683609Y-74315163D01*
X124921704Y-74315163D02*
X124921704Y-74029449D01*
X125183609Y-74029449D02*
X124683609Y-74029449D01*
X125183609Y-73529448D02*
X125183609Y-73815162D01*
X125183609Y-73672305D02*
X124683609Y-73672305D01*
X124683609Y-73672305D02*
X124755038Y-73719924D01*
X124755038Y-73719924D02*
X124802657Y-73767543D01*
X124802657Y-73767543D02*
X124826466Y-73815162D01*
X125183609Y-70315163D02*
X124683609Y-70315163D01*
X124921704Y-70315163D02*
X124921704Y-70029449D01*
X125183609Y-70029449D02*
X124683609Y-70029449D01*
X124683609Y-69838972D02*
X124683609Y-69529448D01*
X124683609Y-69529448D02*
X124874085Y-69696115D01*
X124874085Y-69696115D02*
X124874085Y-69624686D01*
X124874085Y-69624686D02*
X124897895Y-69577067D01*
X124897895Y-69577067D02*
X124921704Y-69553258D01*
X124921704Y-69553258D02*
X124969323Y-69529448D01*
X124969323Y-69529448D02*
X125088371Y-69529448D01*
X125088371Y-69529448D02*
X125135990Y-69553258D01*
X125135990Y-69553258D02*
X125159800Y-69577067D01*
X125159800Y-69577067D02*
X125183609Y-69624686D01*
X125183609Y-69624686D02*
X125183609Y-69767543D01*
X125183609Y-69767543D02*
X125159800Y-69815162D01*
X125159800Y-69815162D02*
X125135990Y-69838972D01*
X116633609Y-56377068D02*
X116633609Y-56615163D01*
X116633609Y-56615163D02*
X116133609Y-56615163D01*
X116133609Y-55996115D02*
X116133609Y-56091353D01*
X116133609Y-56091353D02*
X116157419Y-56138972D01*
X116157419Y-56138972D02*
X116181228Y-56162782D01*
X116181228Y-56162782D02*
X116252657Y-56210401D01*
X116252657Y-56210401D02*
X116347895Y-56234210D01*
X116347895Y-56234210D02*
X116538371Y-56234210D01*
X116538371Y-56234210D02*
X116585990Y-56210401D01*
X116585990Y-56210401D02*
X116609800Y-56186591D01*
X116609800Y-56186591D02*
X116633609Y-56138972D01*
X116633609Y-56138972D02*
X116633609Y-56043734D01*
X116633609Y-56043734D02*
X116609800Y-55996115D01*
X116609800Y-55996115D02*
X116585990Y-55972306D01*
X116585990Y-55972306D02*
X116538371Y-55948496D01*
X116538371Y-55948496D02*
X116419323Y-55948496D01*
X116419323Y-55948496D02*
X116371704Y-55972306D01*
X116371704Y-55972306D02*
X116347895Y-55996115D01*
X116347895Y-55996115D02*
X116324085Y-56043734D01*
X116324085Y-56043734D02*
X116324085Y-56138972D01*
X116324085Y-56138972D02*
X116347895Y-56186591D01*
X116347895Y-56186591D02*
X116371704Y-56210401D01*
X116371704Y-56210401D02*
X116419323Y-56234210D01*
X116633609Y-58977068D02*
X116633609Y-59215163D01*
X116633609Y-59215163D02*
X116133609Y-59215163D01*
X116133609Y-58572306D02*
X116133609Y-58810401D01*
X116133609Y-58810401D02*
X116371704Y-58834210D01*
X116371704Y-58834210D02*
X116347895Y-58810401D01*
X116347895Y-58810401D02*
X116324085Y-58762782D01*
X116324085Y-58762782D02*
X116324085Y-58643734D01*
X116324085Y-58643734D02*
X116347895Y-58596115D01*
X116347895Y-58596115D02*
X116371704Y-58572306D01*
X116371704Y-58572306D02*
X116419323Y-58548496D01*
X116419323Y-58548496D02*
X116538371Y-58548496D01*
X116538371Y-58548496D02*
X116585990Y-58572306D01*
X116585990Y-58572306D02*
X116609800Y-58596115D01*
X116609800Y-58596115D02*
X116633609Y-58643734D01*
X116633609Y-58643734D02*
X116633609Y-58762782D01*
X116633609Y-58762782D02*
X116609800Y-58810401D01*
X116609800Y-58810401D02*
X116585990Y-58834210D01*
D11*
G36*
X111484699Y-71065000D02*
G01*
X111459054Y-71061733D01*
X111435607Y-71051933D01*
X111415640Y-71036484D01*
X111400191Y-71016517D01*
X111390391Y-70993101D01*
X111387124Y-70967547D01*
X111387124Y-70929078D01*
X111479570Y-70929078D01*
X111479570Y-70963639D01*
X111482013Y-70969623D01*
X111487997Y-70972065D01*
X111789270Y-70972065D01*
X111795254Y-70969623D01*
X111797819Y-70963639D01*
X111797819Y-70867773D01*
X111795254Y-70862034D01*
X111789270Y-70859591D01*
X111484699Y-70859591D01*
X111459054Y-70856294D01*
X111435607Y-70846402D01*
X111415640Y-70830923D01*
X111400191Y-70811109D01*
X111390391Y-70787784D01*
X111387124Y-70762016D01*
X111387124Y-70658457D01*
X111390391Y-70632934D01*
X111400191Y-70609609D01*
X111415640Y-70589581D01*
X111435607Y-70574193D01*
X111459054Y-70564302D01*
X111484699Y-70561004D01*
X111793667Y-70561004D01*
X111819068Y-70564302D01*
X111842271Y-70574193D01*
X111862177Y-70589581D01*
X111877686Y-70609609D01*
X111887761Y-70632934D01*
X111891120Y-70658457D01*
X111891120Y-70696926D01*
X111797819Y-70696926D01*
X111797819Y-70662365D01*
X111795254Y-70656503D01*
X111789270Y-70653939D01*
X111487997Y-70653939D01*
X111482013Y-70656503D01*
X111479570Y-70662365D01*
X111479570Y-70758230D01*
X111482013Y-70764092D01*
X111487997Y-70766413D01*
X111793667Y-70766413D01*
X111819068Y-70769740D01*
X111842271Y-70779724D01*
X111862177Y-70795142D01*
X111877686Y-70815017D01*
X111887761Y-70838251D01*
X111891120Y-70863988D01*
X111891120Y-70967547D01*
X111887761Y-70993101D01*
X111877686Y-71016517D01*
X111862177Y-71036484D01*
X111842271Y-71051933D01*
X111819068Y-71061733D01*
X111793667Y-71065000D01*
X111484699Y-71065000D01*
G37*
G36*
X111967812Y-71065000D02*
G01*
X111967812Y-70561004D01*
X112060136Y-70561004D01*
X112060136Y-70766413D01*
X112390352Y-70766413D01*
X112390352Y-70561004D01*
X112482920Y-70561004D01*
X112482920Y-71065000D01*
X112390352Y-71065000D01*
X112390352Y-70859591D01*
X112060136Y-70859591D01*
X112060136Y-71065000D01*
X111967812Y-71065000D01*
G37*
G36*
X112552651Y-71065000D02*
G01*
X112552651Y-70561004D01*
X112644364Y-70561004D01*
X112644364Y-71065000D01*
X112552651Y-71065000D01*
G37*
G36*
X112713363Y-71065000D02*
G01*
X112713363Y-70561004D01*
X113177180Y-70561004D01*
X113177180Y-70653939D01*
X112806786Y-70653939D01*
X112806786Y-70766413D01*
X113104884Y-70766413D01*
X113104884Y-70859591D01*
X112806786Y-70859591D01*
X112806786Y-71065000D01*
X112713363Y-71065000D01*
G37*
G36*
X113405425Y-71065000D02*
G01*
X113405425Y-70653939D01*
X113199773Y-70653939D01*
X113199773Y-70561004D01*
X113703768Y-70561004D01*
X113703768Y-70653939D01*
X113498237Y-70653939D01*
X113498237Y-71065000D01*
X113405425Y-71065000D01*
G37*
G36*
X113757257Y-71065000D02*
G01*
X113757257Y-70561004D01*
X114221074Y-70561004D01*
X114221074Y-70653939D01*
X113850680Y-70653939D01*
X113850680Y-70766413D01*
X114148778Y-70766413D01*
X114148778Y-70859591D01*
X113850680Y-70859591D01*
X113850680Y-70972065D01*
X114221074Y-70972065D01*
X114221074Y-71065000D01*
X113757257Y-71065000D01*
G37*
G36*
X114723360Y-70565065D02*
G01*
X114746685Y-70575048D01*
X114766774Y-70590497D01*
X114782344Y-70610464D01*
X114792419Y-70633758D01*
X114795778Y-70659190D01*
X114795778Y-70794867D01*
X114792419Y-70820329D01*
X114782344Y-70843715D01*
X114766774Y-70863682D01*
X114746685Y-70879131D01*
X114723360Y-70889023D01*
X114697836Y-70892320D01*
X114669952Y-70892363D01*
X114794190Y-71039232D01*
X114794190Y-71065000D01*
X114693806Y-71065000D01*
X114549033Y-70892551D01*
X114384228Y-70892808D01*
X114384228Y-71065000D01*
X114291782Y-71065000D01*
X114291782Y-70662609D01*
X114384228Y-70662609D01*
X114384228Y-70790959D01*
X114386671Y-70796943D01*
X114392655Y-70799263D01*
X114693928Y-70799263D01*
X114699912Y-70796943D01*
X114702477Y-70790959D01*
X114702477Y-70662609D01*
X114699912Y-70656625D01*
X114693928Y-70654061D01*
X114392655Y-70654061D01*
X114386671Y-70656625D01*
X114384228Y-70662609D01*
X114291782Y-70662609D01*
X114291782Y-70561737D01*
X114697836Y-70561737D01*
X114723360Y-70565065D01*
G37*
D10*
X116633609Y-61477068D02*
X116633609Y-61715163D01*
X116633609Y-61715163D02*
X116133609Y-61715163D01*
X116300276Y-61096115D02*
X116633609Y-61096115D01*
X116109800Y-61215163D02*
X116466942Y-61334210D01*
X116466942Y-61334210D02*
X116466942Y-61024687D01*
X111433609Y-61477068D02*
X111433609Y-61715163D01*
X111433609Y-61715163D02*
X110933609Y-61715163D01*
X111433609Y-61048496D02*
X111433609Y-61334210D01*
X111433609Y-61191353D02*
X110933609Y-61191353D01*
X110933609Y-61191353D02*
X111005038Y-61238972D01*
X111005038Y-61238972D02*
X111052657Y-61286591D01*
X111052657Y-61286591D02*
X111076466Y-61334210D01*
X125183609Y-57315163D02*
X124683609Y-57315163D01*
X124921704Y-57315163D02*
X124921704Y-57029449D01*
X125183609Y-57029449D02*
X124683609Y-57029449D01*
X124683609Y-56577067D02*
X124683609Y-56672305D01*
X124683609Y-56672305D02*
X124707419Y-56719924D01*
X124707419Y-56719924D02*
X124731228Y-56743734D01*
X124731228Y-56743734D02*
X124802657Y-56791353D01*
X124802657Y-56791353D02*
X124897895Y-56815162D01*
X124897895Y-56815162D02*
X125088371Y-56815162D01*
X125088371Y-56815162D02*
X125135990Y-56791353D01*
X125135990Y-56791353D02*
X125159800Y-56767543D01*
X125159800Y-56767543D02*
X125183609Y-56719924D01*
X125183609Y-56719924D02*
X125183609Y-56624686D01*
X125183609Y-56624686D02*
X125159800Y-56577067D01*
X125159800Y-56577067D02*
X125135990Y-56553258D01*
X125135990Y-56553258D02*
X125088371Y-56529448D01*
X125088371Y-56529448D02*
X124969323Y-56529448D01*
X124969323Y-56529448D02*
X124921704Y-56553258D01*
X124921704Y-56553258D02*
X124897895Y-56577067D01*
X124897895Y-56577067D02*
X124874085Y-56624686D01*
X124874085Y-56624686D02*
X124874085Y-56719924D01*
X124874085Y-56719924D02*
X124897895Y-56767543D01*
X124897895Y-56767543D02*
X124921704Y-56791353D01*
X124921704Y-56791353D02*
X124969323Y-56815162D01*
D11*
G36*
X111389933Y-70415000D02*
G01*
X111389933Y-69910272D01*
X111482257Y-69910272D01*
X111482257Y-70322065D01*
X111893928Y-70322065D01*
X111893928Y-70415000D01*
X111389933Y-70415000D01*
G37*
G36*
X112364829Y-69914302D02*
G01*
X112388032Y-69924193D01*
X112408029Y-69939581D01*
X112423569Y-69959609D01*
X112433644Y-69982934D01*
X112437002Y-70008457D01*
X112437002Y-70317547D01*
X112433644Y-70343101D01*
X112423569Y-70366517D01*
X112408029Y-70386484D01*
X112388032Y-70401933D01*
X112364829Y-70411733D01*
X112339427Y-70415000D01*
X112030460Y-70415000D01*
X112004845Y-70411733D01*
X111981489Y-70401933D01*
X111961523Y-70386484D01*
X111946074Y-70366517D01*
X111936274Y-70343101D01*
X111933007Y-70317547D01*
X111933007Y-70012365D01*
X112025331Y-70012365D01*
X112025331Y-70313639D01*
X112027773Y-70319623D01*
X112033879Y-70322065D01*
X112335153Y-70322065D01*
X112341015Y-70319623D01*
X112343579Y-70313639D01*
X112343579Y-70012365D01*
X112341015Y-70006503D01*
X112335153Y-70003939D01*
X112033879Y-70003939D01*
X112027773Y-70006503D01*
X112025331Y-70012365D01*
X111933007Y-70012365D01*
X111933007Y-70008457D01*
X111936274Y-69982934D01*
X111946074Y-69959609D01*
X111961523Y-69939581D01*
X111981489Y-69924193D01*
X112004845Y-69914302D01*
X112030460Y-69911004D01*
X112339427Y-69911004D01*
X112364829Y-69914302D01*
G37*
G36*
X112611147Y-70415000D02*
G01*
X112585594Y-70411733D01*
X112562177Y-70401933D01*
X112542210Y-70386484D01*
X112526762Y-70366517D01*
X112516961Y-70343101D01*
X112513695Y-70317547D01*
X112513695Y-70008457D01*
X112516961Y-69982934D01*
X112526762Y-69959609D01*
X112542210Y-69939581D01*
X112562177Y-69924193D01*
X112585594Y-69914302D01*
X112611147Y-69911004D01*
X112919748Y-69911004D01*
X112945272Y-69914302D01*
X112968597Y-69924193D01*
X112988686Y-69939581D01*
X113004256Y-69959609D01*
X113014331Y-69982934D01*
X113017690Y-70008457D01*
X113017690Y-70047658D01*
X112924389Y-70047658D01*
X112924389Y-70012365D01*
X112921824Y-70006503D01*
X112915840Y-70003939D01*
X112614567Y-70003939D01*
X112608583Y-70006503D01*
X112606140Y-70012365D01*
X112606140Y-70313639D01*
X112608583Y-70319623D01*
X112614567Y-70322065D01*
X112915840Y-70322065D01*
X112921824Y-70319623D01*
X112924389Y-70313639D01*
X112924389Y-70222780D01*
X112810327Y-70222780D01*
X112810327Y-70129724D01*
X113017690Y-70129724D01*
X113017690Y-70317547D01*
X113014331Y-70343101D01*
X113004256Y-70366517D01*
X112988686Y-70386484D01*
X112968597Y-70401933D01*
X112945272Y-70411733D01*
X112919748Y-70415000D01*
X112611147Y-70415000D01*
G37*
G36*
X113084612Y-70415000D02*
G01*
X113084612Y-69911004D01*
X113176325Y-69911004D01*
X113176325Y-70415000D01*
X113084612Y-70415000D01*
G37*
G36*
X113341434Y-70415000D02*
G01*
X113315727Y-70411733D01*
X113292341Y-70401933D01*
X113272465Y-70386515D01*
X113257048Y-70366639D01*
X113247247Y-70343253D01*
X113243981Y-70317547D01*
X113243981Y-70008457D01*
X113247247Y-69982781D01*
X113257048Y-69959487D01*
X113272465Y-69939550D01*
X113292341Y-69924193D01*
X113315727Y-69914302D01*
X113341434Y-69911004D01*
X113746632Y-69911004D01*
X113746632Y-70003939D01*
X113360851Y-70003939D01*
X113343021Y-70010289D01*
X113336427Y-70028241D01*
X113336427Y-70297763D01*
X113343021Y-70315471D01*
X113360851Y-70322065D01*
X113746632Y-70322065D01*
X113746632Y-70415000D01*
X113341434Y-70415000D01*
G37*
G36*
X114034106Y-70415000D02*
G01*
X114034106Y-69910272D01*
X114126430Y-69910272D01*
X114126430Y-70322065D01*
X114538101Y-70322065D01*
X114538101Y-70415000D01*
X114034106Y-70415000D01*
G37*
G36*
X114579867Y-70415000D02*
G01*
X114579867Y-69911004D01*
X115043684Y-69911004D01*
X115043684Y-70003939D01*
X114673290Y-70003939D01*
X114673290Y-70116413D01*
X114971388Y-70116413D01*
X114971388Y-70209591D01*
X114673290Y-70209591D01*
X114673290Y-70322065D01*
X115043684Y-70322065D01*
X115043684Y-70415000D01*
X114579867Y-70415000D01*
G37*
G36*
X115391608Y-70415000D02*
G01*
X115099738Y-69911004D01*
X115207205Y-69911004D01*
X115433129Y-70302770D01*
X115658932Y-69911004D01*
X115765910Y-69911004D01*
X115474284Y-70415000D01*
X115391608Y-70415000D01*
G37*
G36*
X115817690Y-70415000D02*
G01*
X115817690Y-69911004D01*
X116281507Y-69911004D01*
X116281507Y-70003939D01*
X115911113Y-70003939D01*
X115911113Y-70116413D01*
X116209211Y-70116413D01*
X116209211Y-70209591D01*
X115911113Y-70209591D01*
X115911113Y-70322065D01*
X116281507Y-70322065D01*
X116281507Y-70415000D01*
X115817690Y-70415000D01*
G37*
G36*
X116352948Y-70415000D02*
G01*
X116352948Y-69910272D01*
X116445272Y-69910272D01*
X116445272Y-70322065D01*
X116856943Y-70322065D01*
X116856943Y-70415000D01*
X116352948Y-70415000D01*
G37*
D10*
X124707419Y-76303258D02*
X124683609Y-76350877D01*
X124683609Y-76350877D02*
X124683609Y-76422306D01*
X124683609Y-76422306D02*
X124707419Y-76493734D01*
X124707419Y-76493734D02*
X124755038Y-76541353D01*
X124755038Y-76541353D02*
X124802657Y-76565163D01*
X124802657Y-76565163D02*
X124897895Y-76588972D01*
X124897895Y-76588972D02*
X124969323Y-76588972D01*
X124969323Y-76588972D02*
X125064561Y-76565163D01*
X125064561Y-76565163D02*
X125112180Y-76541353D01*
X125112180Y-76541353D02*
X125159800Y-76493734D01*
X125159800Y-76493734D02*
X125183609Y-76422306D01*
X125183609Y-76422306D02*
X125183609Y-76374687D01*
X125183609Y-76374687D02*
X125159800Y-76303258D01*
X125159800Y-76303258D02*
X125135990Y-76279449D01*
X125135990Y-76279449D02*
X124969323Y-76279449D01*
X124969323Y-76279449D02*
X124969323Y-76374687D01*
X125183609Y-76065163D02*
X124683609Y-76065163D01*
X124683609Y-76065163D02*
X125183609Y-75779449D01*
X125183609Y-75779449D02*
X124683609Y-75779449D01*
X125183609Y-75541353D02*
X124683609Y-75541353D01*
X124683609Y-75541353D02*
X124683609Y-75422305D01*
X124683609Y-75422305D02*
X124707419Y-75350877D01*
X124707419Y-75350877D02*
X124755038Y-75303258D01*
X124755038Y-75303258D02*
X124802657Y-75279448D01*
X124802657Y-75279448D02*
X124897895Y-75255639D01*
X124897895Y-75255639D02*
X124969323Y-75255639D01*
X124969323Y-75255639D02*
X125064561Y-75279448D01*
X125064561Y-75279448D02*
X125112180Y-75303258D01*
X125112180Y-75303258D02*
X125159800Y-75350877D01*
X125159800Y-75350877D02*
X125183609Y-75422305D01*
X125183609Y-75422305D02*
X125183609Y-75541353D01*
X116157419Y-64303258D02*
X116133609Y-64350877D01*
X116133609Y-64350877D02*
X116133609Y-64422306D01*
X116133609Y-64422306D02*
X116157419Y-64493734D01*
X116157419Y-64493734D02*
X116205038Y-64541353D01*
X116205038Y-64541353D02*
X116252657Y-64565163D01*
X116252657Y-64565163D02*
X116347895Y-64588972D01*
X116347895Y-64588972D02*
X116419323Y-64588972D01*
X116419323Y-64588972D02*
X116514561Y-64565163D01*
X116514561Y-64565163D02*
X116562180Y-64541353D01*
X116562180Y-64541353D02*
X116609800Y-64493734D01*
X116609800Y-64493734D02*
X116633609Y-64422306D01*
X116633609Y-64422306D02*
X116633609Y-64374687D01*
X116633609Y-64374687D02*
X116609800Y-64303258D01*
X116609800Y-64303258D02*
X116585990Y-64279449D01*
X116585990Y-64279449D02*
X116419323Y-64279449D01*
X116419323Y-64279449D02*
X116419323Y-64374687D01*
X116633609Y-64065163D02*
X116133609Y-64065163D01*
X116133609Y-64065163D02*
X116633609Y-63779449D01*
X116633609Y-63779449D02*
X116133609Y-63779449D01*
X116633609Y-63541353D02*
X116133609Y-63541353D01*
X116133609Y-63541353D02*
X116133609Y-63422305D01*
X116133609Y-63422305D02*
X116157419Y-63350877D01*
X116157419Y-63350877D02*
X116205038Y-63303258D01*
X116205038Y-63303258D02*
X116252657Y-63279448D01*
X116252657Y-63279448D02*
X116347895Y-63255639D01*
X116347895Y-63255639D02*
X116419323Y-63255639D01*
X116419323Y-63255639D02*
X116514561Y-63279448D01*
X116514561Y-63279448D02*
X116562180Y-63303258D01*
X116562180Y-63303258D02*
X116609800Y-63350877D01*
X116609800Y-63350877D02*
X116633609Y-63422305D01*
X116633609Y-63422305D02*
X116633609Y-63541353D01*
X111433609Y-58977068D02*
X111433609Y-59215163D01*
X111433609Y-59215163D02*
X110933609Y-59215163D01*
X110981228Y-58834210D02*
X110957419Y-58810401D01*
X110957419Y-58810401D02*
X110933609Y-58762782D01*
X110933609Y-58762782D02*
X110933609Y-58643734D01*
X110933609Y-58643734D02*
X110957419Y-58596115D01*
X110957419Y-58596115D02*
X110981228Y-58572306D01*
X110981228Y-58572306D02*
X111028847Y-58548496D01*
X111028847Y-58548496D02*
X111076466Y-58548496D01*
X111076466Y-58548496D02*
X111147895Y-58572306D01*
X111147895Y-58572306D02*
X111433609Y-58858020D01*
X111433609Y-58858020D02*
X111433609Y-58548496D01*
D12*
G36*
X111565519Y-72464000D02*
G01*
X111524487Y-72458773D01*
X111486971Y-72443092D01*
X111455024Y-72418375D01*
X111430307Y-72386428D01*
X111414626Y-72348961D01*
X111409399Y-72308075D01*
X111409399Y-72246526D01*
X111557313Y-72246526D01*
X111557313Y-72301822D01*
X111561221Y-72311397D01*
X111570795Y-72315304D01*
X112052833Y-72315304D01*
X112062407Y-72311397D01*
X112066510Y-72301822D01*
X112066510Y-72148438D01*
X112062407Y-72139254D01*
X112052833Y-72135346D01*
X111565519Y-72135346D01*
X111524487Y-72130071D01*
X111486971Y-72114244D01*
X111455024Y-72089478D01*
X111430307Y-72057775D01*
X111414626Y-72020454D01*
X111409399Y-71979226D01*
X111409399Y-71813532D01*
X111414626Y-71772695D01*
X111430307Y-71735374D01*
X111455024Y-71703330D01*
X111486971Y-71678710D01*
X111524487Y-71662883D01*
X111565519Y-71657607D01*
X112059867Y-71657607D01*
X112100509Y-71662883D01*
X112137634Y-71678710D01*
X112169483Y-71703330D01*
X112194298Y-71735374D01*
X112210418Y-71772695D01*
X112215792Y-71813532D01*
X112215792Y-71875081D01*
X112066510Y-71875081D01*
X112066510Y-71819785D01*
X112062407Y-71810406D01*
X112052833Y-71806302D01*
X111570795Y-71806302D01*
X111561221Y-71810406D01*
X111557313Y-71819785D01*
X111557313Y-71973169D01*
X111561221Y-71982548D01*
X111570795Y-71986260D01*
X112059867Y-71986260D01*
X112100509Y-71991585D01*
X112137634Y-72007558D01*
X112169483Y-72032227D01*
X112194298Y-72064027D01*
X112210418Y-72101201D01*
X112215792Y-72142381D01*
X112215792Y-72308075D01*
X112210418Y-72348961D01*
X112194298Y-72386428D01*
X112169483Y-72418375D01*
X112137634Y-72443092D01*
X112100509Y-72458773D01*
X112059867Y-72464000D01*
X111565519Y-72464000D01*
G37*
G36*
X112339476Y-72464000D02*
G01*
X112339476Y-71657607D01*
X113081584Y-71657607D01*
X113081584Y-71806302D01*
X112488953Y-71806302D01*
X112488953Y-71986260D01*
X112965910Y-71986260D01*
X112965910Y-72135346D01*
X112488953Y-72135346D01*
X112488953Y-72315304D01*
X113081584Y-72315304D01*
X113081584Y-72464000D01*
X112339476Y-72464000D01*
G37*
G36*
X113170488Y-72464000D02*
G01*
X113170488Y-71657607D01*
X113332665Y-71657607D01*
X113624975Y-72006191D01*
X113916699Y-71657607D01*
X114079658Y-71657607D01*
X114079658Y-72464000D01*
X113930963Y-72464000D01*
X113930963Y-71872541D01*
X113624975Y-72237147D01*
X113318401Y-71873323D01*
X113318401Y-72464000D01*
X113170488Y-72464000D01*
G37*
D13*
X117477500Y-62945276D02*
X117477500Y-63454724D01*
X118522500Y-62945276D02*
X118522500Y-63454724D01*
X122977500Y-62945276D02*
X122977500Y-63454724D01*
X124022500Y-62945276D02*
X124022500Y-63454724D01*
X122977500Y-55945276D02*
X122977500Y-56454724D01*
X124022500Y-55945276D02*
X124022500Y-56454724D01*
D14*
G36*
X111102012Y-68236684D02*
G01*
X111101869Y-68236902D01*
X111101382Y-68236936D01*
X111100870Y-68236819D01*
X111101092Y-68236646D01*
X111101843Y-68236589D01*
X111102012Y-68236684D01*
G37*
G36*
X113009015Y-68633982D02*
G01*
X113011281Y-68635588D01*
X113012886Y-68637828D01*
X113013739Y-68640565D01*
X113013821Y-68641273D01*
X113013823Y-68641606D01*
X113013777Y-68642064D01*
X113013673Y-68642683D01*
X113013499Y-68643495D01*
X113013246Y-68644537D01*
X113012902Y-68645841D01*
X113012457Y-68647443D01*
X113011900Y-68649377D01*
X113011221Y-68651678D01*
X113010408Y-68654379D01*
X113009452Y-68657515D01*
X113008342Y-68661121D01*
X113007067Y-68665231D01*
X113005616Y-68669879D01*
X113003979Y-68675100D01*
X113002145Y-68680928D01*
X113000104Y-68687398D01*
X112997844Y-68694544D01*
X112995356Y-68702400D01*
X112992628Y-68711001D01*
X112989650Y-68720381D01*
X112986412Y-68730574D01*
X112982902Y-68741616D01*
X112979371Y-68752721D01*
X112975176Y-68765905D01*
X112971228Y-68778292D01*
X112967532Y-68789873D01*
X112964089Y-68800641D01*
X112960902Y-68810588D01*
X112957974Y-68819705D01*
X112955307Y-68827984D01*
X112952904Y-68835418D01*
X112950767Y-68841997D01*
X112948900Y-68847715D01*
X112947304Y-68852562D01*
X112945983Y-68856532D01*
X112944939Y-68859614D01*
X112944175Y-68861802D01*
X112943693Y-68863088D01*
X112943529Y-68863440D01*
X112942363Y-68864821D01*
X112940866Y-68866173D01*
X112940337Y-68866560D01*
X112938336Y-68867918D01*
X112915777Y-68868048D01*
X112910320Y-68868079D01*
X112905736Y-68868100D01*
X112901941Y-68868098D01*
X112898846Y-68868062D01*
X112896366Y-68867983D01*
X112894415Y-68867848D01*
X112892906Y-68867647D01*
X112891754Y-68867369D01*
X112890871Y-68867003D01*
X112890172Y-68866538D01*
X112889570Y-68865963D01*
X112888979Y-68865268D01*
X112888429Y-68864584D01*
X112886977Y-68862791D01*
X112886673Y-68841116D01*
X112886549Y-68833600D01*
X112886397Y-68826907D01*
X112886205Y-68820899D01*
X112885967Y-68815438D01*
X112885671Y-68810387D01*
X112885310Y-68805608D01*
X112884875Y-68800964D01*
X112884355Y-68796318D01*
X112883742Y-68791531D01*
X112883076Y-68786800D01*
X112880985Y-68774532D01*
X112878407Y-68763076D01*
X112875335Y-68752410D01*
X112871763Y-68742516D01*
X112867683Y-68733373D01*
X112863088Y-68724961D01*
X112860532Y-68720926D01*
X112856238Y-68715064D01*
X112851763Y-68710120D01*
X112847066Y-68706062D01*
X112842104Y-68702856D01*
X112836838Y-68700472D01*
X112832739Y-68699223D01*
X112829504Y-68698555D01*
X112825369Y-68697922D01*
X112820391Y-68697328D01*
X112814630Y-68696776D01*
X112808144Y-68696269D01*
X112800992Y-68695810D01*
X112793232Y-68695402D01*
X112784924Y-68695049D01*
X112776126Y-68694753D01*
X112766896Y-68694518D01*
X112757293Y-68694348D01*
X112747376Y-68694244D01*
X112740353Y-68694214D01*
X112713245Y-68694163D01*
X112612086Y-69012033D01*
X112606661Y-69029084D01*
X112601305Y-69045921D01*
X112596025Y-69062521D01*
X112590831Y-69078859D01*
X112585729Y-69094911D01*
X112580726Y-69110655D01*
X112575830Y-69126067D01*
X112571049Y-69141122D01*
X112566389Y-69155797D01*
X112561860Y-69170069D01*
X112557467Y-69183913D01*
X112553219Y-69197307D01*
X112549123Y-69210226D01*
X112545186Y-69222646D01*
X112541417Y-69234545D01*
X112537822Y-69245898D01*
X112534409Y-69256682D01*
X112531186Y-69266872D01*
X112528160Y-69276446D01*
X112525338Y-69285380D01*
X112522728Y-69293650D01*
X112520338Y-69301231D01*
X112518175Y-69308102D01*
X112516246Y-69314237D01*
X112514560Y-69319613D01*
X112513123Y-69324207D01*
X112511943Y-69327995D01*
X112511028Y-69330953D01*
X112510385Y-69333057D01*
X112510021Y-69334284D01*
X112509941Y-69334585D01*
X112509400Y-69337709D01*
X112508985Y-69341219D01*
X112508708Y-69344866D01*
X112508582Y-69348402D01*
X112508619Y-69351580D01*
X112508830Y-69354152D01*
X112508947Y-69354857D01*
X112510061Y-69358817D01*
X112511783Y-69362199D01*
X112514223Y-69365165D01*
X112517493Y-69367877D01*
X112518106Y-69368303D01*
X112520144Y-69369605D01*
X112522284Y-69370794D01*
X112524635Y-69371910D01*
X112527303Y-69372989D01*
X112530398Y-69374070D01*
X112534028Y-69375192D01*
X112538300Y-69376393D01*
X112543323Y-69377712D01*
X112547772Y-69378832D01*
X112558696Y-69381441D01*
X112568842Y-69383647D01*
X112578298Y-69385467D01*
X112587150Y-69386915D01*
X112595485Y-69388007D01*
X112602012Y-69388650D01*
X112605127Y-69388922D01*
X112607443Y-69389165D01*
X112609118Y-69389407D01*
X112610312Y-69389677D01*
X112611182Y-69390003D01*
X112611888Y-69390414D01*
X112611895Y-69390419D01*
X112614079Y-69392450D01*
X112615442Y-69394965D01*
X112615918Y-69397271D01*
X112615942Y-69397962D01*
X112615885Y-69398763D01*
X112615723Y-69399764D01*
X112615431Y-69401053D01*
X112614984Y-69402718D01*
X112614356Y-69404850D01*
X112613521Y-69407536D01*
X112612456Y-69410865D01*
X112611135Y-69414926D01*
X112609533Y-69419808D01*
X112609530Y-69419817D01*
X112607663Y-69425445D01*
X112606058Y-69430187D01*
X112604701Y-69434078D01*
X112603581Y-69437152D01*
X112602684Y-69439444D01*
X112601999Y-69440989D01*
X112601564Y-69441751D01*
X112600213Y-69443181D01*
X112598459Y-69444485D01*
X112597805Y-69444853D01*
X112595417Y-69446064D01*
X112405686Y-69446063D01*
X112215954Y-69446063D01*
X112213875Y-69445034D01*
X112211645Y-69443416D01*
X112210058Y-69441149D01*
X112209206Y-69438370D01*
X112209160Y-69438028D01*
X112209111Y-69437377D01*
X112209134Y-69436648D01*
X112209254Y-69435751D01*
X112209494Y-69434597D01*
X112209881Y-69433097D01*
X112210439Y-69431162D01*
X112211193Y-69428704D01*
X112212169Y-69425632D01*
X112213390Y-69421858D01*
X112214882Y-69417294D01*
X112215456Y-69415544D01*
X112216867Y-69411286D01*
X112218227Y-69407259D01*
X112219499Y-69403567D01*
X112220646Y-69400313D01*
X112221632Y-69397599D01*
X112222421Y-69395529D01*
X112222974Y-69394205D01*
X112223185Y-69393802D01*
X112224645Y-69392149D01*
X112226541Y-69390664D01*
X112228528Y-69389588D01*
X112229809Y-69389202D01*
X112230745Y-69389090D01*
X112232462Y-69388921D01*
X112234789Y-69388712D01*
X112237548Y-69388478D01*
X112240567Y-69388235D01*
X112240914Y-69388208D01*
X112245148Y-69387861D01*
X112249935Y-69387440D01*
X112255134Y-69386961D01*
X112260606Y-69386437D01*
X112266209Y-69385882D01*
X112271803Y-69385312D01*
X112277247Y-69384741D01*
X112282401Y-69384183D01*
X112287124Y-69383653D01*
X112291277Y-69383165D01*
X112294718Y-69382734D01*
X112296731Y-69382458D01*
X112302967Y-69381496D01*
X112308811Y-69380470D01*
X112314131Y-69379407D01*
X112318795Y-69378333D01*
X112322674Y-69377276D01*
X112323712Y-69376951D01*
X112329303Y-69374860D01*
X112334944Y-69372254D01*
X112340391Y-69369267D01*
X112345398Y-69366035D01*
X112349721Y-69362693D01*
X112350205Y-69362271D01*
X112354888Y-69357573D01*
X112359286Y-69352054D01*
X112363321Y-69345828D01*
X112366917Y-69339012D01*
X112369301Y-69333532D01*
X112369511Y-69332913D01*
X112370001Y-69331412D01*
X112370764Y-69329056D01*
X112371788Y-69325875D01*
X112373067Y-69321897D01*
X112374590Y-69317149D01*
X112376348Y-69311661D01*
X112378333Y-69305460D01*
X112380535Y-69298575D01*
X112382946Y-69291034D01*
X112385556Y-69282865D01*
X112388356Y-69274097D01*
X112391338Y-69264759D01*
X112394493Y-69254877D01*
X112397811Y-69244481D01*
X112401283Y-69233599D01*
X112404900Y-69222260D01*
X112408654Y-69210491D01*
X112412535Y-69198321D01*
X112416535Y-69185778D01*
X112420643Y-69172890D01*
X112424853Y-69159687D01*
X112429153Y-69146195D01*
X112433535Y-69132444D01*
X112437991Y-69118462D01*
X112442511Y-69104276D01*
X112447086Y-69089916D01*
X112451708Y-69075410D01*
X112456366Y-69060786D01*
X112461053Y-69046071D01*
X112465759Y-69031296D01*
X112470475Y-69016487D01*
X112475192Y-69001674D01*
X112479901Y-68986884D01*
X112484593Y-68972146D01*
X112489260Y-68957488D01*
X112493891Y-68942939D01*
X112498479Y-68928526D01*
X112503013Y-68914278D01*
X112507486Y-68900224D01*
X112511887Y-68886391D01*
X112516209Y-68872808D01*
X112520441Y-68859504D01*
X112524576Y-68846506D01*
X112528603Y-68833843D01*
X112532514Y-68821544D01*
X112536301Y-68809636D01*
X112539953Y-68798147D01*
X112543462Y-68787107D01*
X112546819Y-68776543D01*
X112550014Y-68766484D01*
X112553040Y-68756958D01*
X112555886Y-68747994D01*
X112558544Y-68739619D01*
X112561005Y-68731862D01*
X112563260Y-68724752D01*
X112565300Y-68718316D01*
X112567115Y-68712583D01*
X112568697Y-68707581D01*
X112570037Y-68703339D01*
X112571125Y-68699884D01*
X112571953Y-68697246D01*
X112572512Y-68695452D01*
X112572792Y-68694531D01*
X112572825Y-68694407D01*
X112572360Y-68694257D01*
X112571018Y-68694139D01*
X112568883Y-68694051D01*
X112566038Y-68693993D01*
X112562568Y-68693962D01*
X112558554Y-68693960D01*
X112554080Y-68693983D01*
X112549230Y-68694031D01*
X112544087Y-68694102D01*
X112538734Y-68694196D01*
X112533254Y-68694312D01*
X112527730Y-68694448D01*
X112522247Y-68694603D01*
X112516887Y-68694776D01*
X112511733Y-68694966D01*
X112506869Y-68695171D01*
X112502747Y-68695372D01*
X112496666Y-68695715D01*
X112490677Y-68696099D01*
X112484880Y-68696517D01*
X112479373Y-68696958D01*
X112474258Y-68697414D01*
X112469635Y-68697874D01*
X112465602Y-68698331D01*
X112462261Y-68698774D01*
X112459711Y-68699194D01*
X112458477Y-68699463D01*
X112453409Y-68701090D01*
X112447850Y-68703500D01*
X112441797Y-68706695D01*
X112435246Y-68710676D01*
X112428194Y-68715448D01*
X112420637Y-68721012D01*
X112412572Y-68727371D01*
X112403995Y-68734527D01*
X112394903Y-68742483D01*
X112385293Y-68751241D01*
X112383519Y-68752892D01*
X112375557Y-68760543D01*
X112367365Y-68768825D01*
X112359040Y-68777621D01*
X112350680Y-68786816D01*
X112342382Y-68796294D01*
X112334243Y-68805939D01*
X112326360Y-68815635D01*
X112318830Y-68825266D01*
X112311751Y-68834717D01*
X112305220Y-68843872D01*
X112299333Y-68852614D01*
X112297517Y-68855439D01*
X112295572Y-68858493D01*
X112294051Y-68860847D01*
X112292869Y-68862615D01*
X112291938Y-68863909D01*
X112291174Y-68864844D01*
X112290490Y-68865532D01*
X112289801Y-68866087D01*
X112289085Y-68866580D01*
X112287063Y-68867918D01*
X112263711Y-68867918D01*
X112240359Y-68867918D01*
X112238544Y-68866534D01*
X112236660Y-68864530D01*
X112235404Y-68861998D01*
X112234925Y-68859241D01*
X112234924Y-68859166D01*
X112235052Y-68858508D01*
X112235439Y-68857053D01*
X112236088Y-68854792D01*
X112237001Y-68851718D01*
X112238181Y-68847822D01*
X112239630Y-68843098D01*
X112241350Y-68837537D01*
X112243345Y-68831132D01*
X112245615Y-68823875D01*
X112248165Y-68815758D01*
X112250995Y-68806774D01*
X112254110Y-68796914D01*
X112257510Y-68786172D01*
X112261198Y-68774539D01*
X112265177Y-68762008D01*
X112269234Y-68749248D01*
X112272383Y-68739354D01*
X112275461Y-68729688D01*
X112278454Y-68720292D01*
X112281351Y-68711207D01*
X112284137Y-68702473D01*
X112286800Y-68694132D01*
X112289327Y-68686223D01*
X112291704Y-68678788D01*
X112293919Y-68671869D01*
X112295958Y-68665504D01*
X112297809Y-68659736D01*
X112299458Y-68654605D01*
X112300892Y-68650152D01*
X112302098Y-68646417D01*
X112303064Y-68643442D01*
X112303776Y-68641268D01*
X112304220Y-68639934D01*
X112304376Y-68639499D01*
X112305992Y-68636943D01*
X112308292Y-68634850D01*
X112310021Y-68633862D01*
X112310164Y-68633807D01*
X112310358Y-68633754D01*
X112310624Y-68633704D01*
X112310982Y-68633655D01*
X112311452Y-68633609D01*
X112312057Y-68633565D01*
X112312816Y-68633523D01*
X112313749Y-68633483D01*
X112314879Y-68633446D01*
X112316225Y-68633410D01*
X112317808Y-68633376D01*
X112319648Y-68633344D01*
X112321767Y-68633313D01*
X112324185Y-68633285D01*
X112326923Y-68633258D01*
X112330002Y-68633233D01*
X112333441Y-68633209D01*
X112337262Y-68633187D01*
X112341486Y-68633166D01*
X112346133Y-68633147D01*
X112351224Y-68633129D01*
X112356779Y-68633112D01*
X112362819Y-68633097D01*
X112369365Y-68633083D01*
X112376438Y-68633070D01*
X112384058Y-68633058D01*
X112392246Y-68633048D01*
X112401023Y-68633038D01*
X112410408Y-68633029D01*
X112420424Y-68633021D01*
X112431091Y-68633014D01*
X112442428Y-68633008D01*
X112454458Y-68633002D01*
X112467200Y-68632997D01*
X112480676Y-68632993D01*
X112494905Y-68632990D01*
X112509909Y-68632987D01*
X112525709Y-68632984D01*
X112542325Y-68632982D01*
X112559777Y-68632980D01*
X112578087Y-68632979D01*
X112597275Y-68632977D01*
X112617361Y-68632976D01*
X112638367Y-68632976D01*
X112659432Y-68632975D01*
X113006911Y-68632964D01*
X113009015Y-68633982D01*
G37*
G36*
X111786965Y-68633982D02*
G01*
X111789232Y-68635588D01*
X111790838Y-68637831D01*
X111791695Y-68640574D01*
X111791778Y-68641282D01*
X111791801Y-68641974D01*
X111791744Y-68642778D01*
X111791581Y-68643784D01*
X111791287Y-68645080D01*
X111790838Y-68646755D01*
X111790207Y-68648898D01*
X111789370Y-68651598D01*
X111788302Y-68654944D01*
X111786978Y-68659024D01*
X111785416Y-68663796D01*
X111783553Y-68669425D01*
X111781951Y-68674167D01*
X111780597Y-68678057D01*
X111779480Y-68681129D01*
X111778586Y-68683415D01*
X111777904Y-68684951D01*
X111777481Y-68685694D01*
X111775933Y-68687380D01*
X111773978Y-68688636D01*
X111771474Y-68689517D01*
X111768280Y-68690076D01*
X111765486Y-68690310D01*
X111760342Y-68690702D01*
X111754439Y-68691328D01*
X111747941Y-68692160D01*
X111741011Y-68693170D01*
X111733814Y-68694330D01*
X111726514Y-68695615D01*
X111719276Y-68696995D01*
X111712263Y-68698444D01*
X111705641Y-68699933D01*
X111700819Y-68701115D01*
X111693882Y-68703086D01*
X111687760Y-68705289D01*
X111682343Y-68707813D01*
X111677522Y-68710746D01*
X111673187Y-68714178D01*
X111669228Y-68718196D01*
X111665535Y-68722889D01*
X111661999Y-68728347D01*
X111658510Y-68734658D01*
X111657925Y-68735801D01*
X111656577Y-68738527D01*
X111655235Y-68741366D01*
X111654033Y-68744022D01*
X111653108Y-68746200D01*
X111652932Y-68746647D01*
X111652709Y-68747304D01*
X111652208Y-68748842D01*
X111651438Y-68751228D01*
X111650410Y-68754426D01*
X111649136Y-68758403D01*
X111647626Y-68763126D01*
X111645891Y-68768559D01*
X111643941Y-68774669D01*
X111641788Y-68781422D01*
X111639442Y-68788784D01*
X111636915Y-68796720D01*
X111634216Y-68805197D01*
X111631357Y-68814181D01*
X111628348Y-68823638D01*
X111625201Y-68833533D01*
X111621926Y-68843832D01*
X111618534Y-68854503D01*
X111615035Y-68865509D01*
X111611441Y-68876818D01*
X111607763Y-68888396D01*
X111604010Y-68900207D01*
X111600195Y-68912219D01*
X111596327Y-68924398D01*
X111592418Y-68936708D01*
X111588478Y-68949117D01*
X111584518Y-68961590D01*
X111580550Y-68974093D01*
X111576583Y-68986592D01*
X111572629Y-68999053D01*
X111568698Y-69011442D01*
X111564801Y-69023726D01*
X111560949Y-69035869D01*
X111557153Y-69047837D01*
X111553424Y-69059598D01*
X111549772Y-69071117D01*
X111546209Y-69082359D01*
X111542744Y-69093291D01*
X111539389Y-69103879D01*
X111536155Y-69114088D01*
X111533052Y-69123885D01*
X111530092Y-69133235D01*
X111527284Y-69142105D01*
X111524641Y-69150461D01*
X111522172Y-69158268D01*
X111519888Y-69165492D01*
X111517801Y-69172100D01*
X111515921Y-69178057D01*
X111514259Y-69183329D01*
X111512825Y-69187882D01*
X111511631Y-69191683D01*
X111510687Y-69194697D01*
X111510004Y-69196890D01*
X111509617Y-69198150D01*
X111506599Y-69208747D01*
X111503915Y-69219471D01*
X111501600Y-69230141D01*
X111499689Y-69240573D01*
X111498221Y-69250587D01*
X111497229Y-69260000D01*
X111497131Y-69261243D01*
X111496937Y-69264690D01*
X111496815Y-69268712D01*
X111496762Y-69273128D01*
X111496774Y-69277760D01*
X111496849Y-69282429D01*
X111496982Y-69286954D01*
X111497170Y-69291157D01*
X111497410Y-69294859D01*
X111497698Y-69297880D01*
X111497876Y-69299188D01*
X111499352Y-69306675D01*
X111501374Y-69313690D01*
X111504009Y-69320380D01*
X111507326Y-69326890D01*
X111511395Y-69333367D01*
X111516283Y-69339957D01*
X111518006Y-69342083D01*
X111523129Y-69347888D01*
X111528433Y-69353070D01*
X111534060Y-69357735D01*
X111540155Y-69361987D01*
X111546860Y-69365932D01*
X111554318Y-69369675D01*
X111557786Y-69371245D01*
X111566550Y-69374675D01*
X111576090Y-69377602D01*
X111586361Y-69380020D01*
X111597317Y-69381921D01*
X111608913Y-69383301D01*
X111621103Y-69384151D01*
X111633842Y-69384466D01*
X111647085Y-69384239D01*
X111648376Y-69384189D01*
X111662700Y-69383361D01*
X111676281Y-69382062D01*
X111689231Y-69380264D01*
X111701659Y-69377937D01*
X111713676Y-69375053D01*
X111725392Y-69371583D01*
X111736916Y-69367498D01*
X111748359Y-69362771D01*
X111759830Y-69357371D01*
X111768447Y-69352902D01*
X111778510Y-69347273D01*
X111787791Y-69341613D01*
X111796464Y-69335794D01*
X111804700Y-69329686D01*
X111812673Y-69323161D01*
X111820556Y-69316090D01*
X111828522Y-69308343D01*
X111829575Y-69307277D01*
X111837951Y-69298448D01*
X111845703Y-69289598D01*
X111852943Y-69280573D01*
X111859786Y-69271217D01*
X111866345Y-69261375D01*
X111872733Y-69250890D01*
X111879065Y-69239606D01*
X111879245Y-69239272D01*
X111881543Y-69234948D01*
X111883672Y-69230793D01*
X111885674Y-69226706D01*
X111887589Y-69222586D01*
X111889459Y-69218331D01*
X111891326Y-69213841D01*
X111893229Y-69209015D01*
X111895211Y-69203751D01*
X111897313Y-69197948D01*
X111899575Y-69191506D01*
X111902039Y-69184322D01*
X111904097Y-69178231D01*
X111909573Y-69161867D01*
X111915088Y-69145250D01*
X111920658Y-69128327D01*
X111926299Y-69111048D01*
X111932029Y-69093360D01*
X111937862Y-69075212D01*
X111943816Y-69056553D01*
X111949907Y-69037332D01*
X111956150Y-69017496D01*
X111962564Y-68996995D01*
X111969163Y-68975777D01*
X111975964Y-68953791D01*
X111982984Y-68930986D01*
X111990239Y-68907309D01*
X111990762Y-68905597D01*
X111994069Y-68894758D01*
X111997102Y-68884771D01*
X111999879Y-68875574D01*
X112002417Y-68867105D01*
X112004732Y-68859302D01*
X112006843Y-68852102D01*
X112008768Y-68845444D01*
X112010522Y-68839264D01*
X112012124Y-68833501D01*
X112013591Y-68828092D01*
X112014940Y-68822976D01*
X112016189Y-68818089D01*
X112017355Y-68813370D01*
X112018455Y-68808757D01*
X112019508Y-68804186D01*
X112020529Y-68799597D01*
X112021278Y-68796138D01*
X112023370Y-68785958D01*
X112025101Y-68776623D01*
X112026477Y-68768092D01*
X112027504Y-68760322D01*
X112028188Y-68753271D01*
X112028535Y-68746897D01*
X112028584Y-68743842D01*
X112028504Y-68739330D01*
X112028227Y-68735562D01*
X112027716Y-68732339D01*
X112026936Y-68729456D01*
X112025852Y-68726715D01*
X112025415Y-68725793D01*
X112023126Y-68722138D01*
X112019928Y-68718581D01*
X112015868Y-68715151D01*
X112010994Y-68711877D01*
X112005355Y-68708788D01*
X111998998Y-68705913D01*
X111991971Y-68703283D01*
X111984840Y-68701070D01*
X111980269Y-68699846D01*
X111974954Y-68698535D01*
X111969106Y-68697180D01*
X111962932Y-68695824D01*
X111956642Y-68694512D01*
X111950442Y-68693286D01*
X111944543Y-68692191D01*
X111939152Y-68691270D01*
X111934713Y-68690598D01*
X111931452Y-68690108D01*
X111928982Y-68689622D01*
X111927138Y-68689070D01*
X111925756Y-68688386D01*
X111924668Y-68687501D01*
X111923711Y-68686347D01*
X111923449Y-68685973D01*
X111922689Y-68684375D01*
X111922184Y-68682358D01*
X111922116Y-68681842D01*
X111922071Y-68681160D01*
X111922093Y-68680417D01*
X111922208Y-68679523D01*
X111922440Y-68678387D01*
X111922816Y-68676920D01*
X111923360Y-68675031D01*
X111924097Y-68672629D01*
X111925054Y-68669625D01*
X111926254Y-68665929D01*
X111927724Y-68661449D01*
X111928413Y-68659355D01*
X111930163Y-68654096D01*
X111931739Y-68649461D01*
X111933122Y-68645501D01*
X111934295Y-68642267D01*
X111935238Y-68639811D01*
X111935933Y-68638185D01*
X111936277Y-68637545D01*
X111937781Y-68635919D01*
X111939813Y-68634485D01*
X111940144Y-68634305D01*
X111942711Y-68632964D01*
X112106831Y-68632964D01*
X112121730Y-68632964D01*
X112135700Y-68632965D01*
X112148770Y-68632965D01*
X112160971Y-68632967D01*
X112172333Y-68632968D01*
X112182887Y-68632971D01*
X112192663Y-68632975D01*
X112201691Y-68632981D01*
X112210002Y-68632987D01*
X112217625Y-68632995D01*
X112224592Y-68633006D01*
X112230932Y-68633018D01*
X112236676Y-68633032D01*
X112241854Y-68633048D01*
X112246497Y-68633067D01*
X112250634Y-68633089D01*
X112254297Y-68633113D01*
X112257515Y-68633141D01*
X112260319Y-68633171D01*
X112262738Y-68633205D01*
X112264804Y-68633243D01*
X112266547Y-68633284D01*
X112267997Y-68633329D01*
X112269184Y-68633378D01*
X112270138Y-68633432D01*
X112270891Y-68633490D01*
X112271472Y-68633552D01*
X112271911Y-68633619D01*
X112272240Y-68633691D01*
X112272487Y-68633768D01*
X112272684Y-68633851D01*
X112272824Y-68633920D01*
X112275144Y-68635553D01*
X112276676Y-68637709D01*
X112277455Y-68640442D01*
X112277546Y-68641359D01*
X112277576Y-68642132D01*
X112277549Y-68642926D01*
X112277439Y-68643835D01*
X112277221Y-68644951D01*
X112276867Y-68646365D01*
X112276353Y-68648171D01*
X112275653Y-68650460D01*
X112274741Y-68653326D01*
X112273591Y-68656860D01*
X112272178Y-68661154D01*
X112271164Y-68664221D01*
X112269317Y-68669759D01*
X112267733Y-68674416D01*
X112266397Y-68678229D01*
X112265297Y-68681235D01*
X112264418Y-68683471D01*
X112263747Y-68684976D01*
X112263288Y-68685763D01*
X112261488Y-68687561D01*
X112259193Y-68688872D01*
X112256272Y-68689749D01*
X112252593Y-68690246D01*
X112252135Y-68690280D01*
X112247964Y-68690646D01*
X112243029Y-68691215D01*
X112237497Y-68691957D01*
X112231536Y-68692845D01*
X112225314Y-68693850D01*
X112218998Y-68694944D01*
X112212756Y-68696099D01*
X112206756Y-68697287D01*
X112201165Y-68698479D01*
X112196151Y-68699649D01*
X112195795Y-68699737D01*
X112188728Y-68701632D01*
X112181841Y-68703753D01*
X112175253Y-68706052D01*
X112169081Y-68708481D01*
X112163446Y-68710991D01*
X112158466Y-68713535D01*
X112154258Y-68716063D01*
X112152356Y-68717400D01*
X112149933Y-68719401D01*
X112147151Y-68721999D01*
X112144195Y-68725003D01*
X112141249Y-68728219D01*
X112138497Y-68731453D01*
X112136552Y-68733935D01*
X112132893Y-68739115D01*
X112129144Y-68745006D01*
X112125291Y-68751637D01*
X112121315Y-68759041D01*
X112117202Y-68767249D01*
X112112935Y-68776294D01*
X112108497Y-68786206D01*
X112103873Y-68797017D01*
X112102892Y-68799368D01*
X112100836Y-68804357D01*
X112098872Y-68809216D01*
X112096978Y-68814017D01*
X112095127Y-68818831D01*
X112093295Y-68823732D01*
X112091459Y-68828789D01*
X112089593Y-68834076D01*
X112087673Y-68839663D01*
X112085675Y-68845624D01*
X112083574Y-68852029D01*
X112081345Y-68858951D01*
X112078964Y-68866461D01*
X112076407Y-68874632D01*
X112073649Y-68883535D01*
X112070666Y-68893241D01*
X112068593Y-68900020D01*
X112062432Y-68920178D01*
X112056521Y-68939468D01*
X112050841Y-68957947D01*
X112045377Y-68975667D01*
X112040110Y-68992685D01*
X112035023Y-69009054D01*
X112030099Y-69024830D01*
X112025320Y-69040068D01*
X112020670Y-69054822D01*
X112016130Y-69069148D01*
X112011683Y-69083099D01*
X112007313Y-69096731D01*
X112003001Y-69110099D01*
X111998731Y-69123257D01*
X111994484Y-69136260D01*
X111990244Y-69149164D01*
X111985994Y-69162022D01*
X111981715Y-69174890D01*
X111978915Y-69183270D01*
X111975557Y-69193210D01*
X111972406Y-69202319D01*
X111969423Y-69210696D01*
X111966569Y-69218438D01*
X111963804Y-69225642D01*
X111961087Y-69232406D01*
X111958379Y-69238827D01*
X111955640Y-69245004D01*
X111952831Y-69251033D01*
X111949912Y-69257011D01*
X111946843Y-69263037D01*
X111944707Y-69267103D01*
X111937109Y-69280789D01*
X111929228Y-69293727D01*
X111920956Y-69306065D01*
X111912180Y-69317952D01*
X111902793Y-69329536D01*
X111892682Y-69340967D01*
X111881740Y-69352392D01*
X111881163Y-69352971D01*
X111869578Y-69364178D01*
X111858001Y-69374526D01*
X111846306Y-69384107D01*
X111834366Y-69393012D01*
X111822056Y-69401334D01*
X111809251Y-69409164D01*
X111795824Y-69416594D01*
X111789485Y-69419861D01*
X111774630Y-69427047D01*
X111760067Y-69433451D01*
X111745624Y-69439133D01*
X111731132Y-69444152D01*
X111716419Y-69448569D01*
X111701315Y-69452443D01*
X111687968Y-69455368D01*
X111668204Y-69458996D01*
X111648726Y-69461779D01*
X111629387Y-69463728D01*
X111610041Y-69464855D01*
X111590542Y-69465171D01*
X111571811Y-69464735D01*
X111555076Y-69463723D01*
X111538804Y-69462109D01*
X111523049Y-69459904D01*
X111507865Y-69457117D01*
X111493306Y-69453759D01*
X111479426Y-69449840D01*
X111466278Y-69445369D01*
X111464532Y-69444713D01*
X111451979Y-69439506D01*
X111440023Y-69433677D01*
X111428691Y-69427251D01*
X111418015Y-69420253D01*
X111408024Y-69412709D01*
X111398748Y-69404642D01*
X111390217Y-69396079D01*
X111382460Y-69387045D01*
X111375508Y-69377565D01*
X111369391Y-69367663D01*
X111366402Y-69362066D01*
X111362498Y-69353760D01*
X111359192Y-69345428D01*
X111356423Y-69336874D01*
X111354132Y-69327904D01*
X111352258Y-69318323D01*
X111351475Y-69313347D01*
X111351174Y-69310701D01*
X111350915Y-69307280D01*
X111350701Y-69303267D01*
X111350537Y-69298848D01*
X111350425Y-69294205D01*
X111350370Y-69289524D01*
X111350374Y-69284988D01*
X111350441Y-69280781D01*
X111350575Y-69277088D01*
X111350736Y-69274578D01*
X111351901Y-69264257D01*
X111353728Y-69253360D01*
X111356197Y-69241987D01*
X111359289Y-69230238D01*
X111359822Y-69228389D01*
X111360054Y-69227636D01*
X111360569Y-69225997D01*
X111361357Y-69223497D01*
X111362409Y-69220166D01*
X111363718Y-69216030D01*
X111365275Y-69211118D01*
X111367070Y-69205457D01*
X111369095Y-69199075D01*
X111371340Y-69191999D01*
X111373798Y-69184257D01*
X111376460Y-69175876D01*
X111379316Y-69166885D01*
X111382358Y-69157310D01*
X111385577Y-69147180D01*
X111388965Y-69136522D01*
X111392512Y-69125363D01*
X111396209Y-69113732D01*
X111400049Y-69101656D01*
X111404022Y-69089162D01*
X111408120Y-69076279D01*
X111412333Y-69063034D01*
X111416653Y-69049453D01*
X111421071Y-69035567D01*
X111425579Y-69021400D01*
X111430167Y-69006982D01*
X111434827Y-68992340D01*
X111436668Y-68986553D01*
X111441352Y-68971837D01*
X111445965Y-68957337D01*
X111450499Y-68943079D01*
X111454946Y-68929092D01*
X111459297Y-68915403D01*
X111463543Y-68902040D01*
X111467675Y-68889030D01*
X111471685Y-68876400D01*
X111475564Y-68864179D01*
X111479304Y-68852393D01*
X111482894Y-68841070D01*
X111486328Y-68830239D01*
X111489596Y-68819925D01*
X111492689Y-68810157D01*
X111495599Y-68800963D01*
X111498317Y-68792369D01*
X111500834Y-68784404D01*
X111503141Y-68777095D01*
X111505230Y-68770469D01*
X111507093Y-68764554D01*
X111508719Y-68759378D01*
X111510102Y-68754967D01*
X111511231Y-68751350D01*
X111512099Y-68748555D01*
X111512696Y-68746607D01*
X111513013Y-68745536D01*
X111513060Y-68745359D01*
X111513742Y-68741615D01*
X111514179Y-68737592D01*
X111514360Y-68733571D01*
X111514276Y-68729833D01*
X111513915Y-68726660D01*
X111513781Y-68725995D01*
X111512277Y-68721162D01*
X111509995Y-68716732D01*
X111506916Y-68712690D01*
X111503022Y-68709021D01*
X111498294Y-68705713D01*
X111492716Y-68702750D01*
X111486268Y-68700120D01*
X111478933Y-68697808D01*
X111476091Y-68697056D01*
X111473056Y-68696333D01*
X111469289Y-68695504D01*
X111465004Y-68694612D01*
X111460418Y-68693699D01*
X111455746Y-68692808D01*
X111451204Y-68691980D01*
X111447008Y-68691259D01*
X111444522Y-68690859D01*
X111441789Y-68690406D01*
X111439294Y-68689935D01*
X111437234Y-68689488D01*
X111435809Y-68689107D01*
X111435339Y-68688927D01*
X111433306Y-68687377D01*
X111431710Y-68685185D01*
X111430713Y-68682629D01*
X111430457Y-68680586D01*
X111430610Y-68679736D01*
X111431045Y-68678098D01*
X111431723Y-68675787D01*
X111432606Y-68672920D01*
X111433654Y-68669612D01*
X111434829Y-68665980D01*
X111436092Y-68662140D01*
X111437403Y-68658208D01*
X111438725Y-68654300D01*
X111440017Y-68650532D01*
X111441242Y-68647020D01*
X111442360Y-68643881D01*
X111443333Y-68641230D01*
X111444121Y-68639183D01*
X111444686Y-68637857D01*
X111444903Y-68637453D01*
X111446761Y-68635497D01*
X111448778Y-68634212D01*
X111451282Y-68632964D01*
X111618072Y-68632964D01*
X111784862Y-68632964D01*
X111786965Y-68633982D01*
G37*
G36*
X113353321Y-68615310D02*
G01*
X113357967Y-68615393D01*
X113362033Y-68615524D01*
X113364494Y-68615648D01*
X113379219Y-68616811D01*
X113393584Y-68618481D01*
X113407513Y-68620641D01*
X113420929Y-68623276D01*
X113433755Y-68626369D01*
X113445915Y-68629905D01*
X113457332Y-68633866D01*
X113464848Y-68636887D01*
X113475752Y-68641901D01*
X113486873Y-68647713D01*
X113498055Y-68654236D01*
X113509141Y-68661381D01*
X113509982Y-68661952D01*
X113517642Y-68667169D01*
X113518862Y-68665725D01*
X113519445Y-68665056D01*
X113520592Y-68663758D01*
X113522228Y-68661915D01*
X113524276Y-68659615D01*
X113526660Y-68656941D01*
X113529304Y-68653981D01*
X113532131Y-68650819D01*
X113533035Y-68649809D01*
X113536424Y-68646034D01*
X113539250Y-68642918D01*
X113541575Y-68640396D01*
X113543466Y-68638400D01*
X113544987Y-68636866D01*
X113546202Y-68635726D01*
X113547176Y-68634916D01*
X113547973Y-68634368D01*
X113548369Y-68634151D01*
X113550749Y-68632964D01*
X113575463Y-68632964D01*
X113580975Y-68632966D01*
X113585611Y-68632971D01*
X113589454Y-68632984D01*
X113592589Y-68633008D01*
X113595098Y-68633045D01*
X113597067Y-68633099D01*
X113598578Y-68633173D01*
X113599715Y-68633270D01*
X113600563Y-68633392D01*
X113601204Y-68633544D01*
X113601723Y-68633727D01*
X113602194Y-68633941D01*
X113604410Y-68635524D01*
X113606043Y-68637755D01*
X113606951Y-68640429D01*
X113607028Y-68640948D01*
X113607039Y-68641238D01*
X113607009Y-68641644D01*
X113606927Y-68642196D01*
X113606786Y-68642927D01*
X113606576Y-68643867D01*
X113606288Y-68645048D01*
X113605911Y-68646501D01*
X113605439Y-68648257D01*
X113604860Y-68650348D01*
X113604166Y-68652804D01*
X113603348Y-68655658D01*
X113602396Y-68658939D01*
X113601302Y-68662681D01*
X113600055Y-68666913D01*
X113598648Y-68671668D01*
X113597070Y-68676976D01*
X113595313Y-68682869D01*
X113593367Y-68689378D01*
X113591222Y-68696534D01*
X113588871Y-68704369D01*
X113586304Y-68712914D01*
X113583510Y-68722200D01*
X113580482Y-68732258D01*
X113577211Y-68743120D01*
X113573686Y-68754817D01*
X113569898Y-68767380D01*
X113567157Y-68776472D01*
X113563831Y-68787494D01*
X113560572Y-68798285D01*
X113557390Y-68808810D01*
X113554296Y-68819031D01*
X113551302Y-68828912D01*
X113548418Y-68838415D01*
X113545657Y-68847504D01*
X113543030Y-68856142D01*
X113540546Y-68864293D01*
X113538219Y-68871919D01*
X113536059Y-68878985D01*
X113534077Y-68885452D01*
X113532284Y-68891285D01*
X113530692Y-68896447D01*
X113529312Y-68900900D01*
X113528155Y-68904609D01*
X113527232Y-68907536D01*
X113526555Y-68909645D01*
X113526135Y-68910899D01*
X113525996Y-68911256D01*
X113524192Y-68913353D01*
X113521751Y-68915029D01*
X113518968Y-68916085D01*
X113518667Y-68916152D01*
X113517445Y-68916295D01*
X113515303Y-68916409D01*
X113512234Y-68916492D01*
X113508232Y-68916545D01*
X113503288Y-68916568D01*
X113497397Y-68916561D01*
X113492663Y-68916539D01*
X113487297Y-68916505D01*
X113482805Y-68916471D01*
X113479102Y-68916433D01*
X113476101Y-68916388D01*
X113473716Y-68916332D01*
X113471862Y-68916261D01*
X113470453Y-68916171D01*
X113469403Y-68916059D01*
X113468626Y-68915921D01*
X113468036Y-68915753D01*
X113467548Y-68915552D01*
X113467314Y-68915437D01*
X113465811Y-68914433D01*
X113464343Y-68913083D01*
X113463954Y-68912634D01*
X113462483Y-68910790D01*
X113462515Y-68904714D01*
X113462524Y-68903024D01*
X113462537Y-68900494D01*
X113462555Y-68897245D01*
X113462576Y-68893398D01*
X113462599Y-68889072D01*
X113462625Y-68884389D01*
X113462652Y-68879468D01*
X113462679Y-68874431D01*
X113462683Y-68873678D01*
X113462680Y-68860489D01*
X113462519Y-68848188D01*
X113462192Y-68836715D01*
X113461693Y-68826010D01*
X113461017Y-68816015D01*
X113460158Y-68806669D01*
X113459108Y-68797912D01*
X113457861Y-68789685D01*
X113456412Y-68781928D01*
X113454754Y-68774582D01*
X113452882Y-68767586D01*
X113450947Y-68761361D01*
X113447181Y-68751349D01*
X113442735Y-68741926D01*
X113437635Y-68733135D01*
X113431905Y-68725014D01*
X113425570Y-68717604D01*
X113421244Y-68713285D01*
X113414771Y-68707633D01*
X113408038Y-68702598D01*
X113400980Y-68698155D01*
X113393531Y-68694283D01*
X113385628Y-68690957D01*
X113377204Y-68688155D01*
X113368196Y-68685853D01*
X113358539Y-68684029D01*
X113348166Y-68682660D01*
X113337015Y-68681722D01*
X113331700Y-68681433D01*
X113319070Y-68681224D01*
X113306975Y-68681786D01*
X113295365Y-68683128D01*
X113284192Y-68685258D01*
X113273407Y-68688184D01*
X113262960Y-68691914D01*
X113257820Y-68694096D01*
X113247628Y-68699165D01*
X113237656Y-68705131D01*
X113227966Y-68711947D01*
X113218619Y-68719563D01*
X113209675Y-68727932D01*
X113201196Y-68737005D01*
X113195879Y-68743362D01*
X113188841Y-68752852D01*
X113182674Y-68762655D01*
X113177362Y-68772813D01*
X113172886Y-68783372D01*
X113169227Y-68794375D01*
X113166368Y-68805867D01*
X113164290Y-68817892D01*
X113163874Y-68821120D01*
X113163557Y-68824443D01*
X113163312Y-68828406D01*
X113163139Y-68832802D01*
X113163041Y-68837422D01*
X113163019Y-68842060D01*
X113163074Y-68846507D01*
X113163208Y-68850556D01*
X113163423Y-68854000D01*
X113163620Y-68855919D01*
X113165275Y-68865963D01*
X113167614Y-68875349D01*
X113170659Y-68884110D01*
X113174430Y-68892283D01*
X113178948Y-68899901D01*
X113184235Y-68907001D01*
X113190312Y-68913617D01*
X113197199Y-68919784D01*
X113204918Y-68925538D01*
X113205913Y-68926210D01*
X113208252Y-68927735D01*
X113210693Y-68929240D01*
X113213352Y-68930790D01*
X113216347Y-68932448D01*
X113219797Y-68934279D01*
X113223820Y-68936348D01*
X113228534Y-68938720D01*
X113231369Y-68940130D01*
X113241700Y-68945127D01*
X113251737Y-68949716D01*
X113261759Y-68954014D01*
X113272046Y-68958140D01*
X113282876Y-68962212D01*
X113288143Y-68964108D01*
X113303250Y-68969612D01*
X113317457Y-68975069D01*
X113330821Y-68980508D01*
X113343397Y-68985957D01*
X113355242Y-68991448D01*
X113366414Y-68997008D01*
X113376968Y-69002668D01*
X113386961Y-69008456D01*
X113396450Y-69014402D01*
X113405492Y-69020536D01*
X113414142Y-69026886D01*
X113422458Y-69033483D01*
X113423391Y-69034254D01*
X113426589Y-69037020D01*
X113430195Y-69040322D01*
X113434053Y-69044004D01*
X113438012Y-69047911D01*
X113441917Y-69051890D01*
X113445616Y-69055785D01*
X113448954Y-69059441D01*
X113451780Y-69062704D01*
X113452836Y-69063993D01*
X113459772Y-69073245D01*
X113465821Y-69082593D01*
X113471023Y-69092133D01*
X113475420Y-69101964D01*
X113479051Y-69112183D01*
X113481959Y-69122888D01*
X113484185Y-69134176D01*
X113485119Y-69140552D01*
X113485460Y-69143931D01*
X113485720Y-69148075D01*
X113485901Y-69152792D01*
X113486001Y-69157890D01*
X113486021Y-69163176D01*
X113485960Y-69168459D01*
X113485819Y-69173547D01*
X113485597Y-69178247D01*
X113485295Y-69182369D01*
X113485132Y-69183990D01*
X113482883Y-69200216D01*
X113479796Y-69216030D01*
X113475857Y-69231465D01*
X113471053Y-69246554D01*
X113465370Y-69261329D01*
X113458797Y-69275824D01*
X113451319Y-69290071D01*
X113442923Y-69304102D01*
X113433597Y-69317951D01*
X113428363Y-69325107D01*
X113420601Y-69334966D01*
X113412245Y-69344707D01*
X113403484Y-69354128D01*
X113394505Y-69363026D01*
X113385497Y-69371201D01*
X113384725Y-69371865D01*
X113374445Y-69380290D01*
X113363396Y-69388631D01*
X113351769Y-69396763D01*
X113339752Y-69404559D01*
X113327536Y-69411895D01*
X113315312Y-69418644D01*
X113309180Y-69421798D01*
X113293087Y-69429411D01*
X113276823Y-69436198D01*
X113260325Y-69442175D01*
X113243526Y-69447361D01*
X113226362Y-69451772D01*
X113208767Y-69455426D01*
X113190675Y-69458341D01*
X113172023Y-69460534D01*
X113161531Y-69461437D01*
X113159012Y-69461585D01*
X113155679Y-69461720D01*
X113151679Y-69461838D01*
X113147157Y-69461940D01*
X113142261Y-69462024D01*
X113137136Y-69462089D01*
X113131928Y-69462133D01*
X113126784Y-69462155D01*
X113121850Y-69462154D01*
X113117272Y-69462129D01*
X113113197Y-69462078D01*
X113109770Y-69462000D01*
X113107292Y-69461902D01*
X113091894Y-69460881D01*
X113077281Y-69459468D01*
X113063353Y-69457647D01*
X113050011Y-69455398D01*
X113037153Y-69452703D01*
X113024681Y-69449544D01*
X113012494Y-69445902D01*
X113003199Y-69442742D01*
X112991688Y-69438469D01*
X112981008Y-69434179D01*
X112971031Y-69429813D01*
X112961630Y-69425312D01*
X112952675Y-69420615D01*
X112944039Y-69415664D01*
X112941072Y-69413863D01*
X112934209Y-69409634D01*
X112932618Y-69411409D01*
X112931965Y-69412151D01*
X112930759Y-69413531D01*
X112929075Y-69415465D01*
X112926990Y-69417864D01*
X112924578Y-69420642D01*
X112921914Y-69423714D01*
X112919074Y-69426991D01*
X112917729Y-69428544D01*
X112914059Y-69432762D01*
X112910955Y-69436285D01*
X112908373Y-69439157D01*
X112906271Y-69441427D01*
X112904604Y-69443139D01*
X112903331Y-69444341D01*
X112902407Y-69445078D01*
X112902184Y-69445220D01*
X112899937Y-69446536D01*
X112874730Y-69446540D01*
X112868959Y-69446542D01*
X112864068Y-69446539D01*
X112859974Y-69446521D01*
X112856598Y-69446480D01*
X112853858Y-69446406D01*
X112851673Y-69446288D01*
X112849963Y-69446118D01*
X112848647Y-69445886D01*
X112847644Y-69445582D01*
X112846873Y-69445196D01*
X112846252Y-69444720D01*
X112845702Y-69444144D01*
X112845141Y-69443457D01*
X112844772Y-69442996D01*
X112843906Y-69441740D01*
X112843430Y-69440435D01*
X112843207Y-69438668D01*
X112843182Y-69438246D01*
X112843180Y-69437908D01*
X112843212Y-69437475D01*
X112843287Y-69436916D01*
X112843414Y-69436199D01*
X112843601Y-69435293D01*
X112843857Y-69434167D01*
X112844192Y-69432790D01*
X112844614Y-69431130D01*
X112845132Y-69429156D01*
X112845754Y-69426837D01*
X112846489Y-69424141D01*
X112847347Y-69421038D01*
X112848336Y-69417495D01*
X112849465Y-69413482D01*
X112850742Y-69408967D01*
X112852177Y-69403919D01*
X112853778Y-69398307D01*
X112855555Y-69392100D01*
X112857515Y-69385265D01*
X112859668Y-69377773D01*
X112862022Y-69369591D01*
X112864587Y-69360688D01*
X112867371Y-69351034D01*
X112870383Y-69340596D01*
X112873632Y-69329343D01*
X112877126Y-69317245D01*
X112880875Y-69304270D01*
X112882596Y-69298316D01*
X112886686Y-69284167D01*
X112890518Y-69270917D01*
X112894100Y-69258544D01*
X112897437Y-69247026D01*
X112900538Y-69236338D01*
X112903407Y-69226459D01*
X112906053Y-69217365D01*
X112908482Y-69209033D01*
X112910700Y-69201441D01*
X112912715Y-69194565D01*
X112914533Y-69188382D01*
X112916161Y-69182870D01*
X112917606Y-69178006D01*
X112918874Y-69173766D01*
X112919972Y-69170128D01*
X112920907Y-69167069D01*
X112921686Y-69164566D01*
X112922316Y-69162595D01*
X112922802Y-69161135D01*
X112923152Y-69160161D01*
X112923373Y-69159652D01*
X112923405Y-69159600D01*
X112925458Y-69157386D01*
X112928010Y-69155746D01*
X112929502Y-69155178D01*
X112930369Y-69155069D01*
X112932081Y-69154974D01*
X112934521Y-69154894D01*
X112937575Y-69154829D01*
X112941127Y-69154777D01*
X112945061Y-69154741D01*
X112949262Y-69154718D01*
X112953614Y-69154710D01*
X112958001Y-69154715D01*
X112962309Y-69154735D01*
X112966422Y-69154769D01*
X112970224Y-69154817D01*
X112973600Y-69154878D01*
X112976434Y-69154953D01*
X112978611Y-69155042D01*
X112980015Y-69155144D01*
X112980440Y-69155212D01*
X112982751Y-69156288D01*
X112984784Y-69158025D01*
X112985963Y-69159688D01*
X112986161Y-69160153D01*
X112986324Y-69160792D01*
X112986458Y-69161694D01*
X112986564Y-69162951D01*
X112986649Y-69164653D01*
X112986714Y-69166889D01*
X112986763Y-69169751D01*
X112986801Y-69173328D01*
X112986831Y-69177711D01*
X112986850Y-69181350D01*
X112987072Y-69196271D01*
X112987605Y-69210336D01*
X112988458Y-69223604D01*
X112989643Y-69236131D01*
X112991169Y-69247975D01*
X112993047Y-69259194D01*
X112995288Y-69269844D01*
X112997902Y-69279982D01*
X113000899Y-69289666D01*
X113004289Y-69298952D01*
X113008084Y-69307899D01*
X113011024Y-69314067D01*
X113016143Y-69323722D01*
X113021457Y-69332525D01*
X113027050Y-69340580D01*
X113033004Y-69347987D01*
X113039399Y-69354848D01*
X113046319Y-69361266D01*
X113053845Y-69367343D01*
X113053855Y-69367350D01*
X113061763Y-69372877D01*
X113070047Y-69377766D01*
X113078772Y-69382042D01*
X113088005Y-69385728D01*
X113097811Y-69388848D01*
X113108257Y-69391426D01*
X113119408Y-69393485D01*
X113131051Y-69395019D01*
X113134213Y-69395290D01*
X113138143Y-69395515D01*
X113142669Y-69395692D01*
X113147618Y-69395820D01*
X113152819Y-69395898D01*
X113158100Y-69395926D01*
X113163288Y-69395902D01*
X113168212Y-69395826D01*
X113172700Y-69395697D01*
X113176580Y-69395514D01*
X113179679Y-69395276D01*
X113179770Y-69395266D01*
X113193613Y-69393508D01*
X113206763Y-69391126D01*
X113219273Y-69388101D01*
X113231196Y-69384413D01*
X113242587Y-69380040D01*
X113253498Y-69374965D01*
X113263983Y-69369165D01*
X113274096Y-69362622D01*
X113281768Y-69356983D01*
X113284404Y-69354823D01*
X113287499Y-69352094D01*
X113290900Y-69348949D01*
X113294453Y-69345539D01*
X113298002Y-69342017D01*
X113301394Y-69338536D01*
X113304475Y-69335249D01*
X113307090Y-69332306D01*
X113308677Y-69330387D01*
X113315607Y-69320851D01*
X113321840Y-69310690D01*
X113327357Y-69299957D01*
X113332142Y-69288704D01*
X113336176Y-69276985D01*
X113339441Y-69264852D01*
X113341919Y-69252359D01*
X113343593Y-69239558D01*
X113344445Y-69226503D01*
X113344505Y-69224309D01*
X113344580Y-69219823D01*
X113344579Y-69216076D01*
X113344498Y-69212854D01*
X113344329Y-69209938D01*
X113344066Y-69207111D01*
X113343987Y-69206414D01*
X113342311Y-69195647D01*
X113339851Y-69185434D01*
X113336606Y-69175774D01*
X113332576Y-69166666D01*
X113327760Y-69158110D01*
X113322158Y-69150104D01*
X113315769Y-69142648D01*
X113308592Y-69135740D01*
X113300627Y-69129380D01*
X113291873Y-69123567D01*
X113282728Y-69118501D01*
X113277157Y-69115773D01*
X113270729Y-69112791D01*
X113263505Y-69109581D01*
X113255544Y-69106168D01*
X113246908Y-69102576D01*
X113237658Y-69098832D01*
X113227855Y-69094959D01*
X113217559Y-69090984D01*
X113206832Y-69086931D01*
X113200620Y-69084622D01*
X113190693Y-69080908D01*
X113181519Y-69077372D01*
X113172922Y-69073940D01*
X113164729Y-69070538D01*
X113156765Y-69067094D01*
X113148855Y-69063532D01*
X113140826Y-69059780D01*
X113133211Y-69056109D01*
X113125491Y-69052254D01*
X113118546Y-69048594D01*
X113112232Y-69045044D01*
X113106406Y-69041517D01*
X113100924Y-69037928D01*
X113095645Y-69034189D01*
X113091050Y-69030706D01*
X113081238Y-69022469D01*
X113072055Y-69013591D01*
X113063538Y-69004127D01*
X113055722Y-68994135D01*
X113048645Y-68983673D01*
X113042341Y-68972796D01*
X113036846Y-68961563D01*
X113032197Y-68950029D01*
X113028430Y-68938252D01*
X113025762Y-68927197D01*
X113023739Y-68915012D01*
X113022540Y-68902425D01*
X113022159Y-68889517D01*
X113022589Y-68876368D01*
X113023825Y-68863058D01*
X113025860Y-68849668D01*
X113028688Y-68836278D01*
X113032302Y-68822969D01*
X113034350Y-68816526D01*
X113038987Y-68803980D01*
X113044538Y-68791384D01*
X113050962Y-68778807D01*
X113058221Y-68766317D01*
X113066275Y-68753980D01*
X113075085Y-68741865D01*
X113084610Y-68730038D01*
X113085730Y-68728722D01*
X113088454Y-68725630D01*
X113091701Y-68722091D01*
X113095319Y-68718260D01*
X113099154Y-68714293D01*
X113103052Y-68710348D01*
X113106860Y-68706580D01*
X113110422Y-68703147D01*
X113113587Y-68700204D01*
X113114972Y-68698966D01*
X113127703Y-68688400D01*
X113141139Y-68678448D01*
X113155234Y-68669132D01*
X113169938Y-68660471D01*
X113185204Y-68652485D01*
X113200983Y-68645195D01*
X113217228Y-68638621D01*
X113233891Y-68632783D01*
X113250923Y-68627702D01*
X113268277Y-68623398D01*
X113285905Y-68619890D01*
X113303758Y-68617200D01*
X113310807Y-68616373D01*
X113313745Y-68616119D01*
X113317489Y-68615894D01*
X113321885Y-68615700D01*
X113326779Y-68615539D01*
X113332016Y-68615414D01*
X113337443Y-68615327D01*
X113342905Y-68615279D01*
X113348249Y-68615272D01*
X113353321Y-68615310D01*
G37*
G36*
X113446615Y-68030135D02*
G01*
X113470310Y-68030167D01*
X113493860Y-68030228D01*
X113517182Y-68030318D01*
X113540189Y-68030438D01*
X113562798Y-68030588D01*
X113584923Y-68030767D01*
X113606479Y-68030976D01*
X113627381Y-68031214D01*
X113647544Y-68031483D01*
X113651838Y-68031546D01*
X113677723Y-68031945D01*
X113702718Y-68032363D01*
X113726896Y-68032802D01*
X113750326Y-68033265D01*
X113773080Y-68033754D01*
X113795229Y-68034272D01*
X113816844Y-68034822D01*
X113837995Y-68035405D01*
X113858753Y-68036025D01*
X113879190Y-68036684D01*
X113899376Y-68037385D01*
X113919382Y-68038129D01*
X113939279Y-68038921D01*
X113959138Y-68039761D01*
X113979030Y-68040653D01*
X113999025Y-68041600D01*
X114019195Y-68042603D01*
X114039611Y-68043665D01*
X114060343Y-68044790D01*
X114081463Y-68045978D01*
X114103041Y-68047234D01*
X114121746Y-68048353D01*
X114152281Y-68050231D01*
X114181958Y-68052117D01*
X114210876Y-68054022D01*
X114239137Y-68055953D01*
X114266843Y-68057919D01*
X114294094Y-68059929D01*
X114320991Y-68061991D01*
X114347636Y-68064113D01*
X114374129Y-68066306D01*
X114400572Y-68068576D01*
X114427066Y-68070934D01*
X114453711Y-68073386D01*
X114480608Y-68075943D01*
X114507860Y-68078612D01*
X114535566Y-68081403D01*
X114563828Y-68084324D01*
X114592747Y-68087383D01*
X114622424Y-68090589D01*
X114642293Y-68092770D01*
X114684390Y-68097544D01*
X114725626Y-68102481D01*
X114766088Y-68107593D01*
X114805865Y-68112894D01*
X114845043Y-68118398D01*
X114883710Y-68124118D01*
X114921954Y-68130069D01*
X114959862Y-68136263D01*
X114997522Y-68142715D01*
X115035020Y-68149438D01*
X115072446Y-68156446D01*
X115109885Y-68163752D01*
X115147427Y-68171370D01*
X115152520Y-68172426D01*
X115185322Y-68179350D01*
X115217217Y-68186303D01*
X115248256Y-68193298D01*
X115278492Y-68200349D01*
X115307977Y-68207470D01*
X115336764Y-68214675D01*
X115364905Y-68221977D01*
X115392452Y-68229389D01*
X115419457Y-68236927D01*
X115445973Y-68244602D01*
X115472052Y-68252429D01*
X115497746Y-68260422D01*
X115523108Y-68268594D01*
X115534831Y-68272469D01*
X115564333Y-68282486D01*
X115592902Y-68292571D01*
X115620563Y-68302737D01*
X115647342Y-68312994D01*
X115673263Y-68323353D01*
X115698353Y-68333827D01*
X115722636Y-68344426D01*
X115746138Y-68355162D01*
X115768883Y-68366045D01*
X115790898Y-68377089D01*
X115812207Y-68388303D01*
X115832836Y-68399699D01*
X115852810Y-68411289D01*
X115872154Y-68423084D01*
X115877542Y-68426476D01*
X115895712Y-68438261D01*
X115912955Y-68449991D01*
X115929300Y-68461694D01*
X115944775Y-68473396D01*
X115959411Y-68485125D01*
X115973236Y-68496908D01*
X115986280Y-68508772D01*
X115998571Y-68520745D01*
X116010138Y-68532854D01*
X116021012Y-68545126D01*
X116031220Y-68557587D01*
X116040793Y-68570267D01*
X116049759Y-68583191D01*
X116056440Y-68593605D01*
X116064870Y-68607930D01*
X116072364Y-68622187D01*
X116078939Y-68636422D01*
X116084611Y-68650683D01*
X116089398Y-68665018D01*
X116093317Y-68679474D01*
X116096385Y-68694098D01*
X116098618Y-68708938D01*
X116099119Y-68713362D01*
X116099412Y-68716850D01*
X116099647Y-68721073D01*
X116099823Y-68725839D01*
X116099940Y-68730957D01*
X116099996Y-68736238D01*
X116099990Y-68741489D01*
X116099921Y-68746520D01*
X116099788Y-68751141D01*
X116099590Y-68755160D01*
X116099366Y-68758001D01*
X116097737Y-68771492D01*
X116095588Y-68784544D01*
X116092950Y-68796972D01*
X116092296Y-68799648D01*
X116088304Y-68813938D01*
X116083432Y-68828494D01*
X116077705Y-68843270D01*
X116071150Y-68858217D01*
X116063793Y-68873290D01*
X116055662Y-68888440D01*
X116046781Y-68903621D01*
X116037179Y-68918784D01*
X116026880Y-68933884D01*
X116015912Y-68948872D01*
X116004301Y-68963701D01*
X115992990Y-68977261D01*
X115980175Y-68991708D01*
X115966423Y-69006323D01*
X115951732Y-69021107D01*
X115936101Y-69036061D01*
X115919530Y-69051185D01*
X115902019Y-69066479D01*
X115883566Y-69081946D01*
X115864171Y-69097584D01*
X115843833Y-69113396D01*
X115833383Y-69121311D01*
X115812043Y-69137052D01*
X115790126Y-69152644D01*
X115767605Y-69168102D01*
X115744454Y-69183441D01*
X115720647Y-69198677D01*
X115696157Y-69213825D01*
X115670959Y-69228900D01*
X115645024Y-69243917D01*
X115618329Y-69258891D01*
X115590845Y-69273837D01*
X115562547Y-69288770D01*
X115533408Y-69303707D01*
X115503402Y-69318661D01*
X115472503Y-69333647D01*
X115440684Y-69348682D01*
X115426593Y-69355221D01*
X115406127Y-69364604D01*
X115385636Y-69373869D01*
X115365078Y-69383034D01*
X115344409Y-69392115D01*
X115323585Y-69401130D01*
X115302562Y-69410096D01*
X115281297Y-69419030D01*
X115259746Y-69427950D01*
X115237866Y-69436873D01*
X115215612Y-69445815D01*
X115192941Y-69454794D01*
X115169810Y-69463828D01*
X115146174Y-69472933D01*
X115121990Y-69482127D01*
X115097215Y-69491427D01*
X115071804Y-69500850D01*
X115045715Y-69510413D01*
X115018902Y-69520134D01*
X114991323Y-69530030D01*
X114962934Y-69540117D01*
X114933691Y-69550414D01*
X114911520Y-69558163D01*
X114906984Y-69559753D01*
X114902530Y-69561332D01*
X114898281Y-69562854D01*
X114894362Y-69564275D01*
X114890895Y-69565550D01*
X114888004Y-69566634D01*
X114885811Y-69567481D01*
X114884761Y-69567909D01*
X114882657Y-69568788D01*
X114880914Y-69569491D01*
X114879698Y-69569952D01*
X114879176Y-69570108D01*
X114879167Y-69570102D01*
X114879585Y-69569862D01*
X114880790Y-69569228D01*
X114882711Y-69568237D01*
X114885279Y-69566924D01*
X114888421Y-69565326D01*
X114892067Y-69563478D01*
X114896147Y-69561417D01*
X114900588Y-69559179D01*
X114905321Y-69556799D01*
X114907367Y-69555771D01*
X114942955Y-69537617D01*
X114977748Y-69519278D01*
X115011739Y-69500758D01*
X115044921Y-69482063D01*
X115077286Y-69463200D01*
X115108828Y-69444173D01*
X115139539Y-69424987D01*
X115169412Y-69405648D01*
X115198441Y-69386163D01*
X115226617Y-69366535D01*
X115253934Y-69346771D01*
X115280385Y-69326875D01*
X115305962Y-69306855D01*
X115330659Y-69286713D01*
X115354468Y-69266458D01*
X115377382Y-69246093D01*
X115399395Y-69225624D01*
X115420499Y-69205057D01*
X115440686Y-69184397D01*
X115459950Y-69163650D01*
X115478284Y-69142820D01*
X115495680Y-69121914D01*
X115512132Y-69100937D01*
X115525959Y-69082233D01*
X115535683Y-69068339D01*
X115544946Y-69054393D01*
X115553720Y-69040450D01*
X115561978Y-69026565D01*
X115569690Y-69012794D01*
X115576831Y-68999192D01*
X115583370Y-68985815D01*
X115589282Y-68972719D01*
X115594536Y-68959959D01*
X115599106Y-68947590D01*
X115602964Y-68935668D01*
X115606082Y-68924249D01*
X115606582Y-68922166D01*
X115607227Y-68919421D01*
X115608018Y-68916055D01*
X115608882Y-68912377D01*
X115609746Y-68908701D01*
X115610363Y-68906077D01*
X115613415Y-68891663D01*
X115615708Y-68877507D01*
X115617273Y-68863355D01*
X115618139Y-68848951D01*
X115618347Y-68837117D01*
X115617976Y-68821866D01*
X115616844Y-68807052D01*
X115614924Y-68792523D01*
X115612193Y-68778126D01*
X115608623Y-68763710D01*
X115604191Y-68749122D01*
X115603258Y-68746343D01*
X115598030Y-68732169D01*
X115592054Y-68718150D01*
X115585308Y-68704254D01*
X115577772Y-68690451D01*
X115569426Y-68676710D01*
X115560249Y-68663000D01*
X115550220Y-68649289D01*
X115539320Y-68635547D01*
X115527527Y-68621743D01*
X115514821Y-68607845D01*
X115504840Y-68597504D01*
X115492488Y-68585297D01*
X115479826Y-68573419D01*
X115466808Y-68561835D01*
X115453384Y-68550512D01*
X115439506Y-68539416D01*
X115425126Y-68528515D01*
X115410196Y-68517774D01*
X115394667Y-68507161D01*
X115378492Y-68496641D01*
X115361621Y-68486180D01*
X115344007Y-68475746D01*
X115325602Y-68465305D01*
X115306357Y-68454823D01*
X115286224Y-68444267D01*
X115279237Y-68440690D01*
X115248521Y-68425486D01*
X115217000Y-68410728D01*
X115184665Y-68396414D01*
X115151511Y-68382542D01*
X115117530Y-68369108D01*
X115082715Y-68356109D01*
X115047059Y-68343543D01*
X115010554Y-68331406D01*
X114982845Y-68322655D01*
X114972488Y-68319492D01*
X114961292Y-68316138D01*
X114949349Y-68312619D01*
X114936756Y-68308962D01*
X114923607Y-68305193D01*
X114909997Y-68301339D01*
X114896020Y-68297424D01*
X114881771Y-68293476D01*
X114867345Y-68289521D01*
X114852838Y-68285585D01*
X114838343Y-68281694D01*
X114823955Y-68277874D01*
X114809769Y-68274151D01*
X114795881Y-68270552D01*
X114782384Y-68267103D01*
X114775250Y-68265302D01*
X114743399Y-68257475D01*
X114710639Y-68249778D01*
X114677012Y-68242216D01*
X114642562Y-68234796D01*
X114607330Y-68227523D01*
X114571361Y-68220403D01*
X114534696Y-68213442D01*
X114497378Y-68206647D01*
X114459450Y-68200023D01*
X114420955Y-68193575D01*
X114381936Y-68187311D01*
X114342435Y-68181236D01*
X114302496Y-68175355D01*
X114262160Y-68169676D01*
X114221470Y-68164203D01*
X114180471Y-68158943D01*
X114139203Y-68153901D01*
X114097710Y-68149085D01*
X114056035Y-68144498D01*
X114014220Y-68140149D01*
X113972308Y-68136041D01*
X113930343Y-68132182D01*
X113888366Y-68128578D01*
X113846420Y-68125234D01*
X113804549Y-68122156D01*
X113762794Y-68119350D01*
X113721200Y-68116822D01*
X113698397Y-68115552D01*
X113695393Y-68115392D01*
X113691524Y-68115189D01*
X113686880Y-68114947D01*
X113681556Y-68114671D01*
X113675644Y-68114367D01*
X113669236Y-68114038D01*
X113662426Y-68113689D01*
X113655305Y-68113326D01*
X113647967Y-68112953D01*
X113640504Y-68112574D01*
X113633009Y-68112195D01*
X113627839Y-68111935D01*
X113620024Y-68111540D01*
X113611935Y-68111128D01*
X113603691Y-68110706D01*
X113595410Y-68110280D01*
X113587212Y-68109856D01*
X113579216Y-68109441D01*
X113571541Y-68109040D01*
X113564306Y-68108660D01*
X113557630Y-68108306D01*
X113551632Y-68107986D01*
X113546432Y-68107705D01*
X113544801Y-68107615D01*
X113507504Y-68105653D01*
X113470195Y-68103859D01*
X113432826Y-68102232D01*
X113395344Y-68100771D01*
X113357699Y-68099476D01*
X113319842Y-68098346D01*
X113281720Y-68097382D01*
X113243283Y-68096581D01*
X113204481Y-68095945D01*
X113165263Y-68095471D01*
X113125578Y-68095160D01*
X113085377Y-68095011D01*
X113044607Y-68095023D01*
X113003219Y-68095197D01*
X112961161Y-68095530D01*
X112918384Y-68096024D01*
X112874836Y-68096676D01*
X112830468Y-68097488D01*
X112785227Y-68098457D01*
X112762901Y-68098986D01*
X112744326Y-68099458D01*
X112725579Y-68099973D01*
X112706591Y-68100535D01*
X112687291Y-68101145D01*
X112667610Y-68101806D01*
X112647477Y-68102521D01*
X112626823Y-68103293D01*
X112605578Y-68104123D01*
X112583672Y-68105014D01*
X112561035Y-68105970D01*
X112537597Y-68106992D01*
X112513289Y-68108083D01*
X112507307Y-68108356D01*
X112501701Y-68108613D01*
X112495412Y-68108905D01*
X112488496Y-68109227D01*
X112481009Y-68109577D01*
X112473007Y-68109952D01*
X112464545Y-68110350D01*
X112455679Y-68110769D01*
X112446464Y-68111205D01*
X112436956Y-68111656D01*
X112427211Y-68112118D01*
X112417284Y-68112591D01*
X112407231Y-68113070D01*
X112397107Y-68113553D01*
X112386969Y-68114038D01*
X112376872Y-68114521D01*
X112366871Y-68115001D01*
X112357022Y-68115474D01*
X112347381Y-68115937D01*
X112338003Y-68116389D01*
X112328944Y-68116827D01*
X112320260Y-68117247D01*
X112312006Y-68117647D01*
X112304238Y-68118025D01*
X112297011Y-68118378D01*
X112290381Y-68118702D01*
X112284405Y-68118996D01*
X112279136Y-68119257D01*
X112274632Y-68119482D01*
X112270947Y-68119669D01*
X112268138Y-68119814D01*
X112267073Y-68119871D01*
X112239564Y-68121411D01*
X112211131Y-68123109D01*
X112181794Y-68124963D01*
X112151576Y-68126971D01*
X112120499Y-68129132D01*
X112088584Y-68131445D01*
X112055853Y-68133906D01*
X112022329Y-68136515D01*
X111988032Y-68139269D01*
X111952985Y-68142167D01*
X111917209Y-68145208D01*
X111880727Y-68148389D01*
X111843560Y-68151709D01*
X111805729Y-68155165D01*
X111767258Y-68158757D01*
X111728166Y-68162483D01*
X111699727Y-68165239D01*
X111680284Y-68167150D01*
X111661087Y-68169063D01*
X111642089Y-68170984D01*
X111623241Y-68172919D01*
X111604493Y-68174874D01*
X111585797Y-68176855D01*
X111567102Y-68178867D01*
X111548361Y-68180916D01*
X111529525Y-68183008D01*
X111510543Y-68185149D01*
X111491368Y-68187345D01*
X111471949Y-68189601D01*
X111452239Y-68191923D01*
X111432188Y-68194318D01*
X111411746Y-68196790D01*
X111390866Y-68199345D01*
X111369497Y-68201990D01*
X111347591Y-68204730D01*
X111325099Y-68207571D01*
X111301971Y-68210519D01*
X111278159Y-68213579D01*
X111253614Y-68216758D01*
X111228286Y-68220060D01*
X111202127Y-68223493D01*
X111175087Y-68227061D01*
X111164061Y-68228522D01*
X111155021Y-68229720D01*
X111146888Y-68230796D01*
X111139615Y-68231758D01*
X111133158Y-68232609D01*
X111127472Y-68233356D01*
X111122510Y-68234005D01*
X111118228Y-68234561D01*
X111114581Y-68235030D01*
X111111522Y-68235418D01*
X111109007Y-68235731D01*
X111106991Y-68235974D01*
X111105428Y-68236153D01*
X111104272Y-68236274D01*
X111103479Y-68236342D01*
X111103004Y-68236363D01*
X111102800Y-68236344D01*
X111102823Y-68236289D01*
X111102862Y-68236269D01*
X111103539Y-68236091D01*
X111105112Y-68235761D01*
X111107528Y-68235287D01*
X111110736Y-68234679D01*
X111114687Y-68233945D01*
X111119327Y-68233095D01*
X111124607Y-68232137D01*
X111130475Y-68231081D01*
X111136880Y-68229935D01*
X111143770Y-68228709D01*
X111151095Y-68227411D01*
X111158803Y-68226050D01*
X111166843Y-68224636D01*
X111175164Y-68223178D01*
X111183714Y-68221684D01*
X111192444Y-68220164D01*
X111201300Y-68218626D01*
X111210233Y-68217079D01*
X111219190Y-68215533D01*
X111228122Y-68213997D01*
X111236976Y-68212479D01*
X111245701Y-68210988D01*
X111254246Y-68209534D01*
X111262561Y-68208126D01*
X111270593Y-68206772D01*
X111270858Y-68206727D01*
X111324133Y-68197878D01*
X111377677Y-68189195D01*
X111431425Y-68180684D01*
X111485309Y-68172357D01*
X111539262Y-68164220D01*
X111593218Y-68156284D01*
X111647109Y-68148558D01*
X111700868Y-68141049D01*
X111754429Y-68133767D01*
X111807724Y-68126722D01*
X111860687Y-68119921D01*
X111913250Y-68113374D01*
X111965347Y-68107090D01*
X112016911Y-68101078D01*
X112067875Y-68095346D01*
X112118171Y-68089903D01*
X112167733Y-68084759D01*
X112216495Y-68079922D01*
X112242834Y-68077406D01*
X112245848Y-68077123D01*
X112248706Y-68076856D01*
X112251451Y-68076603D01*
X112254127Y-68076359D01*
X112256779Y-68076123D01*
X112259449Y-68075891D01*
X112262181Y-68075659D01*
X112265020Y-68075425D01*
X112268010Y-68075185D01*
X112271194Y-68074937D01*
X112274615Y-68074676D01*
X112278319Y-68074401D01*
X112282348Y-68074107D01*
X112286747Y-68073792D01*
X112291559Y-68073452D01*
X112296829Y-68073085D01*
X112302599Y-68072687D01*
X112308915Y-68072255D01*
X112315819Y-68071785D01*
X112323356Y-68071276D01*
X112331570Y-68070723D01*
X112340504Y-68070123D01*
X112350202Y-68069474D01*
X112360708Y-68068771D01*
X112372065Y-68068013D01*
X112384319Y-68067195D01*
X112389710Y-68066835D01*
X112409490Y-68065517D01*
X112428358Y-68064263D01*
X112446359Y-68063070D01*
X112463538Y-68061936D01*
X112479942Y-68060858D01*
X112495615Y-68059834D01*
X112510603Y-68058861D01*
X112524951Y-68057937D01*
X112538705Y-68057060D01*
X112551911Y-68056226D01*
X112564612Y-68055434D01*
X112576856Y-68054680D01*
X112588688Y-68053962D01*
X112600152Y-68053279D01*
X112611295Y-68052626D01*
X112622162Y-68052002D01*
X112632798Y-68051405D01*
X112643248Y-68050831D01*
X112653559Y-68050278D01*
X112663775Y-68049744D01*
X112673942Y-68049227D01*
X112684106Y-68048722D01*
X112694311Y-68048229D01*
X112704603Y-68047745D01*
X112715029Y-68047267D01*
X112725632Y-68046792D01*
X112736459Y-68046318D01*
X112747555Y-68045843D01*
X112758965Y-68045364D01*
X112770735Y-68044879D01*
X112782911Y-68044385D01*
X112795537Y-68043879D01*
X112808659Y-68043359D01*
X112822323Y-68042823D01*
X112828419Y-68042585D01*
X112860595Y-68041350D01*
X112891866Y-68040189D01*
X112922282Y-68039100D01*
X112951894Y-68038082D01*
X112980753Y-68037134D01*
X113008912Y-68036253D01*
X113036419Y-68035439D01*
X113063328Y-68034689D01*
X113089689Y-68034003D01*
X113115553Y-68033378D01*
X113140971Y-68032814D01*
X113165994Y-68032308D01*
X113181930Y-68032013D01*
X113200733Y-68031699D01*
X113220411Y-68031414D01*
X113240878Y-68031156D01*
X113262051Y-68030928D01*
X113283843Y-68030728D01*
X113306170Y-68030557D01*
X113328948Y-68030414D01*
X113352090Y-68030300D01*
X113375513Y-68030215D01*
X113399132Y-68030160D01*
X113422860Y-68030133D01*
X113446615Y-68030135D01*
G37*
G36*
X115080588Y-68530122D02*
G01*
X115081258Y-68531385D01*
X115082282Y-68533344D01*
X115083619Y-68535921D01*
X115085227Y-68539036D01*
X115087066Y-68542611D01*
X115089094Y-68546565D01*
X115091271Y-68550820D01*
X115092530Y-68553286D01*
X115097692Y-68563391D01*
X115102538Y-68572862D01*
X115107054Y-68581667D01*
X115111221Y-68589774D01*
X115115024Y-68597150D01*
X115118446Y-68603763D01*
X115121469Y-68609580D01*
X115123885Y-68614202D01*
X115126115Y-68618333D01*
X115128066Y-68621660D01*
X115129812Y-68624273D01*
X115131425Y-68626263D01*
X115132978Y-68627718D01*
X115134545Y-68628728D01*
X115136198Y-68629384D01*
X115136243Y-68629397D01*
X115137817Y-68629798D01*
X115139063Y-68629902D01*
X115140443Y-68629709D01*
X115141697Y-68629408D01*
X115142571Y-68629174D01*
X115143428Y-68628909D01*
X115144337Y-68628578D01*
X115145368Y-68628141D01*
X115146591Y-68627562D01*
X115148076Y-68626803D01*
X115149892Y-68625825D01*
X115152108Y-68624592D01*
X115154796Y-68623066D01*
X115158025Y-68621208D01*
X115161864Y-68618983D01*
X115166383Y-68616351D01*
X115171653Y-68613275D01*
X115172320Y-68612885D01*
X115177164Y-68610068D01*
X115181510Y-68607566D01*
X115185312Y-68605404D01*
X115188522Y-68603609D01*
X115191094Y-68602206D01*
X115192982Y-68601221D01*
X115194139Y-68600680D01*
X115194519Y-68600603D01*
X115194418Y-68601214D01*
X115194130Y-68602653D01*
X115193678Y-68604811D01*
X115193086Y-68607582D01*
X115192376Y-68610856D01*
X115191572Y-68614525D01*
X115190697Y-68618480D01*
X115190651Y-68618686D01*
X115189315Y-68624706D01*
X115187859Y-68631280D01*
X115186304Y-68638311D01*
X115184672Y-68645705D01*
X115182984Y-68653365D01*
X115181260Y-68661196D01*
X115179522Y-68669102D01*
X115177790Y-68676988D01*
X115176086Y-68684758D01*
X115174430Y-68692317D01*
X115172843Y-68699568D01*
X115171347Y-68706417D01*
X115169962Y-68712767D01*
X115168710Y-68718522D01*
X115167610Y-68723588D01*
X115166686Y-68727869D01*
X115166232Y-68729981D01*
X115165108Y-68735268D01*
X115164190Y-68739715D01*
X115163471Y-68743414D01*
X115162940Y-68746462D01*
X115162589Y-68748951D01*
X115162408Y-68750978D01*
X115162388Y-68752635D01*
X115162521Y-68754017D01*
X115162796Y-68755219D01*
X115163206Y-68756335D01*
X115163610Y-68757200D01*
X115165378Y-68759799D01*
X115167651Y-68761637D01*
X115170327Y-68762699D01*
X115173304Y-68762967D01*
X115176481Y-68762426D01*
X115179755Y-68761059D01*
X115181385Y-68760068D01*
X115181940Y-68759564D01*
X115183099Y-68758404D01*
X115184816Y-68756640D01*
X115187042Y-68754320D01*
X115189731Y-68751495D01*
X115192836Y-68748214D01*
X115196309Y-68744528D01*
X115200103Y-68740486D01*
X115204171Y-68736138D01*
X115208465Y-68731534D01*
X115212940Y-68726724D01*
X115214873Y-68724642D01*
X115219395Y-68719771D01*
X115223744Y-68715089D01*
X115227875Y-68710645D01*
X115231741Y-68706490D01*
X115235297Y-68702672D01*
X115238496Y-68699240D01*
X115241292Y-68696244D01*
X115243640Y-68693733D01*
X115245494Y-68691756D01*
X115246807Y-68690364D01*
X115247534Y-68689604D01*
X115247657Y-68689483D01*
X115247894Y-68689301D01*
X115248132Y-68689252D01*
X115248408Y-68689410D01*
X115248760Y-68689850D01*
X115249224Y-68690645D01*
X115249838Y-68691870D01*
X115250639Y-68693600D01*
X115251664Y-68695910D01*
X115252951Y-68698873D01*
X115254536Y-68702564D01*
X115256456Y-68707057D01*
X115256637Y-68707482D01*
X115258402Y-68711585D01*
X115260110Y-68715499D01*
X115261713Y-68719115D01*
X115263162Y-68722327D01*
X115264408Y-68725027D01*
X115265402Y-68727107D01*
X115266097Y-68728460D01*
X115266305Y-68728813D01*
X115267884Y-68730873D01*
X115269654Y-68732397D01*
X115271732Y-68733411D01*
X115274238Y-68733944D01*
X115277289Y-68734023D01*
X115281005Y-68733675D01*
X115284757Y-68733067D01*
X115286958Y-68732647D01*
X115289966Y-68732052D01*
X115293650Y-68731308D01*
X115297877Y-68730443D01*
X115302517Y-68729485D01*
X115307439Y-68728461D01*
X115312510Y-68727398D01*
X115317600Y-68726325D01*
X115322577Y-68725267D01*
X115327310Y-68724253D01*
X115331667Y-68723310D01*
X115335360Y-68722500D01*
X115337930Y-68721942D01*
X115340150Y-68721480D01*
X115341860Y-68721145D01*
X115342902Y-68720968D01*
X115343148Y-68720955D01*
X115343040Y-68721427D01*
X115342683Y-68722752D01*
X115342096Y-68724863D01*
X115341298Y-68727690D01*
X115340311Y-68731166D01*
X115339152Y-68735223D01*
X115337841Y-68739791D01*
X115336399Y-68744804D01*
X115334844Y-68750191D01*
X115333195Y-68755886D01*
X115332256Y-68759125D01*
X115330545Y-68765038D01*
X115328905Y-68770739D01*
X115327359Y-68776154D01*
X115325925Y-68781206D01*
X115324626Y-68785822D01*
X115323483Y-68789927D01*
X115322516Y-68793444D01*
X115321746Y-68796301D01*
X115321194Y-68798421D01*
X115320881Y-68799729D01*
X115320823Y-68800041D01*
X115320670Y-68804027D01*
X115321364Y-68807565D01*
X115322909Y-68810662D01*
X115325230Y-68813261D01*
X115326496Y-68814173D01*
X115328576Y-68815412D01*
X115331395Y-68816938D01*
X115334881Y-68818712D01*
X115338089Y-68820278D01*
X115341049Y-68821712D01*
X115343708Y-68823026D01*
X115345947Y-68824159D01*
X115347647Y-68825049D01*
X115348690Y-68825638D01*
X115348971Y-68825847D01*
X115348626Y-68826196D01*
X115347584Y-68827132D01*
X115345885Y-68828624D01*
X115343565Y-68830639D01*
X115340662Y-68833146D01*
X115337213Y-68836111D01*
X115333257Y-68839503D01*
X115328829Y-68843290D01*
X115323969Y-68847439D01*
X115318714Y-68851920D01*
X115313101Y-68856698D01*
X115307167Y-68861743D01*
X115300951Y-68867022D01*
X115294490Y-68872503D01*
X115287821Y-68878154D01*
X115286813Y-68879007D01*
X115280072Y-68884717D01*
X115273505Y-68890283D01*
X115267153Y-68895671D01*
X115261054Y-68900847D01*
X115255249Y-68905777D01*
X115249778Y-68910427D01*
X115244679Y-68914764D01*
X115239993Y-68918755D01*
X115235760Y-68922364D01*
X115232018Y-68925559D01*
X115228807Y-68928306D01*
X115226168Y-68930570D01*
X115224140Y-68932319D01*
X115222762Y-68933518D01*
X115222075Y-68934133D01*
X115222050Y-68934157D01*
X115220415Y-68935945D01*
X115219372Y-68937644D01*
X115218810Y-68939164D01*
X115218477Y-68940347D01*
X115218221Y-68941471D01*
X115218060Y-68942606D01*
X115218012Y-68943822D01*
X115218093Y-68945188D01*
X115218324Y-68946775D01*
X115218720Y-68948651D01*
X115219301Y-68950887D01*
X115220083Y-68953552D01*
X115221085Y-68956715D01*
X115222324Y-68960448D01*
X115223819Y-68964819D01*
X115225587Y-68969898D01*
X115227645Y-68975754D01*
X115229539Y-68981119D01*
X115230749Y-68984562D01*
X115231840Y-68987703D01*
X115232774Y-68990431D01*
X115233514Y-68992635D01*
X115234022Y-68994204D01*
X115234261Y-68995026D01*
X115234271Y-68995122D01*
X115233790Y-68995049D01*
X115232423Y-68994798D01*
X115230226Y-68994380D01*
X115227255Y-68993805D01*
X115223565Y-68993085D01*
X115219211Y-68992230D01*
X115214249Y-68991252D01*
X115208735Y-68990161D01*
X115202725Y-68988968D01*
X115196273Y-68987685D01*
X115189435Y-68986323D01*
X115182268Y-68984891D01*
X115174825Y-68983402D01*
X115173156Y-68983068D01*
X115165598Y-68981554D01*
X115158262Y-68980087D01*
X115151207Y-68978678D01*
X115144493Y-68977340D01*
X115138178Y-68976083D01*
X115132322Y-68974920D01*
X115126984Y-68973861D01*
X115122224Y-68972920D01*
X115118099Y-68972108D01*
X115114670Y-68971435D01*
X115111997Y-68970915D01*
X115110137Y-68970559D01*
X115109150Y-68970379D01*
X115109081Y-68970368D01*
X115105120Y-68970111D01*
X115101415Y-68970565D01*
X115098085Y-68971674D01*
X115095251Y-68973383D01*
X115093031Y-68975637D01*
X115091546Y-68978382D01*
X115091527Y-68978435D01*
X115091372Y-68978955D01*
X115091238Y-68979624D01*
X115091126Y-68980481D01*
X115091036Y-68981567D01*
X115090969Y-68982921D01*
X115090927Y-68984585D01*
X115090910Y-68986598D01*
X115090919Y-68989002D01*
X115090957Y-68991836D01*
X115091022Y-68995140D01*
X115091117Y-68998956D01*
X115091243Y-69003323D01*
X115091401Y-69008282D01*
X115091591Y-69013874D01*
X115091814Y-69020137D01*
X115092072Y-69027114D01*
X115092366Y-69034844D01*
X115092697Y-69043368D01*
X115093065Y-69052725D01*
X115093471Y-69062957D01*
X115093918Y-69074104D01*
X115093965Y-69075273D01*
X115094178Y-69080624D01*
X115094379Y-69085763D01*
X115094564Y-69090597D01*
X115094731Y-69095034D01*
X115094875Y-69098980D01*
X115094994Y-69102343D01*
X115095083Y-69105030D01*
X115095140Y-69106948D01*
X115095161Y-69108004D01*
X115095161Y-69108032D01*
X115095162Y-69111032D01*
X115080042Y-69111032D01*
X115075837Y-69111030D01*
X115072492Y-69111020D01*
X115069911Y-69110995D01*
X115067994Y-69110950D01*
X115066643Y-69110879D01*
X115065759Y-69110776D01*
X115065244Y-69110635D01*
X115064999Y-69110449D01*
X115064926Y-69110213D01*
X115064923Y-69110112D01*
X115064941Y-69109493D01*
X115064996Y-69107992D01*
X115065084Y-69105686D01*
X115065201Y-69102653D01*
X115065344Y-69098970D01*
X115065512Y-69094714D01*
X115065700Y-69089963D01*
X115065906Y-69084794D01*
X115066126Y-69079285D01*
X115066348Y-69073753D01*
X115066762Y-69063433D01*
X115067138Y-69054022D01*
X115067477Y-69045470D01*
X115067782Y-69037727D01*
X115068053Y-69030743D01*
X115068294Y-69024468D01*
X115068505Y-69018851D01*
X115068689Y-69013844D01*
X115068846Y-69009395D01*
X115068980Y-69005456D01*
X115069092Y-69001975D01*
X115069183Y-68998902D01*
X115069256Y-68996189D01*
X115069312Y-68993784D01*
X115069353Y-68991637D01*
X115069381Y-68989699D01*
X115069387Y-68989115D01*
X115069415Y-68985872D01*
X115069413Y-68983430D01*
X115069367Y-68981631D01*
X115069264Y-68980317D01*
X115069089Y-68979329D01*
X115068829Y-68978510D01*
X115068470Y-68977701D01*
X115068360Y-68977477D01*
X115066472Y-68974677D01*
X115063913Y-68972544D01*
X115060718Y-68971097D01*
X115056926Y-68970354D01*
X115054363Y-68970255D01*
X115053526Y-68970318D01*
X115052173Y-68970494D01*
X115050268Y-68970791D01*
X115047778Y-68971214D01*
X115044669Y-68971770D01*
X115040908Y-68972467D01*
X115036460Y-68973309D01*
X115031293Y-68974303D01*
X115025371Y-68975457D01*
X115018662Y-68976776D01*
X115011131Y-68978266D01*
X115002745Y-68979935D01*
X114993470Y-68981788D01*
X114988383Y-68982807D01*
X114980800Y-68984326D01*
X114973479Y-68985790D01*
X114966474Y-68987188D01*
X114959841Y-68988510D01*
X114953635Y-68989744D01*
X114947911Y-68990879D01*
X114942722Y-68991905D01*
X114938125Y-68992811D01*
X114934174Y-68993586D01*
X114930924Y-68994220D01*
X114928430Y-68994700D01*
X114926747Y-68995018D01*
X114925930Y-68995160D01*
X114925858Y-68995167D01*
X114925974Y-68994695D01*
X114926377Y-68993436D01*
X114927025Y-68991506D01*
X114927881Y-68989020D01*
X114928903Y-68986095D01*
X114930053Y-68982846D01*
X114930230Y-68982348D01*
X114932492Y-68975994D01*
X114934449Y-68970470D01*
X114936121Y-68965707D01*
X114937532Y-68961632D01*
X114938702Y-68958174D01*
X114939654Y-68955263D01*
X114940410Y-68952827D01*
X114940991Y-68950795D01*
X114941419Y-68949095D01*
X114941717Y-68947657D01*
X114941906Y-68946409D01*
X114942008Y-68945279D01*
X114942044Y-68944198D01*
X114942046Y-68943893D01*
X114941743Y-68940422D01*
X114940794Y-68937553D01*
X114939141Y-68935129D01*
X114938549Y-68934514D01*
X114937969Y-68933995D01*
X114936695Y-68932888D01*
X114934767Y-68931228D01*
X114932223Y-68929048D01*
X114929104Y-68926381D01*
X114925447Y-68923260D01*
X114921293Y-68919718D01*
X114916680Y-68915790D01*
X114911648Y-68911508D01*
X114906235Y-68906906D01*
X114900481Y-68902016D01*
X114894424Y-68896873D01*
X114888105Y-68891509D01*
X114881562Y-68885958D01*
X114874834Y-68880254D01*
X114873887Y-68879452D01*
X114867170Y-68873757D01*
X114860653Y-68868228D01*
X114854371Y-68862897D01*
X114848364Y-68857796D01*
X114842669Y-68852957D01*
X114837323Y-68848413D01*
X114832364Y-68844194D01*
X114827830Y-68840333D01*
X114823758Y-68836862D01*
X114820186Y-68833814D01*
X114817152Y-68831219D01*
X114814692Y-68829111D01*
X114812845Y-68827521D01*
X114811649Y-68826481D01*
X114811140Y-68826023D01*
X114811124Y-68826005D01*
X114811504Y-68825710D01*
X114812640Y-68825061D01*
X114814418Y-68824117D01*
X114816727Y-68822935D01*
X114819456Y-68821574D01*
X114822318Y-68820176D01*
X114826333Y-68818208D01*
X114829569Y-68816552D01*
X114832127Y-68815135D01*
X114834108Y-68813888D01*
X114835613Y-68812738D01*
X114836744Y-68811616D01*
X114837602Y-68810449D01*
X114838287Y-68809167D01*
X114838418Y-68808878D01*
X114839468Y-68805484D01*
X114839673Y-68801867D01*
X114839387Y-68799451D01*
X114839159Y-68798525D01*
X114838661Y-68796760D01*
X114837916Y-68794230D01*
X114836946Y-68791011D01*
X114835775Y-68787177D01*
X114834427Y-68782804D01*
X114832923Y-68777966D01*
X114831287Y-68772738D01*
X114829542Y-68767195D01*
X114827711Y-68761412D01*
X114826864Y-68758746D01*
X114825025Y-68752963D01*
X114823276Y-68747447D01*
X114821637Y-68742267D01*
X114820130Y-68737490D01*
X114818776Y-68733185D01*
X114817596Y-68729418D01*
X114816612Y-68726259D01*
X114815845Y-68723774D01*
X114815316Y-68722031D01*
X114815046Y-68721098D01*
X114815016Y-68720955D01*
X114815501Y-68721017D01*
X114816816Y-68721257D01*
X114818853Y-68721652D01*
X114821503Y-68722181D01*
X114824656Y-68722822D01*
X114828205Y-68723553D01*
X114831201Y-68724177D01*
X114837368Y-68725461D01*
X114843484Y-68726720D01*
X114849454Y-68727936D01*
X114855186Y-68729090D01*
X114860586Y-68730164D01*
X114865561Y-68731140D01*
X114870018Y-68731999D01*
X114873863Y-68732723D01*
X114877002Y-68733293D01*
X114879343Y-68733692D01*
X114880194Y-68733822D01*
X114883795Y-68734134D01*
X114886755Y-68733901D01*
X114889247Y-68733088D01*
X114891444Y-68731662D01*
X114891608Y-68731524D01*
X114892248Y-68730923D01*
X114892884Y-68730191D01*
X114893553Y-68729254D01*
X114894291Y-68728038D01*
X114895134Y-68726468D01*
X114896119Y-68724470D01*
X114897281Y-68721969D01*
X114898658Y-68718893D01*
X114900285Y-68715166D01*
X114902199Y-68710714D01*
X114904436Y-68705463D01*
X114904899Y-68704373D01*
X114906447Y-68700749D01*
X114907886Y-68697426D01*
X114909171Y-68694503D01*
X114910259Y-68692078D01*
X114911105Y-68690250D01*
X114911665Y-68689117D01*
X114911890Y-68688774D01*
X114912255Y-68689134D01*
X114913227Y-68690150D01*
X114914763Y-68691776D01*
X114916818Y-68693963D01*
X114919347Y-68696665D01*
X114922305Y-68699832D01*
X114925649Y-68703418D01*
X114929334Y-68707375D01*
X114933315Y-68711655D01*
X114937548Y-68716211D01*
X114941989Y-68720996D01*
X114944480Y-68723682D01*
X114949051Y-68728605D01*
X114953466Y-68733348D01*
X114957679Y-68737861D01*
X114961640Y-68742094D01*
X114965305Y-68745996D01*
X114968625Y-68749518D01*
X114971552Y-68752610D01*
X114974041Y-68755221D01*
X114976043Y-68757302D01*
X114977512Y-68758802D01*
X114978400Y-68759671D01*
X114978609Y-68759852D01*
X114981638Y-68761629D01*
X114984817Y-68762681D01*
X114987958Y-68762975D01*
X114990874Y-68762477D01*
X114991758Y-68762133D01*
X114994117Y-68760560D01*
X114996013Y-68758293D01*
X114997349Y-68755526D01*
X114998028Y-68752454D01*
X114998008Y-68749690D01*
X114997854Y-68748654D01*
X114997563Y-68747028D01*
X114997131Y-68744789D01*
X114996553Y-68741916D01*
X114995825Y-68738386D01*
X114994941Y-68734178D01*
X114993898Y-68729270D01*
X114992689Y-68723640D01*
X114991312Y-68717266D01*
X114989760Y-68710127D01*
X114988029Y-68702201D01*
X114986114Y-68693465D01*
X114984012Y-68683898D01*
X114981716Y-68673478D01*
X114979222Y-68662183D01*
X114976526Y-68649992D01*
X114974154Y-68639275D01*
X114972835Y-68633313D01*
X114971581Y-68627625D01*
X114970407Y-68622279D01*
X114969327Y-68617347D01*
X114968357Y-68612895D01*
X114967512Y-68608994D01*
X114966806Y-68605711D01*
X114966255Y-68603118D01*
X114965874Y-68601281D01*
X114965677Y-68600271D01*
X114965654Y-68600090D01*
X114966084Y-68600300D01*
X114967269Y-68600953D01*
X114969134Y-68602007D01*
X114971606Y-68603418D01*
X114974611Y-68605145D01*
X114978075Y-68607145D01*
X114981925Y-68609376D01*
X114986086Y-68611796D01*
X114989565Y-68613824D01*
X114994011Y-68616411D01*
X114998279Y-68618876D01*
X115002284Y-68621173D01*
X115005943Y-68623253D01*
X115009169Y-68625069D01*
X115011880Y-68626574D01*
X115013992Y-68627720D01*
X115015419Y-68628459D01*
X115015964Y-68628709D01*
X115018001Y-68629310D01*
X115020222Y-68629702D01*
X115021247Y-68629777D01*
X115024183Y-68629371D01*
X115026910Y-68628034D01*
X115029413Y-68625774D01*
X115030310Y-68624665D01*
X115030848Y-68623887D01*
X115031542Y-68622780D01*
X115032409Y-68621308D01*
X115033469Y-68619436D01*
X115034738Y-68617131D01*
X115036236Y-68614357D01*
X115037980Y-68611081D01*
X115039988Y-68607266D01*
X115042279Y-68602880D01*
X115044870Y-68597887D01*
X115047780Y-68592253D01*
X115051027Y-68585943D01*
X115054629Y-68578923D01*
X115058604Y-68571157D01*
X115062969Y-68562613D01*
X115067744Y-68553254D01*
X115069018Y-68550756D01*
X115071162Y-68546570D01*
X115073181Y-68542667D01*
X115075031Y-68539128D01*
X115076671Y-68536030D01*
X115078059Y-68533454D01*
X115079151Y-68531478D01*
X115079907Y-68530181D01*
X115080282Y-68529644D01*
X115080312Y-68529636D01*
X115080588Y-68530122D01*
G37*
G36*
X114601321Y-68632965D02*
G01*
X114614210Y-68632967D01*
X114626201Y-68632970D01*
X114637325Y-68632975D01*
X114647611Y-68632982D01*
X114657090Y-68632991D01*
X114665794Y-68633001D01*
X114673752Y-68633014D01*
X114680997Y-68633029D01*
X114687557Y-68633047D01*
X114693464Y-68633067D01*
X114698749Y-68633090D01*
X114703442Y-68633116D01*
X114707574Y-68633145D01*
X114711176Y-68633177D01*
X114714279Y-68633212D01*
X114716912Y-68633251D01*
X114719107Y-68633294D01*
X114720895Y-68633340D01*
X114722305Y-68633391D01*
X114723370Y-68633445D01*
X114724119Y-68633504D01*
X114724583Y-68633567D01*
X114724754Y-68633613D01*
X114726761Y-68634917D01*
X114728483Y-68636896D01*
X114729739Y-68639273D01*
X114730349Y-68641768D01*
X114730380Y-68642324D01*
X114730243Y-68642971D01*
X114729845Y-68644435D01*
X114729216Y-68646619D01*
X114728385Y-68649425D01*
X114727380Y-68652755D01*
X114726232Y-68656512D01*
X114724969Y-68660598D01*
X114724023Y-68663631D01*
X114722309Y-68669113D01*
X114720839Y-68673756D01*
X114719557Y-68677633D01*
X114718404Y-68680817D01*
X114717323Y-68683381D01*
X114716257Y-68685396D01*
X114715148Y-68686935D01*
X114713938Y-68688072D01*
X114712571Y-68688879D01*
X114710989Y-68689428D01*
X114709134Y-68689793D01*
X114706948Y-68690044D01*
X114704375Y-68690257D01*
X114702860Y-68690376D01*
X114693801Y-68691249D01*
X114684094Y-68692449D01*
X114673981Y-68693936D01*
X114663705Y-68695673D01*
X114653505Y-68697621D01*
X114643624Y-68699741D01*
X114642533Y-68699991D01*
X114635105Y-68701884D01*
X114628542Y-68703957D01*
X114622759Y-68706261D01*
X114617671Y-68708846D01*
X114613191Y-68711761D01*
X114609236Y-68715056D01*
X114605718Y-68718783D01*
X114602553Y-68722990D01*
X114602093Y-68723682D01*
X114597311Y-68731596D01*
X114593147Y-68739745D01*
X114591899Y-68742524D01*
X114591584Y-68743372D01*
X114590987Y-68745103D01*
X114590119Y-68747688D01*
X114588989Y-68751096D01*
X114587606Y-68755299D01*
X114585980Y-68760265D01*
X114584120Y-68765965D01*
X114582037Y-68772370D01*
X114579739Y-68779450D01*
X114577236Y-68787175D01*
X114574538Y-68795515D01*
X114571654Y-68804440D01*
X114568594Y-68813921D01*
X114565366Y-68823927D01*
X114561982Y-68834430D01*
X114558450Y-68845399D01*
X114554779Y-68856804D01*
X114550980Y-68868616D01*
X114547062Y-68880805D01*
X114543034Y-68893341D01*
X114538906Y-68906194D01*
X114534687Y-68919335D01*
X114530388Y-68932734D01*
X114526017Y-68946360D01*
X114521584Y-68960185D01*
X114517098Y-68974178D01*
X114512570Y-68988310D01*
X114508008Y-69002550D01*
X114503423Y-69016870D01*
X114498823Y-69031239D01*
X114494218Y-69045627D01*
X114489619Y-69060005D01*
X114485033Y-69074343D01*
X114480471Y-69088611D01*
X114475943Y-69102780D01*
X114471457Y-69116819D01*
X114467024Y-69130698D01*
X114462653Y-69144389D01*
X114458353Y-69157861D01*
X114454134Y-69171085D01*
X114450006Y-69184030D01*
X114445978Y-69196667D01*
X114442059Y-69208966D01*
X114438260Y-69220897D01*
X114434589Y-69232431D01*
X114431057Y-69243538D01*
X114427672Y-69254187D01*
X114424444Y-69264350D01*
X114421383Y-69273996D01*
X114418499Y-69283096D01*
X114415800Y-69291619D01*
X114413297Y-69299537D01*
X114410998Y-69306819D01*
X114408914Y-69313435D01*
X114407054Y-69319356D01*
X114405428Y-69324552D01*
X114404044Y-69328993D01*
X114402913Y-69332649D01*
X114402044Y-69335491D01*
X114401447Y-69337489D01*
X114401131Y-69338613D01*
X114401089Y-69338790D01*
X114400247Y-69344378D01*
X114399984Y-69349660D01*
X114400299Y-69354486D01*
X114401191Y-69358705D01*
X114401290Y-69359023D01*
X114403181Y-69363362D01*
X114405908Y-69367382D01*
X114409370Y-69370988D01*
X114413470Y-69374084D01*
X114418109Y-69376574D01*
X114420239Y-69377432D01*
X114424253Y-69378761D01*
X114429069Y-69380127D01*
X114434532Y-69381500D01*
X114440487Y-69382850D01*
X114446780Y-69384145D01*
X114453255Y-69385354D01*
X114459757Y-69386448D01*
X114466131Y-69387395D01*
X114472222Y-69388165D01*
X114476697Y-69388624D01*
X114479986Y-69388957D01*
X114482482Y-69389313D01*
X114484351Y-69389741D01*
X114485762Y-69390290D01*
X114486881Y-69391010D01*
X114487834Y-69391906D01*
X114489162Y-69393848D01*
X114490075Y-69396197D01*
X114490377Y-69398265D01*
X114490229Y-69399061D01*
X114489807Y-69400665D01*
X114489140Y-69402978D01*
X114488260Y-69405896D01*
X114487197Y-69409319D01*
X114485984Y-69413146D01*
X114484649Y-69417275D01*
X114483656Y-69420303D01*
X114482047Y-69425171D01*
X114480702Y-69429213D01*
X114479587Y-69432516D01*
X114478670Y-69435165D01*
X114477916Y-69437247D01*
X114477294Y-69438850D01*
X114476769Y-69440059D01*
X114476307Y-69440961D01*
X114475877Y-69441642D01*
X114475444Y-69442189D01*
X114475078Y-69442584D01*
X114473578Y-69443865D01*
X114471879Y-69444942D01*
X114471120Y-69445291D01*
X114470888Y-69445360D01*
X114470553Y-69445425D01*
X114470086Y-69445487D01*
X114469459Y-69445544D01*
X114468642Y-69445597D01*
X114467607Y-69445646D01*
X114466324Y-69445692D01*
X114464765Y-69445734D01*
X114462901Y-69445773D01*
X114460703Y-69445808D01*
X114458143Y-69445840D01*
X114455190Y-69445868D01*
X114451817Y-69445894D01*
X114447994Y-69445917D01*
X114443693Y-69445936D01*
X114438884Y-69445953D01*
X114433539Y-69445968D01*
X114427629Y-69445980D01*
X114421125Y-69445989D01*
X114413999Y-69445996D01*
X114406220Y-69446001D01*
X114397761Y-69446003D01*
X114388592Y-69446004D01*
X114378685Y-69446003D01*
X114368011Y-69446000D01*
X114356540Y-69445995D01*
X114344244Y-69445989D01*
X114331095Y-69445981D01*
X114317062Y-69445972D01*
X114302118Y-69445962D01*
X114291587Y-69445954D01*
X114114156Y-69445824D01*
X114112311Y-69444333D01*
X114110982Y-69443085D01*
X114109847Y-69441731D01*
X114109560Y-69441294D01*
X114109131Y-69440486D01*
X114108823Y-69439652D01*
X114108653Y-69438709D01*
X114108639Y-69437572D01*
X114108800Y-69436156D01*
X114109154Y-69434376D01*
X114109718Y-69432147D01*
X114110510Y-69429384D01*
X114111550Y-69426003D01*
X114112853Y-69421920D01*
X114114439Y-69417048D01*
X114115213Y-69414688D01*
X114121813Y-69394592D01*
X114124061Y-69392344D01*
X114125010Y-69391445D01*
X114125945Y-69390722D01*
X114126991Y-69390147D01*
X114128271Y-69389690D01*
X114129911Y-69389323D01*
X114132036Y-69389015D01*
X114134768Y-69388739D01*
X114138235Y-69388464D01*
X114141666Y-69388223D01*
X114152896Y-69387404D01*
X114163361Y-69386538D01*
X114173036Y-69385626D01*
X114181896Y-69384673D01*
X114189913Y-69383681D01*
X114197064Y-69382654D01*
X114203322Y-69381594D01*
X114208662Y-69380505D01*
X114211504Y-69379816D01*
X114216892Y-69378055D01*
X114222594Y-69375539D01*
X114228468Y-69372359D01*
X114234370Y-69368604D01*
X114240159Y-69364364D01*
X114245690Y-69359727D01*
X114249773Y-69355853D01*
X114253564Y-69351767D01*
X114256864Y-69347572D01*
X114259767Y-69343107D01*
X114262365Y-69338210D01*
X114264751Y-69332719D01*
X114267016Y-69326473D01*
X114267605Y-69324679D01*
X114268607Y-69321567D01*
X114269861Y-69317665D01*
X114271357Y-69313006D01*
X114273085Y-69307617D01*
X114275037Y-69301532D01*
X114277201Y-69294779D01*
X114279569Y-69287388D01*
X114282130Y-69279392D01*
X114284875Y-69270819D01*
X114287794Y-69261701D01*
X114290878Y-69252067D01*
X114294117Y-69241949D01*
X114297500Y-69231376D01*
X114301019Y-69220380D01*
X114304663Y-69208989D01*
X114308423Y-69197236D01*
X114312289Y-69185150D01*
X114316251Y-69172762D01*
X114320300Y-69160102D01*
X114324426Y-69147200D01*
X114328620Y-69134087D01*
X114332870Y-69120794D01*
X114337169Y-69107351D01*
X114341505Y-69093788D01*
X114345870Y-69080136D01*
X114350253Y-69066425D01*
X114354645Y-69052685D01*
X114359036Y-69038948D01*
X114363417Y-69025243D01*
X114367777Y-69011600D01*
X114372107Y-68998051D01*
X114376398Y-68984626D01*
X114380639Y-68971354D01*
X114384820Y-68958268D01*
X114388933Y-68945396D01*
X114392967Y-68932769D01*
X114396913Y-68920419D01*
X114400760Y-68908374D01*
X114404500Y-68896666D01*
X114408122Y-68885326D01*
X114411617Y-68874382D01*
X114414974Y-68863867D01*
X114418185Y-68853810D01*
X114421240Y-68844242D01*
X114424128Y-68835193D01*
X114426840Y-68826693D01*
X114429367Y-68818774D01*
X114431698Y-68811465D01*
X114433825Y-68804797D01*
X114435736Y-68798800D01*
X114437423Y-68793505D01*
X114438876Y-68788942D01*
X114440084Y-68785142D01*
X114441039Y-68782135D01*
X114441730Y-68779951D01*
X114442149Y-68778621D01*
X114442284Y-68778175D01*
X114442000Y-68778557D01*
X114441170Y-68779701D01*
X114439806Y-68781589D01*
X114437923Y-68784204D01*
X114435533Y-68787527D01*
X114432650Y-68791541D01*
X114429284Y-68796226D01*
X114425451Y-68801566D01*
X114421163Y-68807542D01*
X114416432Y-68814136D01*
X114411273Y-68821329D01*
X114405696Y-68829105D01*
X114399717Y-68837444D01*
X114393347Y-68846329D01*
X114386600Y-68855741D01*
X114379488Y-68865664D01*
X114372024Y-68876077D01*
X114364222Y-68886964D01*
X114356095Y-68898306D01*
X114347654Y-68910086D01*
X114338914Y-68922285D01*
X114329887Y-68934884D01*
X114320586Y-68947867D01*
X114311024Y-68961215D01*
X114301215Y-68974910D01*
X114291170Y-68988934D01*
X114280903Y-69003268D01*
X114270427Y-69017895D01*
X114259755Y-69032797D01*
X114248900Y-69047956D01*
X114237875Y-69063352D01*
X114226692Y-69078970D01*
X114215365Y-69094789D01*
X114208688Y-69104115D01*
X114194449Y-69124001D01*
X114180759Y-69143119D01*
X114167609Y-69161483D01*
X114154988Y-69179105D01*
X114142888Y-69196000D01*
X114131298Y-69212179D01*
X114120210Y-69227657D01*
X114109613Y-69242446D01*
X114099499Y-69256560D01*
X114089858Y-69270012D01*
X114080680Y-69282815D01*
X114071955Y-69294982D01*
X114063675Y-69306527D01*
X114055830Y-69317463D01*
X114048410Y-69327803D01*
X114041405Y-69337559D01*
X114034807Y-69346747D01*
X114028606Y-69355378D01*
X114022792Y-69363465D01*
X114017356Y-69371023D01*
X114012288Y-69378064D01*
X114007579Y-69384602D01*
X114003220Y-69390649D01*
X113999200Y-69396219D01*
X113995510Y-69401325D01*
X113992141Y-69405980D01*
X113989084Y-69410198D01*
X113986328Y-69413992D01*
X113983865Y-69417374D01*
X113981684Y-69420359D01*
X113979777Y-69422959D01*
X113978133Y-69425187D01*
X113976744Y-69427057D01*
X113975599Y-69428583D01*
X113974690Y-69429776D01*
X113974007Y-69430651D01*
X113973540Y-69431220D01*
X113973280Y-69431497D01*
X113973253Y-69431518D01*
X113971270Y-69432864D01*
X113955431Y-69433009D01*
X113951552Y-69433035D01*
X113947920Y-69433043D01*
X113944663Y-69433032D01*
X113941907Y-69433005D01*
X113939780Y-69432961D01*
X113938409Y-69432903D01*
X113938002Y-69432862D01*
X113936342Y-69432185D01*
X113934612Y-69430900D01*
X113933118Y-69429284D01*
X113932163Y-69427613D01*
X113932123Y-69427500D01*
X113932062Y-69426914D01*
X113931949Y-69425384D01*
X113931787Y-69422927D01*
X113931575Y-69419556D01*
X113931316Y-69415288D01*
X113931008Y-69410137D01*
X113930655Y-69404119D01*
X113930256Y-69397248D01*
X113929812Y-69389540D01*
X113929324Y-69381011D01*
X113928793Y-69371675D01*
X113928219Y-69361547D01*
X113927604Y-69350643D01*
X113926949Y-69338978D01*
X113926254Y-69326568D01*
X113925520Y-69313426D01*
X113924748Y-69299569D01*
X113923939Y-69285012D01*
X113923094Y-69269770D01*
X113922213Y-69253857D01*
X113921298Y-69237290D01*
X113920349Y-69220084D01*
X113919367Y-69202253D01*
X113918353Y-69183813D01*
X113917308Y-69164780D01*
X113916232Y-69145167D01*
X113915127Y-69124991D01*
X113913994Y-69104267D01*
X113913497Y-69095180D01*
X113912526Y-69077412D01*
X113911567Y-69059881D01*
X113910622Y-69042612D01*
X113909691Y-69025628D01*
X113908777Y-69008954D01*
X113907881Y-68992615D01*
X113907003Y-68976635D01*
X113906146Y-68961039D01*
X113905311Y-68945850D01*
X113904499Y-68931094D01*
X113903711Y-68916794D01*
X113902949Y-68902976D01*
X113902214Y-68889664D01*
X113901508Y-68876882D01*
X113900832Y-68864654D01*
X113900186Y-68853006D01*
X113899574Y-68841961D01*
X113898995Y-68831545D01*
X113898451Y-68821781D01*
X113897944Y-68812694D01*
X113897475Y-68804308D01*
X113897046Y-68796648D01*
X113896657Y-68789738D01*
X113896310Y-68783604D01*
X113896007Y-68778268D01*
X113895748Y-68773757D01*
X113895535Y-68770093D01*
X113895370Y-68767302D01*
X113895254Y-68765408D01*
X113895188Y-68764436D01*
X113895174Y-68764302D01*
X113895017Y-68764742D01*
X113894580Y-68766063D01*
X113893873Y-68768233D01*
X113892907Y-68771219D01*
X113891691Y-68774989D01*
X113890237Y-68779509D01*
X113888554Y-68784746D01*
X113886654Y-68790668D01*
X113884547Y-68797242D01*
X113882244Y-68804435D01*
X113879754Y-68812214D01*
X113877088Y-68820545D01*
X113874258Y-68829397D01*
X113871272Y-68838736D01*
X113868143Y-68848530D01*
X113864879Y-68858745D01*
X113861493Y-68869349D01*
X113857993Y-68880309D01*
X113854392Y-68891591D01*
X113850699Y-68903164D01*
X113846924Y-68914994D01*
X113843079Y-68927048D01*
X113839173Y-68939293D01*
X113835217Y-68951697D01*
X113831223Y-68964226D01*
X113827199Y-68976848D01*
X113823157Y-68989530D01*
X113819107Y-69002239D01*
X113815060Y-69014941D01*
X113811025Y-69027605D01*
X113807015Y-69040198D01*
X113803038Y-69052685D01*
X113799106Y-69065036D01*
X113795229Y-69077216D01*
X113791418Y-69089192D01*
X113787682Y-69100933D01*
X113784033Y-69112404D01*
X113780481Y-69123574D01*
X113777037Y-69134408D01*
X113773710Y-69144876D01*
X113770512Y-69154942D01*
X113767453Y-69164575D01*
X113764543Y-69173742D01*
X113761794Y-69182410D01*
X113759214Y-69190545D01*
X113756816Y-69198116D01*
X113754754Y-69204630D01*
X113750124Y-69219525D01*
X113745928Y-69233571D01*
X113742164Y-69246775D01*
X113738831Y-69259145D01*
X113735927Y-69270686D01*
X113733450Y-69281405D01*
X113731398Y-69291310D01*
X113729770Y-69300406D01*
X113729099Y-69304759D01*
X113728584Y-69309001D01*
X113728187Y-69313680D01*
X113727916Y-69318548D01*
X113727779Y-69323361D01*
X113727785Y-69327871D01*
X113727942Y-69331834D01*
X113728117Y-69333898D01*
X113729022Y-69339847D01*
X113730373Y-69345412D01*
X113732127Y-69350472D01*
X113734237Y-69354904D01*
X113736658Y-69358586D01*
X113737862Y-69359994D01*
X113741026Y-69362877D01*
X113745011Y-69365650D01*
X113749859Y-69368336D01*
X113755611Y-69370959D01*
X113757916Y-69371895D01*
X113762341Y-69373543D01*
X113767543Y-69375313D01*
X113773350Y-69377158D01*
X113779594Y-69379031D01*
X113786104Y-69380885D01*
X113792712Y-69382673D01*
X113799248Y-69384348D01*
X113805542Y-69385863D01*
X113811425Y-69387171D01*
X113816706Y-69388221D01*
X113820292Y-69388949D01*
X113822921Y-69389638D01*
X113824593Y-69390288D01*
X113824909Y-69390477D01*
X113827046Y-69392492D01*
X113828390Y-69395023D01*
X113828847Y-69397265D01*
X113828870Y-69397956D01*
X113828812Y-69398762D01*
X113828648Y-69399770D01*
X113828354Y-69401070D01*
X113827903Y-69402751D01*
X113827270Y-69404900D01*
X113826432Y-69407608D01*
X113825362Y-69410962D01*
X113824036Y-69415052D01*
X113822495Y-69419761D01*
X113820789Y-69424946D01*
X113819338Y-69429299D01*
X113818103Y-69432901D01*
X113817046Y-69435834D01*
X113816128Y-69438179D01*
X113815312Y-69440020D01*
X113814559Y-69441436D01*
X113813831Y-69442510D01*
X113813089Y-69443324D01*
X113812295Y-69443960D01*
X113811411Y-69444499D01*
X113810735Y-69444853D01*
X113808346Y-69446064D01*
X113645494Y-69446045D01*
X113630253Y-69446043D01*
X113615944Y-69446039D01*
X113602540Y-69446035D01*
X113590014Y-69446029D01*
X113578339Y-69446022D01*
X113567487Y-69446013D01*
X113557430Y-69446003D01*
X113548142Y-69445991D01*
X113539595Y-69445977D01*
X113531762Y-69445962D01*
X113524615Y-69445944D01*
X113518127Y-69445924D01*
X113512270Y-69445902D01*
X113507018Y-69445878D01*
X113502342Y-69445851D01*
X113498216Y-69445822D01*
X113494612Y-69445790D01*
X113491503Y-69445755D01*
X113488861Y-69445717D01*
X113486659Y-69445676D01*
X113484870Y-69445633D01*
X113483466Y-69445585D01*
X113482420Y-69445535D01*
X113481705Y-69445481D01*
X113481292Y-69445424D01*
X113481194Y-69445395D01*
X113479199Y-69444056D01*
X113477505Y-69442043D01*
X113476284Y-69439633D01*
X113475708Y-69437102D01*
X113475685Y-69436540D01*
X113475832Y-69435872D01*
X113476248Y-69434409D01*
X113476897Y-69432266D01*
X113477740Y-69429558D01*
X113478740Y-69426398D01*
X113479860Y-69422902D01*
X113481063Y-69419184D01*
X113482310Y-69415360D01*
X113483564Y-69411543D01*
X113484788Y-69407848D01*
X113485944Y-69404390D01*
X113486995Y-69401283D01*
X113487904Y-69398643D01*
X113488632Y-69396584D01*
X113489143Y-69395220D01*
X113489349Y-69394744D01*
X113490456Y-69393208D01*
X113492117Y-69391580D01*
X113493956Y-69390208D01*
X113494852Y-69389878D01*
X113496598Y-69389487D01*
X113499222Y-69389033D01*
X113502746Y-69388510D01*
X113507195Y-69387915D01*
X113508596Y-69387737D01*
X113516437Y-69386708D01*
X113524086Y-69385628D01*
X113531429Y-69384515D01*
X113538354Y-69383388D01*
X113544748Y-69382265D01*
X113550497Y-69381167D01*
X113555488Y-69380111D01*
X113558721Y-69379345D01*
X113565527Y-69377418D01*
X113572563Y-69375033D01*
X113579559Y-69372296D01*
X113586248Y-69369317D01*
X113592363Y-69366201D01*
X113594806Y-69364813D01*
X113601176Y-69360557D01*
X113607434Y-69355371D01*
X113613557Y-69349284D01*
X113619520Y-69342323D01*
X113625299Y-69334514D01*
X113630869Y-69325886D01*
X113633160Y-69321990D01*
X113636893Y-69315111D01*
X113640751Y-69307305D01*
X113644726Y-69298600D01*
X113648807Y-69289019D01*
X113652984Y-69278588D01*
X113657247Y-69267331D01*
X113661586Y-69255274D01*
X113665991Y-69242441D01*
X113670453Y-69228858D01*
X113671448Y-69225749D01*
X113676724Y-69209192D01*
X113682008Y-69192607D01*
X113687292Y-69176021D01*
X113692568Y-69159461D01*
X113697827Y-69142950D01*
X113703061Y-69126516D01*
X113708262Y-69110185D01*
X113713422Y-69093981D01*
X113718532Y-69077932D01*
X113723584Y-69062062D01*
X113728571Y-69046397D01*
X113733483Y-69030965D01*
X113738313Y-69015789D01*
X113743052Y-69000897D01*
X113747693Y-68986313D01*
X113752226Y-68972065D01*
X113756645Y-68958177D01*
X113760939Y-68944675D01*
X113765102Y-68931586D01*
X113769126Y-68918935D01*
X113773001Y-68906748D01*
X113776719Y-68895051D01*
X113780274Y-68883869D01*
X113783655Y-68873229D01*
X113786855Y-68863156D01*
X113789867Y-68853676D01*
X113792680Y-68844816D01*
X113795288Y-68836600D01*
X113797683Y-68829055D01*
X113799855Y-68822206D01*
X113801797Y-68816080D01*
X113803500Y-68810702D01*
X113804957Y-68806098D01*
X113806159Y-68802293D01*
X113807097Y-68799315D01*
X113807764Y-68797188D01*
X113808152Y-68795938D01*
X113808232Y-68795671D01*
X113809583Y-68790808D01*
X113810911Y-68785593D01*
X113812151Y-68780310D01*
X113813237Y-68775239D01*
X113814105Y-68770663D01*
X113814413Y-68768801D01*
X113814733Y-68766437D01*
X113814969Y-68763903D01*
X113815131Y-68761018D01*
X113815227Y-68757602D01*
X113815267Y-68753474D01*
X113815269Y-68751761D01*
X113815244Y-68747465D01*
X113815155Y-68743941D01*
X113814972Y-68741002D01*
X113814666Y-68738460D01*
X113814207Y-68736129D01*
X113813566Y-68733821D01*
X113812714Y-68731349D01*
X113811638Y-68728566D01*
X113808850Y-68722859D01*
X113805220Y-68717532D01*
X113800812Y-68712653D01*
X113795691Y-68708289D01*
X113789922Y-68704510D01*
X113787229Y-68703066D01*
X113782806Y-68701089D01*
X113777561Y-68699168D01*
X113771630Y-68697334D01*
X113765149Y-68695620D01*
X113758256Y-68694059D01*
X113751088Y-68692683D01*
X113743780Y-68691526D01*
X113736471Y-68690619D01*
X113734042Y-68690376D01*
X113731246Y-68690098D01*
X113729214Y-68689840D01*
X113727752Y-68689560D01*
X113726667Y-68689217D01*
X113725765Y-68688767D01*
X113725291Y-68688470D01*
X113723868Y-68687245D01*
X113722660Y-68685742D01*
X113722406Y-68685302D01*
X113721976Y-68684383D01*
X113721666Y-68683462D01*
X113721493Y-68682450D01*
X113721474Y-68681259D01*
X113721626Y-68679798D01*
X113721967Y-68677978D01*
X113722514Y-68675711D01*
X113723285Y-68672907D01*
X113724297Y-68669478D01*
X113725567Y-68665333D01*
X113727112Y-68660384D01*
X113727490Y-68659181D01*
X113728803Y-68655023D01*
X113730048Y-68651114D01*
X113731192Y-68647558D01*
X113732201Y-68644458D01*
X113733040Y-68641917D01*
X113733678Y-68640037D01*
X113734080Y-68638921D01*
X113734179Y-68638688D01*
X113735311Y-68637126D01*
X113736985Y-68635536D01*
X113738850Y-68634208D01*
X113740486Y-68633452D01*
X113740995Y-68633395D01*
X113742123Y-68633342D01*
X113743890Y-68633294D01*
X113746314Y-68633250D01*
X113749414Y-68633210D01*
X113753208Y-68633174D01*
X113757715Y-68633142D01*
X113762953Y-68633114D01*
X113768941Y-68633091D01*
X113775698Y-68633071D01*
X113783241Y-68633055D01*
X113791591Y-68633042D01*
X113800765Y-68633034D01*
X113810782Y-68633029D01*
X113821660Y-68633028D01*
X113833419Y-68633031D01*
X113846076Y-68633037D01*
X113859650Y-68633046D01*
X113874160Y-68633059D01*
X113878668Y-68633064D01*
X114015019Y-68633204D01*
X114016966Y-68634493D01*
X114018741Y-68636101D01*
X114019899Y-68637853D01*
X114019970Y-68638033D01*
X114020042Y-68638297D01*
X114020118Y-68638664D01*
X114020198Y-68639160D01*
X114020285Y-68639805D01*
X114020379Y-68640624D01*
X114020481Y-68641638D01*
X114020594Y-68642871D01*
X114020718Y-68644345D01*
X114020855Y-68646082D01*
X114021006Y-68648107D01*
X114021173Y-68650440D01*
X114021356Y-68653106D01*
X114021559Y-68656126D01*
X114021780Y-68659523D01*
X114022023Y-68663321D01*
X114022289Y-68667542D01*
X114022578Y-68672208D01*
X114022892Y-68677343D01*
X114023233Y-68682969D01*
X114023602Y-68689108D01*
X114024001Y-68695784D01*
X114024430Y-68703020D01*
X114024891Y-68710837D01*
X114025386Y-68719258D01*
X114025915Y-68728308D01*
X114026481Y-68738007D01*
X114027084Y-68748379D01*
X114027726Y-68759447D01*
X114028409Y-68771233D01*
X114029133Y-68783760D01*
X114029900Y-68797050D01*
X114030712Y-68811127D01*
X114031569Y-68826014D01*
X114032474Y-68841732D01*
X114033428Y-68858304D01*
X114034431Y-68875754D01*
X114035485Y-68894104D01*
X114036593Y-68913377D01*
X114037247Y-68924767D01*
X114038194Y-68941249D01*
X114039127Y-68957491D01*
X114040046Y-68973468D01*
X114040948Y-68989154D01*
X114041833Y-69004521D01*
X114042697Y-69019544D01*
X114043541Y-69034197D01*
X114044363Y-69048453D01*
X114045160Y-69062286D01*
X114045932Y-69075669D01*
X114046676Y-69088576D01*
X114047393Y-69100981D01*
X114048079Y-69112857D01*
X114048733Y-69124179D01*
X114049354Y-69134919D01*
X114049941Y-69145052D01*
X114050491Y-69154550D01*
X114051004Y-69163389D01*
X114051477Y-69171541D01*
X114051909Y-69178981D01*
X114052300Y-69185681D01*
X114052646Y-69191615D01*
X114052947Y-69196758D01*
X114053202Y-69201083D01*
X114053407Y-69204563D01*
X114053563Y-69207172D01*
X114053668Y-69208885D01*
X114053720Y-69209673D01*
X114053725Y-69209726D01*
X114054003Y-69209343D01*
X114054816Y-69208201D01*
X114056145Y-69206326D01*
X114057972Y-69203744D01*
X114060279Y-69200480D01*
X114063047Y-69196560D01*
X114066258Y-69192011D01*
X114069895Y-69186859D01*
X114073938Y-69181128D01*
X114078370Y-69174846D01*
X114083172Y-69168037D01*
X114088326Y-69160728D01*
X114093813Y-69152945D01*
X114099617Y-69144714D01*
X114105718Y-69136060D01*
X114112098Y-69127009D01*
X114118738Y-69117588D01*
X114125622Y-69107822D01*
X114132730Y-69097736D01*
X114140043Y-69087358D01*
X114147545Y-69076713D01*
X114155217Y-69065826D01*
X114163040Y-69054724D01*
X114170996Y-69043432D01*
X114179068Y-69031977D01*
X114187236Y-69020383D01*
X114195482Y-69008678D01*
X114203789Y-68996887D01*
X114212138Y-68985036D01*
X114220510Y-68973151D01*
X114228888Y-68961257D01*
X114237254Y-68949381D01*
X114245589Y-68937549D01*
X114253874Y-68925786D01*
X114262092Y-68914117D01*
X114270225Y-68902571D01*
X114278253Y-68891171D01*
X114286160Y-68879944D01*
X114293926Y-68868915D01*
X114301534Y-68858112D01*
X114308965Y-68847559D01*
X114316201Y-68837282D01*
X114323223Y-68827308D01*
X114330014Y-68817662D01*
X114336556Y-68808370D01*
X114342829Y-68799458D01*
X114348816Y-68790951D01*
X114354499Y-68782877D01*
X114359859Y-68775260D01*
X114364878Y-68768127D01*
X114369538Y-68761503D01*
X114373821Y-68755415D01*
X114377708Y-68749888D01*
X114381181Y-68744947D01*
X114384222Y-68740620D01*
X114386813Y-68736932D01*
X114388935Y-68733908D01*
X114390570Y-68731575D01*
X114391700Y-68729959D01*
X114392226Y-68729202D01*
X114396192Y-68723354D01*
X114400375Y-68716984D01*
X114404713Y-68710201D01*
X114409141Y-68703112D01*
X114413598Y-68695825D01*
X114418019Y-68688449D01*
X114422341Y-68681091D01*
X114426501Y-68673859D01*
X114430435Y-68666861D01*
X114434081Y-68660204D01*
X114437375Y-68653998D01*
X114440253Y-68648350D01*
X114442653Y-68643367D01*
X114442912Y-68642804D01*
X114444307Y-68639908D01*
X114445527Y-68637756D01*
X114446701Y-68636185D01*
X114447959Y-68635028D01*
X114449428Y-68634120D01*
X114449821Y-68633923D01*
X114450027Y-68633828D01*
X114450260Y-68633739D01*
X114450554Y-68633656D01*
X114450941Y-68633580D01*
X114451456Y-68633509D01*
X114452131Y-68633444D01*
X114453000Y-68633385D01*
X114454097Y-68633330D01*
X114455455Y-68633281D01*
X114457108Y-68633236D01*
X114459088Y-68633195D01*
X114461430Y-68633159D01*
X114464167Y-68633127D01*
X114467331Y-68633099D01*
X114470958Y-68633074D01*
X114475080Y-68633052D01*
X114479730Y-68633033D01*
X114484942Y-68633018D01*
X114490750Y-68633005D01*
X114497187Y-68632994D01*
X114504286Y-68632985D01*
X114512081Y-68632978D01*
X114520605Y-68632973D01*
X114529892Y-68632970D01*
X114539975Y-68632967D01*
X114550888Y-68632965D01*
X114562663Y-68632965D01*
X114575336Y-68632964D01*
X114587502Y-68632964D01*
X114601321Y-68632965D01*
G37*
D13*
X117490000Y-59445276D02*
X117490000Y-59954724D01*
X118535000Y-59445276D02*
X118535000Y-59954724D01*
X120750000Y-65140000D02*
X120100000Y-65140000D01*
X120750000Y-65140000D02*
X121400000Y-65140000D01*
X120750000Y-68260000D02*
X120100000Y-68260000D01*
X120750000Y-68260000D02*
X121400000Y-68260000D01*
X119530000Y-66500000D02*
X119050000Y-66500000D01*
X119290000Y-66170000D01*
X119530000Y-66500000D01*
G36*
X119530000Y-66500000D02*
G01*
X119050000Y-66500000D01*
X119290000Y-66170000D01*
X119530000Y-66500000D01*
G37*
X120750000Y-58140000D02*
X120100000Y-58140000D01*
X120750000Y-58140000D02*
X121400000Y-58140000D01*
X120750000Y-61260000D02*
X120100000Y-61260000D01*
X120750000Y-61260000D02*
X121400000Y-61260000D01*
X119630000Y-59500000D02*
X119150000Y-59500000D01*
X119390000Y-59170000D01*
X119630000Y-59500000D01*
G36*
X119630000Y-59500000D02*
G01*
X119150000Y-59500000D01*
X119390000Y-59170000D01*
X119630000Y-59500000D01*
G37*
X117477500Y-66445276D02*
X117477500Y-66954724D01*
X118522500Y-66445276D02*
X118522500Y-66954724D01*
X117477500Y-69945276D02*
X117477500Y-70454724D01*
X118522500Y-69945276D02*
X118522500Y-70454724D01*
X122977500Y-69945276D02*
X122977500Y-70454724D01*
X124022500Y-69945276D02*
X124022500Y-70454724D01*
X122990000Y-59445276D02*
X122990000Y-59954724D01*
X124035000Y-59445276D02*
X124035000Y-59954724D01*
X117477500Y-55945276D02*
X117477500Y-56454724D01*
X118522500Y-55945276D02*
X118522500Y-56454724D01*
X124840000Y-54902500D02*
X124840000Y-55822500D01*
X124840000Y-55822500D02*
X126440000Y-55822500D01*
X124840000Y-66102500D02*
X124840000Y-67022500D01*
X124840000Y-67022500D02*
X132660000Y-67022500D01*
X126440000Y-54902500D02*
X126440000Y-55822500D01*
X126440000Y-55822500D02*
X126440000Y-56102500D01*
X126440000Y-65822500D02*
X125225000Y-65822500D01*
X126440000Y-65822500D02*
X126440000Y-66102500D01*
X126440000Y-66102500D02*
X124840000Y-66102500D01*
X126440000Y-67022500D02*
X126440000Y-66102500D01*
X128300000Y-57462500D02*
X132660000Y-57462500D01*
X128300000Y-64462500D02*
X128300000Y-57462500D01*
X128800000Y-55662500D02*
X130400000Y-55662500D01*
X128800000Y-56662500D02*
X128800000Y-55662500D01*
X128800000Y-65262500D02*
X128800000Y-66262500D01*
X128800000Y-66262500D02*
X130400000Y-66262500D01*
X130400000Y-55662500D02*
X130400000Y-56662500D01*
X130400000Y-56662500D02*
X128800000Y-56662500D01*
X130400000Y-65262500D02*
X128800000Y-65262500D01*
X130400000Y-65262500D02*
X132660000Y-65262500D01*
X130400000Y-65762500D02*
X132660000Y-65762500D01*
X130400000Y-66262500D02*
X130400000Y-65262500D01*
X132660000Y-54902500D02*
X124840000Y-54902500D01*
X132660000Y-64462500D02*
X128300000Y-64462500D01*
X132660000Y-67022500D02*
X132660000Y-54902500D01*
X122977500Y-66445276D02*
X122977500Y-66954724D01*
X124022500Y-66445276D02*
X124022500Y-66954724D01*
X122504724Y-72227500D02*
X121995276Y-72227500D01*
X122504724Y-73272500D02*
X121995276Y-73272500D01*
X121995276Y-77727500D02*
X122504724Y-77727500D01*
X121995276Y-78772500D02*
X122504724Y-78772500D01*
X114100000Y-73440000D02*
X117860000Y-73440000D01*
X114100000Y-80260000D02*
X117860000Y-80260000D01*
X117860000Y-73440000D02*
X117860000Y-74700000D01*
X117860000Y-80260000D02*
X117860000Y-79000000D01*
X112820000Y-73540000D02*
X112580000Y-73210000D01*
X113060000Y-73210000D01*
X112820000Y-73540000D01*
G36*
X112820000Y-73540000D02*
G01*
X112580000Y-73210000D01*
X113060000Y-73210000D01*
X112820000Y-73540000D01*
G37*
X124840000Y-67940000D02*
X124840000Y-68860000D01*
X124840000Y-68860000D02*
X126440000Y-68860000D01*
X124840000Y-79140000D02*
X124840000Y-80060000D01*
X124840000Y-80060000D02*
X132660000Y-80060000D01*
X126440000Y-67940000D02*
X126440000Y-68860000D01*
X126440000Y-68860000D02*
X126440000Y-69140000D01*
X126440000Y-78860000D02*
X125225000Y-78860000D01*
X126440000Y-78860000D02*
X126440000Y-79140000D01*
X126440000Y-79140000D02*
X124840000Y-79140000D01*
X126440000Y-80060000D02*
X126440000Y-79140000D01*
X128300000Y-70500000D02*
X132660000Y-70500000D01*
X128300000Y-77500000D02*
X128300000Y-70500000D01*
X128800000Y-68700000D02*
X130400000Y-68700000D01*
X128800000Y-69700000D02*
X128800000Y-68700000D01*
X128800000Y-78300000D02*
X128800000Y-79300000D01*
X128800000Y-79300000D02*
X130400000Y-79300000D01*
X130400000Y-68700000D02*
X130400000Y-69700000D01*
X130400000Y-69700000D02*
X128800000Y-69700000D01*
X130400000Y-78300000D02*
X128800000Y-78300000D01*
X130400000Y-78300000D02*
X132660000Y-78300000D01*
X130400000Y-78800000D02*
X132660000Y-78800000D01*
X130400000Y-79300000D02*
X130400000Y-78300000D01*
X132660000Y-67940000D02*
X124840000Y-67940000D01*
X132660000Y-77500000D02*
X128300000Y-77500000D01*
X132660000Y-80060000D02*
X132660000Y-67940000D01*
X120750000Y-61640000D02*
X120100000Y-61640000D01*
X120750000Y-61640000D02*
X121400000Y-61640000D01*
X120750000Y-64760000D02*
X120100000Y-64760000D01*
X120750000Y-64760000D02*
X121400000Y-64760000D01*
X119550000Y-63000000D02*
X119070000Y-63000000D01*
X119310000Y-62670000D01*
X119550000Y-63000000D01*
G36*
X119550000Y-63000000D02*
G01*
X119070000Y-63000000D01*
X119310000Y-62670000D01*
X119550000Y-63000000D01*
G37*
D14*
G36*
X116000455Y-75801762D02*
G01*
X116001466Y-75803669D01*
X116003090Y-75806782D01*
X116005296Y-75811042D01*
X116008058Y-75816396D01*
X116011346Y-75822786D01*
X116015132Y-75830158D01*
X116019387Y-75838454D01*
X116024082Y-75847620D01*
X116029189Y-75857599D01*
X116034680Y-75868336D01*
X116040525Y-75879775D01*
X116046696Y-75891859D01*
X116053165Y-75904534D01*
X116059903Y-75917742D01*
X116066881Y-75931429D01*
X116074071Y-75945539D01*
X116081444Y-75960014D01*
X116083865Y-75964770D01*
X116092849Y-75982419D01*
X116101186Y-75998802D01*
X116108904Y-76013966D01*
X116116028Y-76027961D01*
X116122585Y-76040833D01*
X116128603Y-76052631D01*
X116134106Y-76063404D01*
X116139122Y-76073199D01*
X116143677Y-76082064D01*
X116147798Y-76090048D01*
X116151512Y-76097199D01*
X116154844Y-76103563D01*
X116157821Y-76109191D01*
X116160471Y-76114130D01*
X116162819Y-76118427D01*
X116164891Y-76122131D01*
X116166715Y-76125291D01*
X116168317Y-76127953D01*
X116169724Y-76130167D01*
X116170962Y-76131980D01*
X116172057Y-76133440D01*
X116173036Y-76134596D01*
X116173925Y-76135496D01*
X116174752Y-76136187D01*
X116175542Y-76136718D01*
X116176323Y-76137137D01*
X116177120Y-76137492D01*
X116177960Y-76137831D01*
X116178870Y-76138202D01*
X116179725Y-76138581D01*
X116186073Y-76140930D01*
X116192237Y-76141893D01*
X116198449Y-76141500D01*
X116200199Y-76141158D01*
X116201082Y-76140937D01*
X116202065Y-76140628D01*
X116203217Y-76140195D01*
X116204607Y-76139597D01*
X116206304Y-76138797D01*
X116208377Y-76137757D01*
X116210894Y-76136439D01*
X116213925Y-76134804D01*
X116217538Y-76132813D01*
X116221803Y-76130430D01*
X116226787Y-76127615D01*
X116232560Y-76124330D01*
X116239191Y-76120537D01*
X116246749Y-76116198D01*
X116255302Y-76111274D01*
X116264920Y-76105727D01*
X116275670Y-76099519D01*
X116287623Y-76092612D01*
X116288760Y-76091955D01*
X116300003Y-76085464D01*
X116310652Y-76079331D01*
X116320647Y-76073591D01*
X116329931Y-76068276D01*
X116338446Y-76063418D01*
X116346132Y-76059052D01*
X116352933Y-76055209D01*
X116358789Y-76051923D01*
X116363643Y-76049226D01*
X116367436Y-76047152D01*
X116370110Y-76045734D01*
X116371607Y-76045004D01*
X116371923Y-76044918D01*
X116371798Y-76045704D01*
X116371402Y-76047887D01*
X116370744Y-76051417D01*
X116369833Y-76056242D01*
X116368681Y-76062312D01*
X116367296Y-76069573D01*
X116365689Y-76077977D01*
X116363870Y-76087470D01*
X116361847Y-76098001D01*
X116359633Y-76109520D01*
X116357235Y-76121974D01*
X116354665Y-76135313D01*
X116351931Y-76149484D01*
X116349045Y-76164438D01*
X116346015Y-76180121D01*
X116342852Y-76196484D01*
X116339566Y-76213474D01*
X116336166Y-76231040D01*
X116332663Y-76249131D01*
X116329066Y-76267695D01*
X116325385Y-76286681D01*
X116321630Y-76306038D01*
X116321477Y-76306825D01*
X116316978Y-76330011D01*
X116312753Y-76351793D01*
X116308792Y-76372216D01*
X116305089Y-76391324D01*
X116301633Y-76409161D01*
X116298417Y-76425774D01*
X116295431Y-76441207D01*
X116292669Y-76455505D01*
X116290121Y-76468713D01*
X116287778Y-76480875D01*
X116285633Y-76492037D01*
X116283676Y-76502244D01*
X116281900Y-76511540D01*
X116280296Y-76519970D01*
X116278855Y-76527579D01*
X116277570Y-76534412D01*
X116276430Y-76540515D01*
X116275429Y-76545931D01*
X116274557Y-76550706D01*
X116273807Y-76554885D01*
X116273169Y-76558513D01*
X116272635Y-76561634D01*
X116272198Y-76564293D01*
X116271847Y-76566536D01*
X116271575Y-76568407D01*
X116271374Y-76569951D01*
X116271234Y-76571213D01*
X116271148Y-76572238D01*
X116271107Y-76573071D01*
X116271102Y-76573756D01*
X116271113Y-76574097D01*
X116271389Y-76577821D01*
X116271941Y-76580757D01*
X116272926Y-76583585D01*
X116273707Y-76585336D01*
X116277236Y-76591244D01*
X116281791Y-76596100D01*
X116287333Y-76599865D01*
X116288234Y-76600327D01*
X116294749Y-76602863D01*
X116301135Y-76603944D01*
X116307502Y-76603571D01*
X116313957Y-76601742D01*
X116317230Y-76600293D01*
X116317849Y-76599981D01*
X116318470Y-76599639D01*
X116319135Y-76599222D01*
X116319886Y-76598687D01*
X116320766Y-76597991D01*
X116321815Y-76597088D01*
X116323076Y-76595936D01*
X116324592Y-76594490D01*
X116326403Y-76592707D01*
X116328552Y-76590543D01*
X116331080Y-76587953D01*
X116334031Y-76584894D01*
X116337444Y-76581323D01*
X116341364Y-76577194D01*
X116345831Y-76572466D01*
X116350887Y-76567092D01*
X116356575Y-76561030D01*
X116362936Y-76554236D01*
X116370012Y-76546666D01*
X116377846Y-76538276D01*
X116386478Y-76529022D01*
X116395952Y-76518861D01*
X116406309Y-76507748D01*
X116417590Y-76495639D01*
X116429081Y-76483306D01*
X116439362Y-76472274D01*
X116449378Y-76461537D01*
X116459082Y-76451144D01*
X116468428Y-76441144D01*
X116477369Y-76431587D01*
X116485859Y-76422523D01*
X116493851Y-76414000D01*
X116501299Y-76406068D01*
X116508155Y-76398778D01*
X116514374Y-76392177D01*
X116519909Y-76386316D01*
X116524714Y-76381245D01*
X116528741Y-76377012D01*
X116531945Y-76373667D01*
X116534279Y-76371260D01*
X116535696Y-76369840D01*
X116536149Y-76369447D01*
X116536509Y-76370188D01*
X116537404Y-76372190D01*
X116538790Y-76375357D01*
X116540626Y-76379589D01*
X116542870Y-76384790D01*
X116545480Y-76390861D01*
X116548413Y-76397705D01*
X116551628Y-76405223D01*
X116555083Y-76413318D01*
X116558736Y-76421892D01*
X116562237Y-76430124D01*
X116566080Y-76439156D01*
X116569798Y-76447872D01*
X116573346Y-76456167D01*
X116576678Y-76463933D01*
X116579747Y-76471066D01*
X116582509Y-76477458D01*
X116584917Y-76483005D01*
X116586926Y-76487599D01*
X116588490Y-76491135D01*
X116589562Y-76493507D01*
X116590052Y-76494525D01*
X116593491Y-76499518D01*
X116598071Y-76503886D01*
X116603503Y-76507359D01*
X116604479Y-76507837D01*
X116607523Y-76509121D01*
X116610291Y-76509887D01*
X116613462Y-76510291D01*
X116615718Y-76510420D01*
X116616535Y-76510441D01*
X116617434Y-76510429D01*
X116618479Y-76510370D01*
X116619732Y-76510251D01*
X116621258Y-76510060D01*
X116623121Y-76509785D01*
X116625383Y-76509411D01*
X116628110Y-76508927D01*
X116631363Y-76508320D01*
X116635207Y-76507576D01*
X116639706Y-76506684D01*
X116644923Y-76505629D01*
X116650922Y-76504400D01*
X116657766Y-76502984D01*
X116665520Y-76501368D01*
X116674246Y-76499539D01*
X116684008Y-76497484D01*
X116694871Y-76495190D01*
X116706897Y-76492645D01*
X116720150Y-76489836D01*
X116734694Y-76486750D01*
X116750593Y-76483374D01*
X116757482Y-76481911D01*
X116771359Y-76478965D01*
X116784847Y-76476104D01*
X116797874Y-76473343D01*
X116810371Y-76470697D01*
X116822265Y-76468181D01*
X116833487Y-76465810D01*
X116843966Y-76463599D01*
X116853631Y-76461563D01*
X116862412Y-76459716D01*
X116870237Y-76458073D01*
X116877036Y-76456650D01*
X116882738Y-76455461D01*
X116887273Y-76454521D01*
X116890569Y-76453845D01*
X116892557Y-76453448D01*
X116893168Y-76453342D01*
X116892964Y-76454054D01*
X116892323Y-76456103D01*
X116891268Y-76459425D01*
X116889820Y-76463953D01*
X116887999Y-76469621D01*
X116885828Y-76476363D01*
X116883327Y-76484113D01*
X116880519Y-76492806D01*
X116877423Y-76502376D01*
X116874062Y-76512755D01*
X116870457Y-76523880D01*
X116866629Y-76535682D01*
X116862599Y-76548098D01*
X116858390Y-76561060D01*
X116854021Y-76574503D01*
X116849515Y-76588361D01*
X116846806Y-76596690D01*
X116840980Y-76614604D01*
X116835603Y-76631158D01*
X116830662Y-76646393D01*
X116826143Y-76660350D01*
X116822034Y-76673071D01*
X116818320Y-76684599D01*
X116814990Y-76694974D01*
X116812028Y-76704238D01*
X116809423Y-76712432D01*
X116807162Y-76719600D01*
X116805230Y-76725781D01*
X116803614Y-76731018D01*
X116802302Y-76735352D01*
X116801280Y-76738826D01*
X116800536Y-76741480D01*
X116800054Y-76743356D01*
X116799824Y-76744497D01*
X116799805Y-76744659D01*
X116799927Y-76751115D01*
X116801361Y-76757405D01*
X116803987Y-76763271D01*
X116807688Y-76768453D01*
X116812344Y-76772693D01*
X116812781Y-76773002D01*
X116813917Y-76773640D01*
X116816284Y-76774847D01*
X116819773Y-76776572D01*
X116824277Y-76778763D01*
X116829687Y-76781368D01*
X116835894Y-76784334D01*
X116842789Y-76787611D01*
X116850266Y-76791145D01*
X116858214Y-76794886D01*
X116866527Y-76798780D01*
X116868953Y-76799914D01*
X116877265Y-76803802D01*
X116885183Y-76807521D01*
X116892605Y-76811021D01*
X116899432Y-76814255D01*
X116905561Y-76817173D01*
X116910891Y-76819729D01*
X116915322Y-76821872D01*
X116918752Y-76823555D01*
X116921081Y-76824730D01*
X116922206Y-76825348D01*
X116922297Y-76825424D01*
X116921743Y-76825932D01*
X116920079Y-76827337D01*
X116917342Y-76829610D01*
X116913572Y-76832718D01*
X116908806Y-76836631D01*
X116903082Y-76841318D01*
X116896439Y-76846748D01*
X116888913Y-76852891D01*
X116880543Y-76859714D01*
X116871368Y-76867188D01*
X116861424Y-76875282D01*
X116850751Y-76883964D01*
X116839386Y-76893203D01*
X116827368Y-76902969D01*
X116814733Y-76913231D01*
X116801521Y-76923958D01*
X116787769Y-76935119D01*
X116773515Y-76946683D01*
X116758798Y-76958618D01*
X116743655Y-76970895D01*
X116728124Y-76983482D01*
X116712243Y-76996349D01*
X116696051Y-77009464D01*
X116688452Y-77015617D01*
X116669251Y-77031168D01*
X116650688Y-77046207D01*
X116632789Y-77060715D01*
X116615578Y-77074672D01*
X116599079Y-77088058D01*
X116583317Y-77100852D01*
X116568317Y-77113035D01*
X116554103Y-77124587D01*
X116540698Y-77135488D01*
X116528129Y-77145719D01*
X116516419Y-77155258D01*
X116505593Y-77164086D01*
X116495676Y-77172183D01*
X116486691Y-77179530D01*
X116478663Y-77186106D01*
X116471617Y-77191891D01*
X116465578Y-77196865D01*
X116460569Y-77201009D01*
X116456615Y-77204303D01*
X116453741Y-77206725D01*
X116451972Y-77208258D01*
X116451357Y-77208841D01*
X116448355Y-77213085D01*
X116446361Y-77217443D01*
X116445244Y-77222317D01*
X116444872Y-77228108D01*
X116444870Y-77228575D01*
X116444870Y-77235958D01*
X116474191Y-77316581D01*
X116477996Y-77327050D01*
X116481657Y-77337137D01*
X116485143Y-77346753D01*
X116488422Y-77355813D01*
X116491463Y-77364228D01*
X116494235Y-77371911D01*
X116496706Y-77378775D01*
X116498844Y-77384733D01*
X116500619Y-77389698D01*
X116501998Y-77393581D01*
X116502951Y-77396297D01*
X116503446Y-77397758D01*
X116503512Y-77397991D01*
X116502912Y-77398461D01*
X116501850Y-77398397D01*
X116500995Y-77398239D01*
X116498742Y-77397836D01*
X116495151Y-77397198D01*
X116490277Y-77396336D01*
X116484179Y-77395258D01*
X116476915Y-77393976D01*
X116468541Y-77392499D01*
X116459116Y-77390837D01*
X116448697Y-77389002D01*
X116437341Y-77387002D01*
X116425106Y-77384848D01*
X116412049Y-77382551D01*
X116398229Y-77380119D01*
X116383702Y-77377564D01*
X116368526Y-77374896D01*
X116352759Y-77372124D01*
X116336457Y-77369258D01*
X116319680Y-77366310D01*
X116302483Y-77363289D01*
X116287563Y-77360668D01*
X116266378Y-77356946D01*
X116246598Y-77353472D01*
X116228171Y-77350236D01*
X116211048Y-77347231D01*
X116195179Y-77344449D01*
X116180514Y-77341882D01*
X116167002Y-77339522D01*
X116154592Y-77337361D01*
X116143236Y-77335392D01*
X116132882Y-77333606D01*
X116123480Y-77331996D01*
X116114981Y-77330554D01*
X116107333Y-77329272D01*
X116100488Y-77328141D01*
X116094394Y-77327155D01*
X116089001Y-77326304D01*
X116084259Y-77325582D01*
X116080119Y-77324980D01*
X116076529Y-77324491D01*
X116073439Y-77324106D01*
X116070800Y-77323818D01*
X116068561Y-77323619D01*
X116066672Y-77323500D01*
X116065082Y-77323455D01*
X116063742Y-77323475D01*
X116062602Y-77323551D01*
X116061610Y-77323677D01*
X116060717Y-77323845D01*
X116059873Y-77324046D01*
X116059027Y-77324272D01*
X116058130Y-77324517D01*
X116057956Y-77324563D01*
X116050419Y-77327269D01*
X116043486Y-77331192D01*
X116037308Y-77336177D01*
X116032038Y-77342070D01*
X116027830Y-77348716D01*
X116024835Y-77355961D01*
X116024037Y-77358883D01*
X116023497Y-77361981D01*
X116023095Y-77365814D01*
X116022904Y-77369642D01*
X116022898Y-77370300D01*
X116022935Y-77371484D01*
X116023046Y-77374070D01*
X116023226Y-77377985D01*
X116023472Y-77383158D01*
X116023780Y-77389514D01*
X116024146Y-77396982D01*
X116024567Y-77405489D01*
X116025039Y-77414962D01*
X116025558Y-77425329D01*
X116026121Y-77436518D01*
X116026723Y-77448455D01*
X116027362Y-77461068D01*
X116028032Y-77474284D01*
X116028732Y-77488032D01*
X116029455Y-77502238D01*
X116030200Y-77516829D01*
X116030963Y-77531733D01*
X116031738Y-77546878D01*
X116032524Y-77562191D01*
X116033316Y-77577599D01*
X116034110Y-77593030D01*
X116034903Y-77608411D01*
X116035691Y-77623670D01*
X116036470Y-77638733D01*
X116037236Y-77653529D01*
X116037986Y-77667985D01*
X116038716Y-77682027D01*
X116039422Y-77695585D01*
X116040101Y-77708584D01*
X116040749Y-77720953D01*
X116041361Y-77732618D01*
X116041935Y-77743508D01*
X116042467Y-77753549D01*
X116042952Y-77762670D01*
X116043387Y-77770796D01*
X116043769Y-77777857D01*
X116044094Y-77783779D01*
X116044357Y-77788489D01*
X116044555Y-77791916D01*
X116044685Y-77793986D01*
X116044707Y-77794287D01*
X116045168Y-77800378D01*
X116000251Y-77800379D01*
X115955334Y-77800380D01*
X115955540Y-77796503D01*
X115956773Y-77773288D01*
X115957993Y-77750243D01*
X115959196Y-77727413D01*
X115960381Y-77704846D01*
X115961545Y-77682589D01*
X115962686Y-77660689D01*
X115963802Y-77639194D01*
X115964889Y-77618150D01*
X115965947Y-77597604D01*
X115966972Y-77577604D01*
X115967962Y-77558197D01*
X115968915Y-77539429D01*
X115969828Y-77521348D01*
X115970699Y-77504001D01*
X115971526Y-77487435D01*
X115972306Y-77471697D01*
X115973038Y-77456834D01*
X115973718Y-77442893D01*
X115974344Y-77429922D01*
X115974914Y-77417967D01*
X115975426Y-77407076D01*
X115975877Y-77397295D01*
X115976265Y-77388672D01*
X115976587Y-77381254D01*
X115976841Y-77375088D01*
X115977026Y-77370220D01*
X115977138Y-77366699D01*
X115977175Y-77364571D01*
X115977153Y-77363925D01*
X115975581Y-77356702D01*
X115973289Y-77350468D01*
X115970075Y-77344831D01*
X115965742Y-77339400D01*
X115963490Y-77337034D01*
X115957528Y-77331827D01*
X115951210Y-77327925D01*
X115944246Y-77325157D01*
X115942045Y-77324537D01*
X115941123Y-77324293D01*
X115940260Y-77324065D01*
X115939406Y-77323861D01*
X115938512Y-77323689D01*
X115937527Y-77323557D01*
X115936401Y-77323474D01*
X115935084Y-77323446D01*
X115933526Y-77323482D01*
X115931677Y-77323590D01*
X115929487Y-77323778D01*
X115926906Y-77324052D01*
X115923884Y-77324422D01*
X115920371Y-77324896D01*
X115916316Y-77325480D01*
X115911671Y-77326184D01*
X115906384Y-77327014D01*
X115900407Y-77327979D01*
X115893687Y-77329087D01*
X115886177Y-77330345D01*
X115877825Y-77331762D01*
X115868582Y-77333345D01*
X115858398Y-77335102D01*
X115847222Y-77337041D01*
X115835004Y-77339171D01*
X115821696Y-77341498D01*
X115807245Y-77344031D01*
X115791603Y-77346778D01*
X115774720Y-77349746D01*
X115756545Y-77352943D01*
X115737028Y-77356378D01*
X115716120Y-77360059D01*
X115710601Y-77361030D01*
X115693067Y-77364115D01*
X115675910Y-77367131D01*
X115659190Y-77370070D01*
X115642961Y-77372919D01*
X115627282Y-77375671D01*
X115612208Y-77378314D01*
X115597797Y-77380840D01*
X115584105Y-77383237D01*
X115571190Y-77385496D01*
X115559109Y-77387607D01*
X115547917Y-77389560D01*
X115537673Y-77391346D01*
X115528433Y-77392954D01*
X115520253Y-77394374D01*
X115513191Y-77395597D01*
X115507303Y-77396612D01*
X115502647Y-77397409D01*
X115499279Y-77397979D01*
X115497256Y-77398312D01*
X115496632Y-77398401D01*
X115496847Y-77397689D01*
X115497536Y-77395677D01*
X115498668Y-77392449D01*
X115500213Y-77388094D01*
X115502138Y-77382697D01*
X115504413Y-77376345D01*
X115507007Y-77369124D01*
X115509889Y-77361120D01*
X115513028Y-77352421D01*
X115516392Y-77343112D01*
X115519951Y-77333280D01*
X115523674Y-77323012D01*
X115525701Y-77317426D01*
X115530177Y-77305098D01*
X115534174Y-77294077D01*
X115537720Y-77284284D01*
X115540843Y-77275638D01*
X115543569Y-77268059D01*
X115545927Y-77261468D01*
X115547942Y-77255784D01*
X115549644Y-77250928D01*
X115551059Y-77246820D01*
X115552214Y-77243379D01*
X115553137Y-77240525D01*
X115553856Y-77238180D01*
X115554396Y-77236262D01*
X115554787Y-77234691D01*
X115555055Y-77233389D01*
X115555227Y-77232274D01*
X115555331Y-77231267D01*
X115555375Y-77230622D01*
X115555155Y-77223616D01*
X115553650Y-77217219D01*
X115550891Y-77211519D01*
X115547566Y-77207271D01*
X115546807Y-77206611D01*
X115544939Y-77205054D01*
X115542000Y-77202631D01*
X115538030Y-77199373D01*
X115533066Y-77195311D01*
X115527148Y-77190478D01*
X115520314Y-77184905D01*
X115512603Y-77178622D01*
X115504053Y-77171662D01*
X115494703Y-77164056D01*
X115484592Y-77155835D01*
X115473759Y-77147030D01*
X115462241Y-77137674D01*
X115450078Y-77127797D01*
X115437309Y-77117430D01*
X115423971Y-77106607D01*
X115410105Y-77095356D01*
X115395747Y-77083711D01*
X115380937Y-77071702D01*
X115365714Y-77059362D01*
X115350117Y-77046720D01*
X115334183Y-77033809D01*
X115317952Y-77020661D01*
X115310972Y-77015007D01*
X115294658Y-77001792D01*
X115278640Y-76988813D01*
X115262956Y-76976099D01*
X115247643Y-76963681D01*
X115232740Y-76951592D01*
X115218284Y-76939860D01*
X115204314Y-76928519D01*
X115190867Y-76917597D01*
X115177982Y-76907127D01*
X115165696Y-76897139D01*
X115154047Y-76887663D01*
X115143073Y-76878732D01*
X115132813Y-76870375D01*
X115123303Y-76862624D01*
X115114582Y-76855509D01*
X115106689Y-76849062D01*
X115099660Y-76843313D01*
X115093534Y-76838293D01*
X115088349Y-76834034D01*
X115084143Y-76830565D01*
X115080953Y-76827918D01*
X115078818Y-76826124D01*
X115077775Y-76825213D01*
X115077673Y-76825099D01*
X115078418Y-76824717D01*
X115080399Y-76823761D01*
X115083514Y-76822278D01*
X115087661Y-76820316D01*
X115092737Y-76817925D01*
X115098640Y-76815152D01*
X115105268Y-76812045D01*
X115112517Y-76808653D01*
X115120286Y-76805023D01*
X115128473Y-76801204D01*
X115131037Y-76800008D01*
X115139405Y-76796101D01*
X115147440Y-76792333D01*
X115155033Y-76788758D01*
X115162074Y-76785426D01*
X115168456Y-76782391D01*
X115174069Y-76779703D01*
X115178805Y-76777415D01*
X115182554Y-76775579D01*
X115185209Y-76774247D01*
X115186659Y-76773471D01*
X115186820Y-76773370D01*
X115191639Y-76769235D01*
X115195692Y-76763979D01*
X115197750Y-76760224D01*
X115198782Y-76757946D01*
X115199449Y-76756051D01*
X115199828Y-76754103D01*
X115199996Y-76751666D01*
X115200027Y-76748303D01*
X115200023Y-76747213D01*
X115199978Y-76739091D01*
X115153392Y-76596233D01*
X115148809Y-76582178D01*
X115144351Y-76568500D01*
X115140039Y-76555264D01*
X115135894Y-76542536D01*
X115131938Y-76530383D01*
X115128193Y-76518870D01*
X115124679Y-76508064D01*
X115121418Y-76498030D01*
X115118431Y-76488833D01*
X115115741Y-76480542D01*
X115113367Y-76473220D01*
X115111333Y-76466934D01*
X115109658Y-76461750D01*
X115108366Y-76457734D01*
X115107476Y-76454952D01*
X115107010Y-76453470D01*
X115106943Y-76453232D01*
X115107668Y-76453369D01*
X115109766Y-76453797D01*
X115113167Y-76454504D01*
X115117801Y-76455473D01*
X115123595Y-76456689D01*
X115130481Y-76458138D01*
X115138387Y-76459805D01*
X115147242Y-76461675D01*
X115156976Y-76463733D01*
X115167518Y-76465963D01*
X115178797Y-76468352D01*
X115190743Y-76470884D01*
X115203285Y-76473544D01*
X115216353Y-76476317D01*
X115229875Y-76479188D01*
X115242538Y-76481879D01*
X115259010Y-76485379D01*
X115274101Y-76488584D01*
X115287875Y-76491506D01*
X115300396Y-76494159D01*
X115311727Y-76496555D01*
X115321932Y-76498708D01*
X115331075Y-76500629D01*
X115339219Y-76502332D01*
X115346428Y-76503829D01*
X115352766Y-76505134D01*
X115358295Y-76506258D01*
X115363080Y-76507216D01*
X115367185Y-76508019D01*
X115370672Y-76508681D01*
X115373606Y-76509214D01*
X115376050Y-76509631D01*
X115378067Y-76509945D01*
X115379722Y-76510169D01*
X115381078Y-76510316D01*
X115382199Y-76510397D01*
X115383148Y-76510427D01*
X115383988Y-76510418D01*
X115384270Y-76510408D01*
X115387942Y-76510148D01*
X115390852Y-76509613D01*
X115393711Y-76508637D01*
X115395883Y-76507683D01*
X115400412Y-76505044D01*
X115404695Y-76501550D01*
X115408315Y-76497590D01*
X115410663Y-76493948D01*
X115411167Y-76492843D01*
X115412202Y-76490481D01*
X115413725Y-76486965D01*
X115415692Y-76482398D01*
X115418058Y-76476882D01*
X115420780Y-76470520D01*
X115423814Y-76463415D01*
X115427116Y-76455669D01*
X115430641Y-76447386D01*
X115434346Y-76438667D01*
X115437818Y-76430488D01*
X115441621Y-76421529D01*
X115445265Y-76412957D01*
X115448707Y-76404871D01*
X115451907Y-76397368D01*
X115454822Y-76390546D01*
X115457411Y-76384502D01*
X115459631Y-76379334D01*
X115461441Y-76375139D01*
X115462799Y-76372016D01*
X115463663Y-76370063D01*
X115463989Y-76369378D01*
X115464532Y-76369854D01*
X115466034Y-76371362D01*
X115468446Y-76373851D01*
X115471722Y-76377271D01*
X115475815Y-76381572D01*
X115480677Y-76386704D01*
X115486261Y-76392617D01*
X115492520Y-76399261D01*
X115499408Y-76406586D01*
X115506876Y-76414541D01*
X115514878Y-76423076D01*
X115523367Y-76432142D01*
X115532295Y-76441688D01*
X115541615Y-76451664D01*
X115551281Y-76462020D01*
X115561244Y-76472705D01*
X115568153Y-76480121D01*
X115578344Y-76491061D01*
X115588294Y-76501740D01*
X115597955Y-76512106D01*
X115607278Y-76522107D01*
X115616214Y-76531689D01*
X115624714Y-76540801D01*
X115632729Y-76549390D01*
X115640210Y-76557403D01*
X115647107Y-76564788D01*
X115653372Y-76571492D01*
X115658955Y-76577463D01*
X115663808Y-76582648D01*
X115667881Y-76586995D01*
X115671126Y-76590451D01*
X115673493Y-76592963D01*
X115674934Y-76594480D01*
X115675339Y-76594897D01*
X115680236Y-76598775D01*
X115685897Y-76601659D01*
X115691986Y-76603442D01*
X115698169Y-76604015D01*
X115702534Y-76603612D01*
X115709265Y-76601702D01*
X115715225Y-76598537D01*
X115720326Y-76594199D01*
X115722547Y-76591685D01*
X115724550Y-76589094D01*
X115725932Y-76586954D01*
X115726011Y-76586803D01*
X115727577Y-76582963D01*
X115728769Y-76578551D01*
X115729464Y-76574159D01*
X115729538Y-76570377D01*
X115729503Y-76570020D01*
X115729332Y-76569027D01*
X115728890Y-76566637D01*
X115728186Y-76562901D01*
X115727231Y-76557872D01*
X115726035Y-76551602D01*
X115724608Y-76544143D01*
X115722959Y-76535547D01*
X115721099Y-76525867D01*
X115719039Y-76515154D01*
X115716787Y-76503460D01*
X115714354Y-76490838D01*
X115711750Y-76477339D01*
X115708986Y-76463017D01*
X115706070Y-76447922D01*
X115703014Y-76432108D01*
X115699827Y-76415625D01*
X115696520Y-76398527D01*
X115693101Y-76380865D01*
X115689583Y-76362692D01*
X115685973Y-76344059D01*
X115682283Y-76325019D01*
X115678523Y-76305624D01*
X115678482Y-76305415D01*
X115674729Y-76286054D01*
X115671049Y-76267064D01*
X115667453Y-76248498D01*
X115663950Y-76230406D01*
X115660551Y-76212839D01*
X115657266Y-76195849D01*
X115654103Y-76179487D01*
X115651074Y-76163805D01*
X115648187Y-76148852D01*
X115645454Y-76134681D01*
X115642883Y-76121343D01*
X115640485Y-76108889D01*
X115638269Y-76097370D01*
X115636245Y-76086837D01*
X115634423Y-76077342D01*
X115632814Y-76068936D01*
X115631426Y-76061670D01*
X115630270Y-76055595D01*
X115629356Y-76050762D01*
X115628693Y-76047223D01*
X115628292Y-76045029D01*
X115628161Y-76044231D01*
X115628162Y-76044229D01*
X115628823Y-76044557D01*
X115630686Y-76045582D01*
X115633675Y-76047261D01*
X115637714Y-76049549D01*
X115642729Y-76052404D01*
X115648642Y-76055783D01*
X115655380Y-76059641D01*
X115662864Y-76063936D01*
X115671021Y-76068624D01*
X115679774Y-76073662D01*
X115689048Y-76079007D01*
X115698767Y-76084614D01*
X115708855Y-76090441D01*
X115710709Y-76091513D01*
X115720917Y-76097408D01*
X115730811Y-76103110D01*
X115740312Y-76108574D01*
X115749339Y-76113753D01*
X115757814Y-76118604D01*
X115765658Y-76123081D01*
X115772790Y-76127138D01*
X115779132Y-76130732D01*
X115784603Y-76133816D01*
X115789126Y-76136345D01*
X115792619Y-76138274D01*
X115795005Y-76139559D01*
X115796203Y-76140153D01*
X115796267Y-76140177D01*
X115802933Y-76141692D01*
X115809534Y-76141733D01*
X115816082Y-76140301D01*
X115821538Y-76137964D01*
X115822481Y-76137490D01*
X115823343Y-76137077D01*
X115824149Y-76136677D01*
X115824927Y-76136242D01*
X115825703Y-76135722D01*
X115826503Y-76135070D01*
X115827354Y-76134238D01*
X115828282Y-76133176D01*
X115829314Y-76131837D01*
X115830477Y-76130172D01*
X115831796Y-76128133D01*
X115833299Y-76125671D01*
X115835011Y-76122738D01*
X115836960Y-76119285D01*
X115839172Y-76115265D01*
X115841673Y-76110628D01*
X115844490Y-76105327D01*
X115847649Y-76099312D01*
X115851177Y-76092537D01*
X115855100Y-76084951D01*
X115859445Y-76076508D01*
X115864239Y-76067157D01*
X115869507Y-76056852D01*
X115875276Y-76045544D01*
X115881573Y-76033183D01*
X115888425Y-76019723D01*
X115895857Y-76005114D01*
X115903896Y-75989308D01*
X115912569Y-75972257D01*
X115916574Y-75964385D01*
X115923986Y-75949820D01*
X115931224Y-75935603D01*
X115938260Y-75921791D01*
X115945064Y-75908438D01*
X115951609Y-75895602D01*
X115957866Y-75883339D01*
X115963806Y-75871703D01*
X115969400Y-75860752D01*
X115974620Y-75850540D01*
X115979438Y-75841125D01*
X115983824Y-75832561D01*
X115987750Y-75824906D01*
X115991187Y-75818214D01*
X115994107Y-75812542D01*
X115996481Y-75807947D01*
X115998281Y-75804482D01*
X115999477Y-75802206D01*
X116000042Y-75801173D01*
X116000084Y-75801114D01*
X116000455Y-75801762D01*
G37*
D13*
X120762500Y-54640000D02*
X120112500Y-54640000D01*
X120762500Y-54640000D02*
X121412500Y-54640000D01*
X120762500Y-57760000D02*
X120112500Y-57760000D01*
X120762500Y-57760000D02*
X121412500Y-57760000D01*
X119602500Y-56030000D02*
X119122500Y-56030000D01*
X119362500Y-55700000D01*
X119602500Y-56030000D01*
G36*
X119602500Y-56030000D02*
G01*
X119122500Y-56030000D01*
X119362500Y-55700000D01*
X119602500Y-56030000D01*
G37*
X120750000Y-68640000D02*
X120100000Y-68640000D01*
X120750000Y-68640000D02*
X121400000Y-68640000D01*
X120750000Y-71760000D02*
X120100000Y-71760000D01*
X120750000Y-71760000D02*
X121400000Y-71760000D01*
X119590000Y-70030000D02*
X119110000Y-70030000D01*
X119350000Y-69700000D01*
X119590000Y-70030000D01*
G36*
X119590000Y-70030000D02*
G01*
X119110000Y-70030000D01*
X119350000Y-69700000D01*
X119590000Y-70030000D01*
G37*
X120690000Y-75500000D02*
X120690000Y-74850000D01*
X120690000Y-75500000D02*
X120690000Y-76150000D01*
X123810000Y-75500000D02*
X123810000Y-74850000D01*
X123810000Y-75500000D02*
X123810000Y-76150000D01*
X122780000Y-74060000D02*
X122450000Y-74300000D01*
X122450000Y-73820000D01*
X122780000Y-74060000D01*
G36*
X122780000Y-74060000D02*
G01*
X122450000Y-74300000D01*
X122450000Y-73820000D01*
X122780000Y-74060000D01*
G37*
%LPC*%
D15*
X118000000Y-62287500D03*
X118000000Y-64112500D03*
X123500000Y-62287500D03*
X123500000Y-64112500D03*
X123500000Y-55287500D03*
X123500000Y-57112500D03*
X118012500Y-58787500D03*
X118012500Y-60612500D03*
D16*
X119812500Y-65750000D03*
X119812500Y-67650000D03*
X121687500Y-66700000D03*
X119812500Y-58750000D03*
X119812500Y-60650000D03*
X121687500Y-59700000D03*
D15*
X118000000Y-65787500D03*
X118000000Y-67612500D03*
X118000000Y-69287500D03*
X118000000Y-71112500D03*
X123500000Y-69287500D03*
X123500000Y-71112500D03*
X123512500Y-58787500D03*
X123512500Y-60612500D03*
X118000000Y-55287500D03*
X118000000Y-57112500D03*
D17*
X126300000Y-64962500D03*
D18*
X126300000Y-62962500D03*
X126300000Y-60962500D03*
X126300000Y-58962500D03*
X126300000Y-56962500D03*
D15*
X123500000Y-65787500D03*
X123500000Y-67612500D03*
D19*
X123162500Y-72750000D03*
X121337500Y-72750000D03*
D20*
X121337500Y-78250000D03*
X123162500Y-78250000D03*
D21*
X112800000Y-74550000D03*
X112800000Y-76850000D03*
D22*
X119100000Y-76850000D03*
D21*
X112800000Y-79150000D03*
D17*
X126300000Y-78000000D03*
D18*
X126300000Y-76000000D03*
X126300000Y-74000000D03*
X126300000Y-72000000D03*
X126300000Y-70000000D03*
D16*
X119812500Y-62250000D03*
X119812500Y-64150000D03*
X121687500Y-63200000D03*
X119825000Y-55250000D03*
X119825000Y-57150000D03*
X121700000Y-56200000D03*
X119812500Y-69250000D03*
X119812500Y-71150000D03*
X121687500Y-70200000D03*
D23*
X123200000Y-74562500D03*
X121300000Y-74562500D03*
X122250000Y-76437500D03*
D24*
X115050000Y-56350000D03*
D25*
X112510000Y-56350000D03*
X115050000Y-58890000D03*
X112510000Y-58890000D03*
X115050000Y-61430000D03*
X112510000Y-61430000D03*
X115050000Y-63970000D03*
X112510000Y-63970000D03*
X115050000Y-66510000D03*
X112510000Y-66510000D03*
%LPD*%
M02*
